roboto-mono_thin.sfdir
StartChar: exclam
Encoding: 33 33 1040
Width: 1229
Flags: W
LayerCount: 2
Back
Fore
SplineSet
619 401 m 1,0,-1
 564 401 l 1,1,-1
 564 1456 l 1,2,-1
 619 1456 l 1,3,-1
 619 401 l 1,0,-1
543 49 m 0,4,5
 543 71 543 71 560 88 c 128,-1,6
 577 105 577 105 599 105 c 0,7,8
 622 105 622 105 639.5 88.5 c 128,-1,9
 657 72 657 72 657 49 c 256,10,11
 657 26 657 26 639 10 c 128,-1,12
 621 -6 621 -6 599 -6 c 256,13,14
 577 -6 577 -6 560 10 c 128,-1,15
 543 26 543 26 543 49 c 0,4,5
EndSplineSet
EndChar
StartChar: quotedbl
Encoding: 34 34 4
Width: 1229
Flags: W
LayerCount: 2
Back
Fore
SplineSet
514 1393 m 1,0,-1
 503 1122 l 1,1,-1
 450 1122 l 1,2,-1
 458 1390 l 1,3,-1
 456 1536 l 1,4,-1
 516 1536 l 1,5,-1
 514 1393 l 1,0,-1
763 1393 m 1,6,-1
 752 1122 l 1,7,-1
 699 1122 l 1,8,-1
 708 1390 l 1,9,-1
 706 1536 l 1,10,-1
 765 1536 l 1,11,-1
 763 1393 l 1,6,-1
EndSplineSet
EndChar
StartChar: numbersign
Encoding: 35 35 5
Width: 1229
Flags: W
LayerCount: 2
Back
Fore
SplineSet
752 410 m 1,0,-1
 388 410 l 1,1,-1
 314 0 l 1,2,-1
 258 0 l 1,3,-1
 332 410 l 1,4,-1
 61 410 l 1,5,-1
 61 462 l 1,6,-1
 342 462 l 1,7,-1
 437 986 l 1,8,-1
 137 986 l 1,9,-1
 137 1040 l 1,10,-1
 447 1040 l 1,11,-1
 522 1456 l 1,12,-1
 578 1456 l 1,13,-1
 502 1040 l 1,14,-1
 867 1040 l 1,15,-1
 943 1456 l 1,16,-1
 999 1456 l 1,17,-1
 923 1040 l 1,18,-1
 1177 1040 l 1,19,-1
 1177 986 l 1,20,-1
 913 986 l 1,21,-1
 817 462 l 1,22,-1
 1102 462 l 1,23,-1
 1102 410 l 1,24,-1
 808 410 l 1,25,-1
 733 0 l 1,26,-1
 677 0 l 1,27,-1
 752 410 l 1,0,-1
398 462 m 1,28,-1
 761 462 l 1,29,-1
 857 986 l 1,30,-1
 492 986 l 1,31,-1
 398 462 l 1,28,-1
EndSplineSet
EndChar
StartChar: dollar
Encoding: 36 36 6
Width: 1229
Flags: W
LayerCount: 2
Back
Fore
SplineSet
1015 344 m 0,0,1
 1016 426 1016 426 982 483.5 c 128,-1,2
 948 541 948 541 894.5 582 c 128,-1,3
 841 623 841 623 775.5 651 c 128,-1,4
 710 679 710 679 647 702 c 0,5,6
 573 728 573 728 501 759.5 c 128,-1,7
 429 791 429 791 371 837.5 c 128,-1,8
 313 884 313 884 277.5 949.5 c 128,-1,9
 242 1015 242 1015 242 1110 c 0,10,11
 242 1196 242 1196 273.5 1262.5 c 128,-1,12
 305 1329 305 1329 358 1375 c 128,-1,13
 411 1421 411 1421 480 1446.5 c 128,-1,14
 549 1472 549 1472 624 1476 c 1,15,-1
 624 1663 l 1,16,-1
 680 1663 l 1,17,-1
 680 1476 l 1,18,19
 768 1471 768 1471 837.5 1438.5 c 128,-1,20
 907 1406 907 1406 955.5 1350 c 128,-1,21
 1004 1294 1004 1294 1031 1217 c 128,-1,22
 1058 1140 1058 1140 1061 1047 c 1,23,-1
 1006 1047 l 1,24,25
 1004 1130 1004 1130 978 1199 c 128,-1,26
 952 1268 952 1268 906 1318 c 128,-1,27
 860 1368 860 1368 795 1396 c 128,-1,28
 730 1424 730 1424 650 1424 c 0,29,30
 583 1424 583 1424 520 1404 c 128,-1,31
 457 1384 457 1384 407.5 1345 c 128,-1,32
 358 1306 358 1306 327.5 1247.5 c 128,-1,33
 297 1189 297 1189 296 1112 c 0,34,35
 295 1028 295 1028 328 970 c 128,-1,36
 361 912 361 912 414 871.5 c 128,-1,37
 467 831 467 831 533 804 c 128,-1,38
 599 777 599 777 664 754 c 0,39,40
 737 728 737 728 809 696.5 c 128,-1,41
 881 665 881 665 939 618 c 128,-1,42
 997 571 997 571 1033 505 c 128,-1,43
 1069 439 1069 439 1069 346 c 0,44,45
 1069 260 1069 260 1037.5 194.5 c 128,-1,46
 1006 129 1006 129 954 83 c 128,-1,47
 902 37 902 37 834 11.5 c 128,-1,48
 766 -14 766 -14 692 -19 c 1,49,-1
 692 -208 l 1,50,-1
 636 -208 l 1,51,-1
 636 -21 l 1,52,53
 542 -18 542 -18 462.5 11 c 128,-1,54
 383 40 383 40 324.5 94.5 c 128,-1,55
 266 149 266 149 231.5 228 c 128,-1,56
 197 307 197 307 193 409 c 1,57,-1
 248 409 l 1,58,59
 251 317 251 317 283.5 246 c 128,-1,60
 316 175 316 175 371 127.5 c 128,-1,61
 426 80 426 80 499.5 55.5 c 128,-1,62
 573 31 573 31 657 32 c 0,63,64
 721 32 721 32 785 52.5 c 128,-1,65
 849 73 849 73 900 113 c 128,-1,66
 951 153 951 153 982.5 211 c 128,-1,67
 1014 269 1014 269 1015 344 c 0,0,1
EndSplineSet
EndChar
StartChar: percent
Encoding: 37 37 7
Width: 1229
Flags: W
LayerCount: 2
Back
Fore
SplineSet
44 1176 m 2,0,1
 45 1228 45 1228 60 1282 c 128,-1,2
 75 1336 75 1336 105 1379 c 128,-1,3
 135 1422 135 1422 179.5 1449.5 c 128,-1,4
 224 1477 224 1477 284 1477 c 256,5,6
 344 1477 344 1477 388.5 1449.5 c 128,-1,7
 433 1422 433 1422 462.5 1378.5 c 128,-1,8
 492 1335 492 1335 507 1281.5 c 128,-1,9
 522 1228 522 1228 523 1176 c 2,10,-1
 523 1099 l 2,11,12
 522 1047 522 1047 507 994 c 128,-1,13
 492 941 492 941 463 898 c 128,-1,14
 434 855 434 855 389.5 827.5 c 128,-1,15
 345 800 345 800 286 800 c 0,16,17
 226 800 226 800 181 827 c 128,-1,18
 136 854 136 854 106 896.5 c 128,-1,19
 76 939 76 939 60.5 992.5 c 128,-1,20
 45 1046 45 1046 44 1099 c 2,21,-1
 44 1176 l 2,0,1
99 1099 m 2,22,23
 100 1057 100 1057 111 1013.5 c 128,-1,24
 122 970 122 970 144.5 934.5 c 128,-1,25
 167 899 167 899 202 877 c 128,-1,26
 237 855 237 855 286 855 c 0,27,28
 334 855 334 855 368.5 878 c 128,-1,29
 403 901 403 901 425 936 c 128,-1,30
 447 971 447 971 457.5 1014.5 c 128,-1,31
 468 1058 468 1058 469 1099 c 2,32,-1
 469 1176 l 2,33,34
 468 1218 468 1218 457.5 1261.5 c 128,-1,35
 447 1305 447 1305 424.5 1340.5 c 128,-1,36
 402 1376 402 1376 367.5 1399 c 128,-1,37
 333 1422 333 1422 284 1422 c 0,38,39
 236 1422 236 1422 201 1399 c 128,-1,40
 166 1376 166 1376 143.5 1340 c 128,-1,41
 121 1304 121 1304 110.5 1260.5 c 128,-1,42
 100 1217 100 1217 99 1176 c 2,43,-1
 99 1099 l 2,22,23
702 357 m 2,44,45
 703 409 703 409 718 462.5 c 128,-1,46
 733 516 733 516 763 559 c 128,-1,47
 793 602 793 602 837 629.5 c 128,-1,48
 881 657 881 657 941 657 c 256,49,50
 1001 657 1001 657 1045.5 630 c 128,-1,51
 1090 603 1090 603 1120 559.5 c 128,-1,52
 1150 516 1150 516 1165.5 462.5 c 128,-1,53
 1181 409 1181 409 1182 357 c 2,54,-1
 1182 279 l 2,55,56
 1181 227 1181 227 1166 173.5 c 128,-1,57
 1151 120 1151 120 1121 77 c 128,-1,58
 1091 34 1091 34 1047 6.5 c 128,-1,59
 1003 -21 1003 -21 943 -21 c 256,60,61
 883 -21 883 -21 838.5 6 c 128,-1,62
 794 33 794 33 764 76.5 c 128,-1,63
 734 120 734 120 718.5 173 c 128,-1,64
 703 226 703 226 702 279 c 2,65,-1
 702 357 l 2,44,45
757 279 m 2,66,67
 758 237 758 237 768.5 193.5 c 128,-1,68
 779 150 779 150 801.5 114.5 c 128,-1,69
 824 79 824 79 859 56.5 c 128,-1,70
 894 34 894 34 943 34 c 256,71,72
 992 34 992 34 1026.5 56.5 c 128,-1,73
 1061 79 1061 79 1083 114.5 c 128,-1,74
 1105 150 1105 150 1115.5 193.5 c 128,-1,75
 1126 237 1126 237 1127 279 c 2,76,-1
 1127 357 l 2,77,78
 1126 400 1126 400 1116 443.5 c 128,-1,79
 1106 487 1106 487 1083.5 522 c 128,-1,80
 1061 557 1061 557 1026 579.5 c 128,-1,81
 991 602 991 602 941 602 c 256,82,83
 891 602 891 602 856.5 579.5 c 128,-1,84
 822 557 822 557 800 522 c 128,-1,85
 778 487 778 487 768 443 c 128,-1,86
 758 399 758 399 757 357 c 2,87,-1
 757 279 l 2,66,67
316 131 m 1,88,-1
 273 162 l 1,89,-1
 895 1300 l 1,90,-1
 938 1269 l 1,91,-1
 316 131 l 1,88,-1
EndSplineSet
EndChar
StartChar: ampersand
Encoding: 38 38 8
Width: 1229
Flags: W
LayerCount: 2
Back
Fore
SplineSet
451 802 m 1,0,1
 420 842 420 842 392 885 c 128,-1,2
 364 928 364 928 343 973.5 c 128,-1,3
 322 1019 322 1019 309.5 1067.5 c 128,-1,4
 297 1116 297 1116 297 1167 c 0,5,6
 297 1230 297 1230 317 1286.5 c 128,-1,7
 337 1343 337 1343 374 1385 c 128,-1,8
 411 1427 411 1427 464 1452 c 128,-1,9
 517 1477 517 1477 583 1477 c 0,10,11
 639 1477 639 1477 687 1457 c 128,-1,12
 735 1437 735 1437 769.5 1401.5 c 128,-1,13
 804 1366 804 1366 823 1317.5 c 128,-1,14
 842 1269 842 1269 842 1213 c 0,15,16
 842 1168 842 1168 825.5 1126.5 c 128,-1,17
 809 1085 809 1085 783.5 1048 c 128,-1,18
 758 1011 758 1011 726 978.5 c 128,-1,19
 694 946 694 946 662 918 c 2,20,-1
 521 797 l 1,21,-1
 959 263 l 1,22,23
 1010 345 1010 345 1037 441 c 128,-1,24
 1064 537 1064 537 1068 632 c 1,25,-1
 1122 632 l 1,26,27
 1122 519 1122 519 1091.5 414 c 128,-1,28
 1061 309 1061 309 998 216 c 1,29,-1
 1175 0 l 1,30,-1
 1110 0 l 1,31,-1
 965 175 l 1,32,33
 925 133 925 133 881 97.5 c 128,-1,34
 837 62 837 62 787.5 36 c 128,-1,35
 738 10 738 10 684 -5 c 128,-1,36
 630 -20 630 -20 571 -20 c 0,37,38
 487 -20 487 -20 413 5 c 128,-1,39
 339 30 339 30 283.5 78 c 128,-1,40
 228 126 228 126 196 195 c 128,-1,41
 164 264 164 264 164 352 c 0,42,43
 164 415 164 415 185 472.5 c 128,-1,44
 206 530 206 530 239.5 581 c 128,-1,45
 273 632 273 632 316 677.5 c 128,-1,46
 359 723 359 723 404 762 c 2,47,-1
 451 802 l 1,0,1
571 34 m 0,48,49
 629 34 629 34 680.5 47 c 128,-1,50
 732 60 732 60 777 84.5 c 128,-1,51
 822 109 822 109 860 143.5 c 128,-1,52
 898 178 898 178 929 219 c 1,53,-1
 512 725 l 1,54,-1
 481 763 l 1,55,-1
 435 723 l 2,56,57
 396 688 396 688 357 646.5 c 128,-1,58
 318 605 318 605 287 558.5 c 128,-1,59
 256 512 256 512 237 460 c 128,-1,60
 218 408 218 408 218 352 c 0,61,62
 219 277 219 277 247.5 218 c 128,-1,63
 276 159 276 159 324 118 c 128,-1,64
 372 77 372 77 436 55.5 c 128,-1,65
 500 34 500 34 571 34 c 0,48,49
352 1169 m 0,66,67
 352 1122 352 1122 363 1077.5 c 128,-1,68
 374 1033 374 1033 393 991 c 128,-1,69
 412 949 412 949 437 910 c 128,-1,70
 462 871 462 871 490 835 c 1,71,-1
 637 960 l 2,72,73
 665 984 665 984 691.5 1012 c 128,-1,74
 718 1040 718 1040 739 1071.5 c 128,-1,75
 760 1103 760 1103 773 1138.5 c 128,-1,76
 786 1174 786 1174 786 1213 c 0,77,78
 786 1257 786 1257 771 1295 c 128,-1,79
 756 1333 756 1333 729 1361.5 c 128,-1,80
 702 1390 702 1390 664.5 1406.5 c 128,-1,81
 627 1423 627 1423 583 1423 c 0,82,83
 529 1423 529 1423 486 1402.5 c 128,-1,84
 443 1382 443 1382 413.5 1347 c 128,-1,85
 384 1312 384 1312 368 1266 c 128,-1,86
 352 1220 352 1220 352 1169 c 0,66,67
EndSplineSet
EndChar
StartChar: quotesingle
Encoding: 39 39 9
Width: 1229
Flags: W
LayerCount: 2
Back
Fore
SplineSet
603 1367 m 1,0,-1
 588 1122 l 1,1,-1
 538 1122 l 1,2,-1
 548 1365 l 1,3,-1
 547 1536 l 1,4,-1
 603 1536 l 1,5,-1
 603 1367 l 1,0,-1
EndSplineSet
EndChar
StartChar: parenleft
Encoding: 40 40 10
Width: 1229
Flags: W
LayerCount: 2
Back
Fore
SplineSet
406 586 m 2,0,1
 406 673 406 673 415.5 769.5 c 128,-1,2
 425 866 425 866 445 964 c 128,-1,3
 465 1062 465 1062 496.5 1157.5 c 128,-1,4
 528 1253 528 1253 574 1339 c 128,-1,5
 620 1425 620 1425 681 1498 c 128,-1,6
 742 1571 742 1571 820 1623 c 1,7,-1
 839 1580 l 1,8,9
 767 1530 767 1530 711 1460 c 128,-1,10
 655 1390 655 1390 613 1307 c 128,-1,11
 571 1224 571 1224 542 1132 c 128,-1,12
 513 1040 513 1040 495 946.5 c 128,-1,13
 477 853 477 853 468.5 762 c 128,-1,14
 460 671 460 671 460 590 c 2,15,-1
 460 564 l 2,16,17
 461 483 461 483 469 392 c 128,-1,18
 477 301 477 301 495 207.5 c 128,-1,19
 513 114 513 114 542 22 c 128,-1,20
 571 -70 571 -70 613 -153 c 128,-1,21
 655 -236 655 -236 711 -306.5 c 128,-1,22
 767 -377 767 -377 839 -427 c 1,23,-1
 820 -470 l 1,24,25
 741 -417 741 -417 679.5 -344.5 c 128,-1,26
 618 -272 618 -272 572 -186 c 128,-1,27
 526 -100 526 -100 494.5 -5 c 128,-1,28
 463 90 463 90 443.5 187.5 c 128,-1,29
 424 285 424 285 415 381.5 c 128,-1,30
 406 478 406 478 406 566 c 2,31,-1
 406 586 l 2,0,1
EndSplineSet
EndChar
StartChar: parenright
Encoding: 41 41 11
Width: 1229
Flags: W
LayerCount: 2
Back
Fore
SplineSet
798 566 m 2,0,1
 797 478 797 478 788.5 381.5 c 128,-1,2
 780 285 780 285 760.5 187.5 c 128,-1,3
 741 90 741 90 709.5 -5 c 128,-1,4
 678 -100 678 -100 632 -186 c 128,-1,5
 586 -272 586 -272 524.5 -344.5 c 128,-1,6
 463 -417 463 -417 384 -470 c 1,7,-1
 365 -427 l 1,8,9
 437 -377 437 -377 493 -306.5 c 128,-1,10
 549 -236 549 -236 591 -153 c 128,-1,11
 633 -70 633 -70 662 22 c 128,-1,12
 691 114 691 114 709 207.5 c 128,-1,13
 727 301 727 301 735 392 c 128,-1,14
 743 483 743 483 744 564 c 2,15,-1
 744 590 l 2,16,17
 743 671 743 671 735 762 c 128,-1,18
 727 853 727 853 709 946.5 c 128,-1,19
 691 1040 691 1040 662 1132 c 128,-1,20
 633 1224 633 1224 591 1307 c 128,-1,21
 549 1390 549 1390 493 1460 c 128,-1,22
 437 1530 437 1530 365 1580 c 1,23,-1
 384 1623 l 1,24,25
 462 1571 462 1571 523 1498 c 128,-1,26
 584 1425 584 1425 630 1339 c 128,-1,27
 676 1253 676 1253 707.5 1157.5 c 128,-1,28
 739 1062 739 1062 759 964 c 128,-1,29
 779 866 779 866 788 769.5 c 128,-1,30
 797 673 797 673 798 586 c 2,31,-1
 798 566 l 2,0,1
EndSplineSet
EndChar
StartChar: asterisk
Encoding: 42 42 12
Width: 1229
Flags: W
LayerCount: 2
Back
Fore
SplineSet
604 1017 m 1,0,-1
 208 1141 l 1,1,-1
 227 1195 l 1,2,-1
 622 1062 l 1,3,-1
 624 1456 l 1,4,-1
 683 1456 l 1,5,-1
 675 1061 l 1,6,-1
 1058 1204 l 1,7,-1
 1080 1151 l 1,8,-1
 688 1014 l 1,9,-1
 969 697 l 1,10,-1
 919 664 l 1,11,-1
 645 986 l 1,12,-1
 387 661 l 1,13,-1
 340 693 l 1,14,-1
 604 1017 l 1,0,-1
EndSplineSet
EndChar
StartChar: plus
Encoding: 43 43 13
Width: 1229
Flags: W
LayerCount: 2
Back
Fore
SplineSet
636 702 m 1,0,-1
 1117 702 l 1,1,-1
 1117 649 l 1,2,-1
 636 649 l 1,3,-1
 636 146 l 1,4,-1
 581 146 l 1,5,-1
 581 649 l 1,6,-1
 119 649 l 1,7,-1
 119 702 l 1,8,-1
 581 702 l 1,9,-1
 581 1206 l 1,10,-1
 636 1206 l 1,11,-1
 636 702 l 1,0,-1
EndSplineSet
EndChar
StartChar: comma
Encoding: 44 44 14
Width: 1229
Flags: W
LayerCount: 2
Back
Fore
SplineSet
559 27 m 2,0,1
 557 -54 557 -54 532 -124.5 c 128,-1,2
 507 -195 507 -195 453 -255 c 1,3,-1
 416 -223 l 1,4,5
 458 -166 458 -166 481 -106.5 c 128,-1,6
 504 -47 504 -47 505 25 c 2,7,-1
 505 159 l 1,8,-1
 559 159 l 1,9,-1
 559 27 l 2,0,1
EndSplineSet
EndChar
StartChar: period
Encoding: 46 46 16
Width: 1229
Flags: W
LayerCount: 2
Back
Fore
SplineSet
589 52 m 0,0,1
 589 77 589 77 607 94.5 c 128,-1,2
 625 112 625 112 647 112 c 0,3,4
 670 112 670 112 688.5 94.5 c 128,-1,5
 707 77 707 77 707 52 c 0,6,7
 707 28 707 28 688.5 11 c 128,-1,8
 670 -6 670 -6 647 -6 c 0,9,10
 625 -6 625 -6 607 11 c 128,-1,11
 589 28 589 28 589 52 c 0,0,1
EndSplineSet
EndChar
StartChar: slash
Encoding: 47 47 17
Width: 1229
Flags: W
LayerCount: 2
Back
Fore
SplineSet
365 -125 m 1,0,-1
 306 -125 l 1,1,-1
 914 1456 l 1,2,-1
 973 1456 l 1,3,-1
 365 -125 l 1,0,-1
EndSplineSet
EndChar
StartChar: zero
Encoding: 48 48 18
Width: 1229
Flags: W
LayerCount: 2
Back
Fore
SplineSet
1063 594 m 2,0,1
 1062 523 1062 523 1052.5 450 c 128,-1,2
 1043 377 1043 377 1021.5 309 c 128,-1,3
 1000 241 1000 241 966 181 c 128,-1,4
 932 121 932 121 883 76.5 c 128,-1,5
 834 32 834 32 768.5 6 c 128,-1,6
 703 -20 703 -20 619 -20 c 0,7,8
 536 -20 536 -20 470.5 6 c 128,-1,9
 405 32 405 32 355.5 76.5 c 128,-1,10
 306 121 306 121 271 181 c 128,-1,11
 236 241 236 241 214.5 309 c 128,-1,12
 193 377 193 377 182.5 450 c 128,-1,13
 172 523 172 523 172 594 c 2,14,-1
 172 862 l 2,15,16
 172 932 172 932 182 1005 c 128,-1,17
 192 1078 192 1078 213.5 1146.5 c 128,-1,18
 235 1215 235 1215 269.5 1275 c 128,-1,19
 304 1335 304 1335 353 1380 c 128,-1,20
 402 1425 402 1425 467.5 1451 c 128,-1,21
 533 1477 533 1477 617 1477 c 256,22,23
 701 1477 701 1477 766.5 1451 c 128,-1,24
 832 1425 832 1425 881 1380.5 c 128,-1,25
 930 1336 930 1336 964.5 1276 c 128,-1,26
 999 1216 999 1216 1021 1147.5 c 128,-1,27
 1043 1079 1043 1079 1052.5 1006 c 128,-1,28
 1062 933 1062 933 1063 862 c 2,29,-1
 1063 594 l 2,0,1
226 596 m 2,30,31
 226 544 226 544 231.5 490.5 c 128,-1,32
 237 437 237 437 250 384 c 1,33,-1
 975 1115 l 1,34,35
 957 1178 957 1178 927 1234 c 128,-1,36
 897 1290 897 1290 853.5 1332 c 128,-1,37
 810 1374 810 1374 751.5 1398.5 c 128,-1,38
 693 1423 693 1423 617 1423 c 256,39,40
 541 1423 541 1423 483 1399 c 128,-1,41
 425 1375 425 1375 381.5 1333.5 c 128,-1,42
 338 1292 338 1292 308.5 1236.5 c 128,-1,43
 279 1181 279 1181 261 1118.5 c 128,-1,44
 243 1056 243 1056 234.5 990 c 128,-1,45
 226 924 226 924 226 862 c 2,46,-1
 226 596 l 2,30,31
1009 862 m 2,47,48
 1008 910 1008 910 1003.5 959.5 c 128,-1,49
 999 1009 999 1009 989 1058 c 1,50,-1
 265 328 l 1,51,52
 284 268 284 268 314 214.5 c 128,-1,53
 344 161 344 161 387 121 c 128,-1,54
 430 81 430 81 487.5 57.5 c 128,-1,55
 545 34 545 34 619 34 c 0,56,57
 694 34 694 34 752.5 58.5 c 128,-1,58
 811 83 811 83 854 124.5 c 128,-1,59
 897 166 897 166 926.5 221.5 c 128,-1,60
 956 277 956 277 974 339.5 c 128,-1,61
 992 402 992 402 1000 468 c 128,-1,62
 1008 534 1008 534 1009 596 c 2,63,-1
 1009 862 l 2,47,48
EndSplineSet
EndChar
StartChar: one
Encoding: 49 49 19
Width: 1229
Flags: W
LayerCount: 2
Back
Fore
SplineSet
711 0 m 1,0,-1
 656 0 l 1,1,-1
 656 1386 l 1,2,-1
 230 1187 l 1,3,-1
 230 1247 l 1,4,-1
 692 1456 l 1,5,-1
 711 1456 l 1,6,-1
 711 0 l 1,0,-1
EndSplineSet
EndChar
StartChar: two
Encoding: 50 50 20
Width: 1229
Flags: W
LayerCount: 2
Back
Fore
SplineSet
1019 0 m 1,0,-1
 148 0 l 1,1,-1
 148 54 l 1,2,-1
 625 604 l 2,3,4
 667 653 667 653 713 708 c 128,-1,5
 759 763 759 763 797.5 824 c 128,-1,6
 836 885 836 885 861 950.5 c 128,-1,7
 886 1016 886 1016 886 1085 c 0,8,9
 886 1164 886 1164 859.5 1226.5 c 128,-1,10
 833 1289 833 1289 785.5 1332.5 c 128,-1,11
 738 1376 738 1376 673 1399 c 128,-1,12
 608 1422 608 1422 531 1422 c 0,13,14
 450 1422 450 1422 384 1392 c 128,-1,15
 318 1362 318 1362 270.5 1310.5 c 128,-1,16
 223 1259 223 1259 196 1190.5 c 128,-1,17
 169 1122 169 1122 166 1045 c 1,18,-1
 112 1045 l 1,19,20
 115 1133 115 1133 146.5 1211.5 c 128,-1,21
 178 1290 178 1290 233 1348.5 c 128,-1,22
 288 1407 288 1407 363.5 1441.5 c 128,-1,23
 439 1476 439 1476 531 1476 c 0,24,25
 620 1476 620 1476 695 1449.5 c 128,-1,26
 770 1423 770 1423 825 1372 c 128,-1,27
 880 1321 880 1321 910.5 1248.5 c 128,-1,28
 941 1176 941 1176 941 1085 c 0,29,30
 941 1007 941 1007 911.5 934 c 128,-1,31
 882 861 882 861 838 793 c 128,-1,32
 794 725 794 725 741.5 663 c 128,-1,33
 689 601 689 601 641 546 c 2,34,-1
 219 54 l 1,35,-1
 1019 54 l 1,36,-1
 1019 0 l 1,0,-1
EndSplineSet
EndChar
StartChar: three
Encoding: 51 51 21
Width: 1229
Flags: W
LayerCount: 2
Back
Fore
SplineSet
414 770 m 1,0,-1
 525 770 l 2,1,2
 595 771 595 771 665.5 790.5 c 128,-1,3
 736 810 736 810 792 849 c 128,-1,4
 848 888 848 888 883 946.5 c 128,-1,5
 918 1005 918 1005 918 1085 c 0,6,7
 918 1163 918 1163 891 1225.5 c 128,-1,8
 864 1288 864 1288 816 1331.5 c 128,-1,9
 768 1375 768 1375 702.5 1398.5 c 128,-1,10
 637 1422 637 1422 561 1422 c 0,11,12
 483 1422 483 1422 415.5 1397 c 128,-1,13
 348 1372 348 1372 298 1326.5 c 128,-1,14
 248 1281 248 1281 218 1217 c 128,-1,15
 188 1153 188 1153 185 1074 c 1,16,-1
 131 1074 l 1,17,18
 134 1164 134 1164 168 1238 c 128,-1,19
 202 1312 202 1312 260 1365 c 128,-1,20
 318 1418 318 1418 395 1447 c 128,-1,21
 472 1476 472 1476 561 1476 c 0,22,23
 649 1476 649 1476 724 1448 c 128,-1,24
 799 1420 799 1420 854.5 1368.5 c 128,-1,25
 910 1317 910 1317 941 1244 c 128,-1,26
 972 1171 972 1171 972 1081 c 0,27,28
 972 1014 972 1014 949 959.5 c 128,-1,29
 926 905 926 905 887.5 863 c 128,-1,30
 849 821 849 821 797.5 791.5 c 128,-1,31
 746 762 746 762 688 744 c 1,32,33
 753 729 753 729 810.5 700 c 128,-1,34
 868 671 868 671 911 627 c 128,-1,35
 954 583 954 583 979 523 c 128,-1,36
 1004 463 1004 463 1004 386 c 0,37,38
 1004 292 1004 292 970 217 c 128,-1,39
 936 142 936 142 877.5 89.5 c 128,-1,40
 819 37 819 37 739.5 8.5 c 128,-1,41
 660 -20 660 -20 570 -20 c 0,42,43
 475 -20 475 -20 391 10 c 128,-1,44
 307 40 307 40 243.5 95.5 c 128,-1,45
 180 151 180 151 141.5 229.5 c 128,-1,46
 103 308 103 308 100 405 c 1,47,-1
 154 405 l 1,48,49
 157 320 157 320 191.5 251.5 c 128,-1,50
 226 183 226 183 282.5 134.5 c 128,-1,51
 339 86 339 86 413 60 c 128,-1,52
 487 34 487 34 570 34 c 0,53,54
 650 34 650 34 719.5 57 c 128,-1,55
 789 80 789 80 840 124.5 c 128,-1,56
 891 169 891 169 920.5 233.5 c 128,-1,57
 950 298 950 298 950 382 c 0,58,59
 950 474 950 474 913.5 537 c 128,-1,60
 877 600 877 600 817.5 639 c 128,-1,61
 758 678 758 678 681.5 695.5 c 128,-1,62
 605 713 605 713 525 714 c 2,63,-1
 414 714 l 1,64,-1
 414 770 l 1,0,-1
EndSplineSet
EndChar
StartChar: four
Encoding: 52 52 22
Width: 1229
Flags: W
LayerCount: 2
Back
Fore
SplineSet
853 451 m 1,0,-1
 1105 451 l 1,1,-1
 1105 397 l 1,2,-1
 853 397 l 1,3,-1
 853 0 l 1,4,-1
 799 0 l 1,5,-1
 799 397 l 1,6,-1
 93 397 l 1,7,-1
 93 427 l 1,8,-1
 788 1456 l 1,9,-1
 853 1456 l 1,10,-1
 853 451 l 1,0,-1
177 451 m 1,11,-1
 799 451 l 1,12,-1
 799 1391 l 1,13,-1
 715 1253 l 1,14,-1
 177 451 l 1,11,-1
EndSplineSet
EndChar
StartChar: five
Encoding: 53 53 23
Width: 1229
Flags: W
LayerCount: 2
Back
Fore
SplineSet
281 762 m 1,0,-1
 349 1456 l 1,1,-1
 1059 1456 l 1,2,-1
 1059 1403 l 1,3,-1
 398 1403 l 1,4,-1
 339 819 l 1,5,6
 402 868 402 868 483 892 c 128,-1,7
 564 916 564 916 644 916 c 0,8,9
 742 916 742 916 821 881 c 128,-1,10
 900 846 900 846 956.5 785 c 128,-1,11
 1013 724 1013 724 1043.5 641.5 c 128,-1,12
 1074 559 1074 559 1074 464 c 0,13,14
 1074 366 1074 366 1050 278.5 c 128,-1,15
 1026 191 1026 191 975.5 124.5 c 128,-1,16
 925 58 925 58 847.5 19 c 128,-1,17
 770 -20 770 -20 664 -20 c 0,18,19
 572 -20 572 -20 496.5 9.5 c 128,-1,20
 421 39 421 39 365.5 92 c 128,-1,21
 310 145 310 145 276 219 c 128,-1,22
 242 293 242 293 232 383 c 1,23,-1
 287 383 l 1,24,25
 296 303 296 303 325.5 239 c 128,-1,26
 355 175 355 175 403 129 c 128,-1,27
 451 83 451 83 516.5 58.5 c 128,-1,28
 582 34 582 34 664 34 c 0,29,30
 758 34 758 34 825.5 68.5 c 128,-1,31
 893 103 893 103 936 161.5 c 128,-1,32
 979 220 979 220 999 297.5 c 128,-1,33
 1019 375 1019 375 1019 462 c 0,34,35
 1019 546 1019 546 993 618.5 c 128,-1,36
 967 691 967 691 918.5 745 c 128,-1,37
 870 799 870 799 801 830.5 c 128,-1,38
 732 862 732 862 645 862 c 0,39,40
 553 863 553 863 472 835.5 c 128,-1,41
 391 808 391 808 322 746 c 1,42,-1
 281 762 l 1,0,-1
EndSplineSet
EndChar
StartChar: six
Encoding: 54 54 24
Width: 1229
Flags: W
LayerCount: 2
Back
Fore
SplineSet
870 1476 m 1,0,-1
 870 1422 l 1,1,-1
 851 1422 l 2,2,3
 698 1421 698 1421 582 1365.5 c 128,-1,4
 466 1310 466 1310 386.5 1216 c 128,-1,5
 307 1122 307 1122 263.5 997 c 128,-1,6
 220 872 220 872 213 731 c 1,7,8
 243 783 243 783 287 825 c 128,-1,9
 331 867 331 867 384.5 896.5 c 128,-1,10
 438 926 438 926 498.5 941.5 c 128,-1,11
 559 957 559 957 622 957 c 0,12,13
 723 957 723 957 801.5 918 c 128,-1,14
 880 879 880 879 933.5 813 c 128,-1,15
 987 747 987 747 1015 660.5 c 128,-1,16
 1043 574 1043 574 1043 480 c 0,17,18
 1043 390 1043 390 1016.5 300.5 c 128,-1,19
 990 211 990 211 938 140 c 128,-1,20
 886 69 886 69 809 24.5 c 128,-1,21
 732 -20 732 -20 632 -20 c 0,22,23
 523 -20 523 -20 435.5 21 c 128,-1,24
 348 62 348 62 287 132.5 c 128,-1,25
 226 203 226 203 192.5 296 c 128,-1,26
 159 389 159 389 158 492 c 2,27,-1
 158 660 l 2,28,29
 159 768 159 768 178 870.5 c 128,-1,30
 197 973 197 973 234.5 1063.5 c 128,-1,31
 272 1154 272 1154 329 1229.5 c 128,-1,32
 386 1305 386 1305 463 1359.5 c 128,-1,33
 540 1414 540 1414 636.5 1444.5 c 128,-1,34
 733 1475 733 1475 851 1476 c 2,35,-1
 870 1476 l 1,0,-1
615 903 m 0,36,37
 548 903 548 903 482.5 882.5 c 128,-1,38
 417 862 417 862 362 824 c 128,-1,39
 307 786 307 786 267 733 c 128,-1,40
 227 680 227 680 212 614 c 1,41,-1
 212 493 l 2,42,43
 213 401 213 401 242 317.5 c 128,-1,44
 271 234 271 234 325 170.5 c 128,-1,45
 379 107 379 107 456.5 69.5 c 128,-1,46
 534 32 534 32 632 33 c 0,47,48
 720 34 720 34 786.5 74.5 c 128,-1,49
 853 115 853 115 898 179 c 128,-1,50
 943 243 943 243 966 322.5 c 128,-1,51
 989 402 989 402 989 480 c 0,52,53
 989 565 989 565 964.5 641.5 c 128,-1,54
 940 718 940 718 892.5 776 c 128,-1,55
 845 834 845 834 775 868.5 c 128,-1,56
 705 903 705 903 615 903 c 0,36,37
EndSplineSet
EndChar
StartChar: seven
Encoding: 55 55 25
Width: 1229
Flags: W
LayerCount: 2
Back
Fore
SplineSet
1068 1422 m 1,0,-1
 427 0 l 1,1,-1
 372 0 l 1,2,-1
 1006 1402 l 1,3,-1
 138 1402 l 1,4,-1
 138 1456 l 1,5,-1
 1068 1456 l 1,6,-1
 1068 1422 l 1,0,-1
EndSplineSet
EndChar
StartChar: eight
Encoding: 56 56 26
Width: 1229
Flags: W
LayerCount: 2
Back
Fore
SplineSet
1062 1086 m 0,0,1
 1062 1021 1062 1021 1040 966 c 128,-1,2
 1018 911 1018 911 980.5 868 c 128,-1,3
 943 825 943 825 892.5 794 c 128,-1,4
 842 763 842 763 785 745 c 1,5,6
 849 728 849 728 907 695.5 c 128,-1,7
 965 663 965 663 1008.5 617 c 128,-1,8
 1052 571 1052 571 1078 511 c 128,-1,9
 1104 451 1104 451 1104 379 c 0,10,11
 1104 281 1104 281 1066 206.5 c 128,-1,12
 1028 132 1028 132 963.5 81.5 c 128,-1,13
 899 31 899 31 815 5.5 c 128,-1,14
 731 -20 731 -20 641 -20 c 0,15,16
 550 -20 550 -20 466 5.5 c 128,-1,17
 382 31 382 31 317.5 81 c 128,-1,18
 253 131 253 131 215 205.5 c 128,-1,19
 177 280 177 280 177 379 c 0,20,21
 177 451 177 451 202 511 c 128,-1,22
 227 571 227 571 270 617 c 128,-1,23
 313 663 313 663 370 695.5 c 128,-1,24
 427 728 427 728 491 745 c 1,25,26
 434 763 434 763 384.5 793.5 c 128,-1,27
 335 824 335 824 298 867.5 c 128,-1,28
 261 911 261 911 239.5 965.5 c 128,-1,29
 218 1020 218 1020 218 1086 c 0,30,31
 218 1176 218 1176 250.5 1248.5 c 128,-1,32
 283 1321 283 1321 340 1371.5 c 128,-1,33
 397 1422 397 1422 473.5 1449 c 128,-1,34
 550 1476 550 1476 637 1476 c 0,35,36
 723 1476 723 1476 800.5 1449 c 128,-1,37
 878 1422 878 1422 936 1371.5 c 128,-1,38
 994 1321 994 1321 1028 1248.5 c 128,-1,39
 1062 1176 1062 1176 1062 1086 c 0,0,1
1049 374 m 0,40,41
 1049 457 1049 457 1013.5 521 c 128,-1,42
 978 585 978 585 920 629 c 128,-1,43
 862 673 862 673 788.5 695.5 c 128,-1,44
 715 718 715 718 639 718 c 256,45,46
 563 718 563 718 490 695.5 c 128,-1,47
 417 673 417 673 359.5 629.5 c 128,-1,48
 302 586 302 586 266.5 521.5 c 128,-1,49
 231 457 231 457 231 374 c 0,50,51
 231 289 231 289 266 225 c 128,-1,52
 301 161 301 161 359 118.5 c 128,-1,53
 417 76 417 76 490.5 55 c 128,-1,54
 564 34 564 34 641 34 c 256,55,56
 718 34 718 34 791.5 55.5 c 128,-1,57
 865 77 865 77 922 119.5 c 128,-1,58
 979 162 979 162 1014 226 c 128,-1,59
 1049 290 1049 290 1049 374 c 0,40,41
1008 1091 m 0,60,61
 1008 1166 1008 1166 976.5 1227.5 c 128,-1,62
 945 1289 945 1289 893.5 1332 c 128,-1,63
 842 1375 842 1375 775 1398.5 c 128,-1,64
 708 1422 708 1422 637 1422 c 0,65,66
 564 1422 564 1422 498 1399 c 128,-1,67
 432 1376 432 1376 381.5 1333.5 c 128,-1,68
 331 1291 331 1291 301.5 1229.5 c 128,-1,69
 272 1168 272 1168 272 1091 c 256,70,71
 272 1014 272 1014 303 955 c 128,-1,72
 334 896 334 896 385 855 c 128,-1,73
 436 814 436 814 502 793 c 128,-1,74
 568 772 568 772 639 772 c 0,75,76
 709 772 709 772 775.5 793.5 c 128,-1,77
 842 815 842 815 893.5 856 c 128,-1,78
 945 897 945 897 976.5 956 c 128,-1,79
 1008 1015 1008 1015 1008 1091 c 0,60,61
EndSplineSet
EndChar
StartChar: nine
Encoding: 57 57 27
Width: 1229
Flags: W
LayerCount: 2
Back
Fore
SplineSet
391 34 m 2,0,1
 545 35 545 35 658.5 88 c 128,-1,2
 772 141 772 141 847.5 232.5 c 128,-1,3
 923 324 923 324 960 448.5 c 128,-1,4
 997 573 997 573 998 718 c 2,5,-1
 998 734 l 1,6,7
 971 675 971 675 929.5 626 c 128,-1,8
 888 577 888 577 834.5 541.5 c 128,-1,9
 781 506 781 506 717.5 487 c 128,-1,10
 654 468 654 468 582 468 c 0,11,12
 483 468 483 468 405 510.5 c 128,-1,13
 327 553 327 553 273 622 c 128,-1,14
 219 691 219 691 190.5 779 c 128,-1,15
 162 867 162 867 162 958 c 0,16,17
 162 1051 162 1051 190 1143.5 c 128,-1,18
 218 1236 218 1236 272.5 1309.5 c 128,-1,19
 327 1383 327 1383 407 1429 c 128,-1,20
 487 1475 487 1475 590 1476 c 0,21,22
 673 1476 673 1476 739.5 1454.5 c 128,-1,23
 806 1433 806 1433 857 1393.5 c 128,-1,24
 908 1354 908 1354 944.5 1300.5 c 128,-1,25
 981 1247 981 1247 1005 1183 c 128,-1,26
 1029 1119 1029 1119 1040 1047.5 c 128,-1,27
 1051 976 1051 976 1052 903 c 2,28,-1
 1052 740 l 2,29,30
 1051 581 1051 581 1011.5 442.5 c 128,-1,31
 972 304 972 304 891 202 c 128,-1,32
 810 100 810 100 686 40.5 c 128,-1,33
 562 -19 562 -19 391 -20 c 2,34,-1
 357 -20 l 1,35,-1
 359 34 l 1,36,-1
 391 34 l 2,0,1
582 522 m 0,37,38
 655 522 655 522 722.5 546 c 128,-1,39
 790 570 790 570 845.5 612.5 c 128,-1,40
 901 655 901 655 940.5 714 c 128,-1,41
 980 773 980 773 998 843 c 1,42,-1
 998 902 l 2,43,44
 997 999 997 999 975.5 1092.5 c 128,-1,45
 954 1186 954 1186 906 1259.5 c 128,-1,46
 858 1333 858 1333 781.5 1378 c 128,-1,47
 705 1423 705 1423 594 1422 c 0,48,49
 534 1421 534 1421 482 1402 c 128,-1,50
 430 1383 430 1383 388 1349.5 c 128,-1,51
 346 1316 346 1316 314 1271 c 128,-1,52
 282 1226 282 1226 260 1174.5 c 128,-1,53
 238 1123 238 1123 227 1067.5 c 128,-1,54
 216 1012 216 1012 216 958 c 0,55,56
 216 878 216 878 240.5 800 c 128,-1,57
 265 722 265 722 311.5 660.5 c 128,-1,58
 358 599 358 599 426.5 560.5 c 128,-1,59
 495 522 495 522 582 522 c 0,37,38
EndSplineSet
EndChar
StartChar: less
Encoding: 60 60 30
Width: 1229
Flags: W
LayerCount: 2
Back
Fore
SplineSet
236 666 m 1,0,-1
 1028 321 l 1,1,-1
 1028 262 l 1,2,-1
 162 641 l 1,3,-1
 162 691 l 1,4,-1
 1028 1069 l 1,5,-1
 1028 1011 l 1,6,-1
 236 666 l 1,0,-1
EndSplineSet
EndChar
StartChar: equal
Encoding: 61 61 31
Width: 1229
Flags: W
LayerCount: 2
Back
Fore
SplineSet
1066 843 m 1,0,-1
 175 843 l 1,1,-1
 175 897 l 1,2,-1
 1066 897 l 1,3,-1
 1066 843 l 1,0,-1
1066 436 m 1,4,-1
 175 436 l 1,5,-1
 175 490 l 1,6,-1
 1066 490 l 1,7,-1
 1066 436 l 1,4,-1
EndSplineSet
EndChar
StartChar: greater
Encoding: 62 62 32
Width: 1229
Flags: W
LayerCount: 2
Back
Fore
SplineSet
973 668 m 1,0,-1
 189 1013 l 1,1,-1
 188 1072 l 1,2,-1
 1053 694 l 1,3,-1
 1053 644 l 1,4,-1
 188 265 l 1,5,-1
 189 324 l 1,6,-1
 973 668 l 1,0,-1
EndSplineSet
EndChar
StartChar: question
Encoding: 63 63 33
Width: 1229
Flags: W
LayerCount: 2
Back
Fore
SplineSet
569 400 m 1,0,1
 572 455 572 455 583 501 c 128,-1,2
 594 547 594 547 614.5 588 c 128,-1,3
 635 629 635 629 665.5 666 c 128,-1,4
 696 703 696 703 737 740 c 0,5,6
 780 779 780 779 818 819 c 128,-1,7
 856 859 856 859 884 903 c 128,-1,8
 912 947 912 947 927.5 998.5 c 128,-1,9
 943 1050 943 1050 943 1112 c 0,10,11
 943 1181 943 1181 920.5 1238 c 128,-1,12
 898 1295 898 1295 858 1336.5 c 128,-1,13
 818 1378 818 1378 761 1400.5 c 128,-1,14
 704 1423 704 1423 635 1423 c 0,15,16
 565 1423 565 1423 505.5 1401.5 c 128,-1,17
 446 1380 446 1380 402.5 1340 c 128,-1,18
 359 1300 359 1300 333 1243 c 128,-1,19
 307 1186 307 1186 304 1116 c 1,20,-1
 249 1116 l 1,21,22
 254 1197 254 1197 284.5 1263 c 128,-1,23
 315 1329 315 1329 366 1376.5 c 128,-1,24
 417 1424 417 1424 485.5 1450 c 128,-1,25
 554 1476 554 1476 635 1476 c 0,26,27
 715 1476 715 1476 781.5 1449 c 128,-1,28
 848 1422 848 1422 896 1373 c 128,-1,29
 944 1324 944 1324 970.5 1257 c 128,-1,30
 997 1190 997 1190 997 1110 c 0,31,32
 997 1044 997 1044 979 986.5 c 128,-1,33
 961 929 961 929 929.5 878.5 c 128,-1,34
 898 828 898 828 855.5 783 c 128,-1,35
 813 738 813 738 764 698 c 0,36,37
 692 638 692 638 658.5 566 c 128,-1,38
 625 494 625 494 624 400 c 1,39,-1
 569 400 l 1,0,1
544 49 m 256,40,41
 544 72 544 72 561.5 88.5 c 128,-1,42
 579 105 579 105 601 105 c 256,43,44
 623 105 623 105 641 88.5 c 128,-1,45
 659 72 659 72 659 49 c 256,46,47
 659 26 659 26 641 10 c 128,-1,48
 623 -6 623 -6 601 -6 c 256,49,50
 579 -6 579 -6 561.5 10 c 128,-1,51
 544 26 544 26 544 49 c 256,40,41
EndSplineSet
EndChar
StartChar: at
Encoding: 64 64 34
Width: 1229
Flags: W
LayerCount: 2
Back
Fore
SplineSet
1172 762 m 0,0,1
 1171 725 1171 725 1166 675 c 128,-1,2
 1161 625 1161 625 1150.5 571 c 128,-1,3
 1140 517 1140 517 1121.5 465 c 128,-1,4
 1103 413 1103 413 1075.5 371.5 c 128,-1,5
 1048 330 1048 330 1009.5 304.5 c 128,-1,6
 971 279 971 279 919 279 c 0,7,8
 875 279 875 279 845 298 c 128,-1,9
 815 317 815 317 796 347 c 128,-1,10
 777 377 777 377 767 414 c 128,-1,11
 757 451 757 451 754 488 c 1,12,13
 736 449 736 449 713.5 411.5 c 128,-1,14
 691 374 691 374 663 344.5 c 128,-1,15
 635 315 635 315 601 297 c 128,-1,16
 567 279 567 279 528 279 c 0,17,18
 480 279 480 279 446.5 302 c 128,-1,19
 413 325 413 325 391.5 361.5 c 128,-1,20
 370 398 370 398 358.5 444 c 128,-1,21
 347 490 347 490 342.5 536.5 c 128,-1,22
 338 583 338 583 338.5 624.5 c 128,-1,23
 339 666 339 666 341 695 c 0,24,25
 348 782 348 782 371 867 c 128,-1,26
 394 952 394 952 435 1019 c 128,-1,27
 476 1086 476 1086 537.5 1127 c 128,-1,28
 599 1168 599 1168 683 1167 c 0,29,30
 714 1167 714 1167 738 1159 c 128,-1,31
 762 1151 762 1151 782.5 1138.5 c 128,-1,32
 803 1126 803 1126 821 1110 c 128,-1,33
 839 1094 839 1094 859 1077 c 1,34,-1
 857 1075 l 1,35,-1
 806 572 l 2,36,37
 805 545 805 545 806 504.5 c 128,-1,38
 807 464 807 464 817.5 426 c 128,-1,39
 828 388 828 388 852 361 c 128,-1,40
 876 334 876 334 921 334 c 0,41,42
 963 334 963 334 993.5 358 c 128,-1,43
 1024 382 1024 382 1045.5 420 c 128,-1,44
 1067 458 1067 458 1080.5 505.5 c 128,-1,45
 1094 553 1094 553 1101.5 600.5 c 128,-1,46
 1109 648 1109 648 1112.5 690.5 c 128,-1,47
 1116 733 1116 733 1117 762 c 0,48,49
 1122 905 1122 905 1101 1025 c 128,-1,50
 1080 1145 1080 1145 1029 1231 c 128,-1,51
 978 1317 978 1317 894.5 1365 c 128,-1,52
 811 1413 811 1413 691 1413 c 0,53,54
 621 1413 621 1413 552 1393 c 128,-1,55
 483 1373 483 1373 419.5 1332.5 c 128,-1,56
 356 1292 356 1292 301.5 1231 c 128,-1,57
 247 1170 247 1170 205.5 1088.5 c 128,-1,58
 164 1007 164 1007 138.5 904 c 128,-1,59
 113 801 113 801 109 677 c 0,60,61
 106 605 106 605 112.5 529.5 c 128,-1,62
 119 454 119 454 139 383.5 c 128,-1,63
 159 313 159 313 196 250.5 c 128,-1,64
 233 188 233 188 291.5 141.5 c 128,-1,65
 350 95 350 95 432.5 68 c 128,-1,66
 515 41 515 41 628 41 c 0,67,68
 661 41 661 41 697.5 47.5 c 128,-1,69
 734 54 734 54 771 65 c 128,-1,70
 808 76 808 76 841.5 90.5 c 128,-1,71
 875 105 875 105 902 121 c 1,72,-1
 924 75 l 1,73,74
 896 55 896 55 859 39 c 128,-1,75
 822 23 822 23 781.5 11 c 128,-1,76
 741 -1 741 -1 700.5 -7.5 c 128,-1,77
 660 -14 660 -14 625 -14 c 0,78,79
 502 -14 502 -14 411 14 c 128,-1,80
 320 42 320 42 256 91.5 c 128,-1,81
 192 141 192 141 151.5 208 c 128,-1,82
 111 275 111 275 89 352 c 128,-1,83
 67 429 67 429 59.5 512 c 128,-1,84
 52 595 52 595 55 677 c 0,85,86
 58 780 58 780 77 879 c 128,-1,87
 96 978 96 978 131.5 1066 c 128,-1,88
 167 1154 167 1154 219.5 1228 c 128,-1,89
 272 1302 272 1302 342 1356 c 128,-1,90
 412 1410 412 1410 500 1440 c 128,-1,91
 588 1470 588 1470 694 1470 c 0,92,93
 798 1470 798 1470 874.5 1441.5 c 128,-1,94
 951 1413 951 1413 1005 1363 c 128,-1,95
 1059 1313 1059 1313 1092.5 1245.5 c 128,-1,96
 1126 1178 1126 1178 1144.5 1099.5 c 128,-1,97
 1163 1021 1163 1021 1168.5 934.5 c 128,-1,98
 1174 848 1174 848 1172 762 c 0,0,1
394 695 m 0,99,100
 392 675 392 675 391 640 c 128,-1,101
 390 605 390 605 392.5 565 c 128,-1,102
 395 525 395 525 402 483.5 c 128,-1,103
 409 442 409 442 424.5 408.5 c 128,-1,104
 440 375 440 375 464.5 354 c 128,-1,105
 489 333 489 333 526 333 c 0,106,107
 574 333 574 333 610.5 364 c 128,-1,108
 647 395 647 395 674.5 440.5 c 128,-1,109
 702 486 702 486 722.5 538.5 c 128,-1,110
 743 591 743 591 759 633 c 1,111,-1
 805 1052 l 1,112,113
 792 1064 792 1064 779.5 1075 c 128,-1,114
 767 1086 767 1086 752.5 1094 c 128,-1,115
 738 1102 738 1102 720 1107 c 128,-1,116
 702 1112 702 1112 680 1112 c 0,117,118
 627 1113 627 1113 586.5 1093 c 128,-1,119
 546 1073 546 1073 515.5 1040.5 c 128,-1,120
 485 1008 485 1008 463.5 965 c 128,-1,121
 442 922 442 922 428 875.5 c 128,-1,122
 414 829 414 829 406 782 c 128,-1,123
 398 735 398 735 394 695 c 0,99,100
EndSplineSet
EndChar
StartChar: A
Encoding: 65 65 35
Width: 1229
Flags: W
LayerCount: 2
Back
Fore
SplineSet
939 435 m 1,0,-1
 320 435 l 1,1,-1
 178 0 l 1,2,-1
 122 0 l 1,3,-1
 599 1456 l 1,4,-1
 661 1456 l 1,5,-1
 1138 0 l 1,6,-1
 1082 0 l 1,7,-1
 939 435 l 1,0,-1
337 489 m 1,8,-1
 922 489 l 1,9,-1
 630 1382 l 1,10,-1
 337 489 l 1,8,-1
EndSplineSet
Substitution2: "'smcp' Lowercase to Small Capitals lookup 0 subtable" A.smcp
EndChar
StartChar: B
Encoding: 66 66 36
Width: 1229
Flags: W
LayerCount: 2
Back
Fore
SplineSet
217 0 m 1,0,-1
 217 1456 l 1,1,-1
 579 1456 l 2,2,3
 666 1455 666 1455 747.5 1432.5 c 128,-1,4
 829 1410 829 1410 892 1364.5 c 128,-1,5
 955 1319 955 1319 993 1249 c 128,-1,6
 1031 1179 1031 1179 1031 1083 c 0,7,8
 1031 1018 1031 1018 1013.5 967 c 128,-1,9
 996 916 996 916 963.5 876.5 c 128,-1,10
 931 837 931 837 885.5 808.5 c 128,-1,11
 840 780 840 780 785 759 c 1,12,-1
 786 754 l 1,13,14
 850 740 850 740 906 709 c 128,-1,15
 962 678 962 678 1003.5 632 c 128,-1,16
 1045 586 1045 586 1069 527.5 c 128,-1,17
 1093 469 1093 469 1093 401 c 0,18,19
 1094 309 1094 309 1060.5 236 c 128,-1,20
 1027 163 1027 163 968.5 111 c 128,-1,21
 910 59 910 59 832 30.5 c 128,-1,22
 754 2 754 2 667 0 c 2,23,-1
 217 0 l 1,0,-1
270 719 m 1,24,-1
 270 54 l 1,25,-1
 667 54 l 2,26,27
 742 55 742 55 810 79.5 c 128,-1,28
 878 104 878 104 929 148 c 128,-1,29
 980 192 980 192 1010 255.5 c 128,-1,30
 1040 319 1040 319 1039 399 c 0,31,32
 1039 474 1039 474 1008 533 c 128,-1,33
 977 592 977 592 926.5 632.5 c 128,-1,34
 876 673 876 673 811 695 c 128,-1,35
 746 717 746 717 676 719 c 2,36,-1
 270 719 l 1,24,-1
270 773 m 1,37,-1
 599 773 l 2,38,39
 672 774 672 774 740 792.5 c 128,-1,40
 808 811 808 811 860.5 849.5 c 128,-1,41
 913 888 913 888 944.5 946.5 c 128,-1,42
 976 1005 976 1005 976 1087 c 0,43,44
 976 1171 976 1171 942 1230.5 c 128,-1,45
 908 1290 908 1290 852 1327.5 c 128,-1,46
 796 1365 796 1365 724.5 1383 c 128,-1,47
 653 1401 653 1401 579 1402 c 2,48,-1
 270 1402 l 1,49,-1
 270 773 l 1,37,-1
EndSplineSet
Substitution2: "'smcp' Lowercase to Small Capitals lookup 0 subtable" B.smcp
EndChar
StartChar: C
Encoding: 67 67 37
Width: 1229
Flags: W
LayerCount: 2
Back
Fore
SplineSet
1082 446 m 1,0,1
 1071 350 1071 350 1035.5 265 c 128,-1,2
 1000 180 1000 180 941 116.5 c 128,-1,3
 882 53 882 53 800.5 16 c 128,-1,4
 719 -21 719 -21 616 -20 c 0,5,6
 532 -20 532 -20 465 8 c 128,-1,7
 398 36 398 36 345.5 83 c 128,-1,8
 293 130 293 130 255.5 193 c 128,-1,9
 218 256 218 256 193 327 c 128,-1,10
 168 398 168 398 156 472.5 c 128,-1,11
 144 547 144 547 143 619 c 2,12,-1
 143 837 l 2,13,14
 144 908 144 908 156 983.5 c 128,-1,15
 168 1059 168 1059 193 1129.5 c 128,-1,16
 218 1200 218 1200 256 1263 c 128,-1,17
 294 1326 294 1326 346 1373 c 128,-1,18
 398 1420 398 1420 465 1447.5 c 128,-1,19
 532 1475 532 1475 616 1476 c 0,20,21
 718 1477 718 1477 800 1440.5 c 128,-1,22
 882 1404 882 1404 941 1341 c 128,-1,23
 1000 1278 1000 1278 1035.5 1193 c 128,-1,24
 1071 1108 1071 1108 1082 1012 c 1,25,-1
 1029 1012 l 1,26,27
 1015 1096 1015 1096 983.5 1171 c 128,-1,28
 952 1246 952 1246 901 1302 c 128,-1,29
 850 1358 850 1358 779.5 1390.5 c 128,-1,30
 709 1423 709 1423 616 1422 c 0,31,32
 541 1421 541 1421 480.5 1395.5 c 128,-1,33
 420 1370 420 1370 374 1326.5 c 128,-1,34
 328 1283 328 1283 294.5 1225 c 128,-1,35
 261 1167 261 1167 239.5 1102.5 c 128,-1,36
 218 1038 218 1038 208 970 c 128,-1,37
 198 902 198 902 197 839 c 2,38,-1
 197 619 l 2,39,40
 198 555 198 555 208 487 c 128,-1,41
 218 419 218 419 239.5 354.5 c 128,-1,42
 261 290 261 290 294 232 c 128,-1,43
 327 174 327 174 373.5 130 c 128,-1,44
 420 86 420 86 480 60 c 128,-1,45
 540 34 540 34 616 34 c 0,46,47
 710 33 710 33 781 65.5 c 128,-1,48
 852 98 852 98 902.5 154 c 128,-1,49
 953 210 953 210 984 285.5 c 128,-1,50
 1015 361 1015 361 1029 446 c 1,51,-1
 1082 446 l 1,0,1
EndSplineSet
Substitution2: "'smcp' Lowercase to Small Capitals lookup 0 subtable" C.smcp
EndChar
StartChar: D
Encoding: 68 68 38
Width: 1229
Flags: W
LayerCount: 2
Back
Fore
SplineSet
200 0 m 1,0,-1
 200 1456 l 1,1,-1
 566 1456 l 2,2,3
 651 1454 651 1454 724.5 1428 c 128,-1,4
 798 1402 798 1402 858 1357.5 c 128,-1,5
 918 1313 918 1313 964.5 1252.5 c 128,-1,6
 1011 1192 1011 1192 1043 1122 c 128,-1,7
 1075 1052 1075 1052 1092 974 c 128,-1,8
 1109 896 1109 896 1110 817 c 2,9,-1
 1110 639 l 2,10,11
 1109 560 1109 560 1092 482 c 128,-1,12
 1075 404 1075 404 1043 334 c 128,-1,13
 1011 264 1011 264 964.5 203.5 c 128,-1,14
 918 143 918 143 858 98.5 c 128,-1,15
 798 54 798 54 724.5 28 c 128,-1,16
 651 2 651 2 566 0 c 2,17,-1
 200 0 l 1,0,-1
252 1402 m 1,18,-1
 252 54 l 1,19,-1
 566 54 l 2,20,21
 644 56 644 56 710 80 c 128,-1,22
 776 104 776 104 830 145 c 128,-1,23
 884 186 884 186 926 241.5 c 128,-1,24
 968 297 968 297 996.5 361.5 c 128,-1,25
 1025 426 1025 426 1040 496.5 c 128,-1,26
 1055 567 1055 567 1056 639 c 2,27,-1
 1056 820 l 2,28,29
 1054 927 1054 927 1021 1030 c 128,-1,30
 988 1133 988 1133 925.5 1215 c 128,-1,31
 863 1297 863 1297 772.5 1348 c 128,-1,32
 682 1399 682 1399 566 1402 c 2,33,-1
 252 1402 l 1,18,-1
EndSplineSet
Substitution2: "'smcp' Lowercase to Small Capitals lookup 0 subtable" D.smcp
EndChar
StartChar: E
Encoding: 69 69 39
Width: 1229
Flags: W
LayerCount: 2
Back
Fore
SplineSet
950 722 m 1,0,-1
 273 722 l 1,1,-1
 273 54 l 1,2,-1
 1045 54 l 1,3,-1
 1045 0 l 1,4,-1
 220 0 l 1,5,-1
 220 1456 l 1,6,-1
 1045 1456 l 1,7,-1
 1045 1402 l 1,8,-1
 273 1402 l 1,9,-1
 273 776 l 1,10,-1
 950 776 l 1,11,-1
 950 722 l 1,0,-1
EndSplineSet
Substitution2: "'smcp' Lowercase to Small Capitals lookup 0 subtable" E.smcp
EndChar
StartChar: G
Encoding: 71 71 41
Width: 1229
Flags: W
LayerCount: 2
Back
Fore
SplineSet
1079 156 m 1,0,1
 1039 107 1039 107 987.5 73.5 c 128,-1,2
 936 40 936 40 878 19 c 128,-1,3
 820 -2 820 -2 758 -11 c 128,-1,4
 696 -20 696 -20 635 -20 c 0,5,6
 550 -19 550 -19 480.5 8 c 128,-1,7
 411 35 411 35 356 81 c 128,-1,8
 301 127 301 127 260 189 c 128,-1,9
 219 251 219 251 191.5 322 c 128,-1,10
 164 393 164 393 150 469 c 128,-1,11
 136 545 136 545 135 620 c 2,12,-1
 135 858 l 2,13,14
 136 930 136 930 149.5 1003.5 c 128,-1,15
 163 1077 163 1077 189.5 1145.5 c 128,-1,16
 216 1214 216 1214 256 1274 c 128,-1,17
 296 1334 296 1334 349.5 1379 c 128,-1,18
 403 1424 403 1424 470.5 1450 c 128,-1,19
 538 1476 538 1476 620 1476 c 0,20,21
 713 1476 713 1476 791.5 1445 c 128,-1,22
 870 1414 870 1414 929.5 1358.5 c 128,-1,23
 989 1303 989 1303 1027 1227.5 c 128,-1,24
 1065 1152 1065 1152 1077 1062 c 1,25,-1
 1024 1062 l 1,26,27
 1007 1140 1007 1140 973 1206 c 128,-1,28
 939 1272 939 1272 888.5 1320 c 128,-1,29
 838 1368 838 1368 771 1395 c 128,-1,30
 704 1422 704 1422 620 1422 c 0,31,32
 546 1422 546 1422 485.5 1398 c 128,-1,33
 425 1374 425 1374 377.5 1333 c 128,-1,34
 330 1292 330 1292 295 1237 c 128,-1,35
 260 1182 260 1182 237 1119.5 c 128,-1,36
 214 1057 214 1057 202 990.5 c 128,-1,37
 190 924 190 924 189 860 c 2,38,-1
 189 620 l 2,39,40
 190 553 190 553 202 483.5 c 128,-1,41
 214 414 214 414 238 349.5 c 128,-1,42
 262 285 262 285 298 227.5 c 128,-1,43
 334 170 334 170 383.5 127.5 c 128,-1,44
 433 85 433 85 495.5 60 c 128,-1,45
 558 35 558 35 635 34 c 0,46,47
 687 33 687 33 742 40 c 128,-1,48
 797 47 797 47 849 64 c 128,-1,49
 901 81 901 81 946.5 109.5 c 128,-1,50
 992 138 992 138 1026 181 c 1,51,-1
 1026 605 l 1,52,-1
 632 605 l 1,53,-1
 632 660 l 1,54,-1
 1078 660 l 1,55,-1
 1079 156 l 1,0,1
EndSplineSet
Substitution2: "'smcp' Lowercase to Small Capitals lookup 0 subtable" G.smcp
EndChar
StartChar: I
Encoding: 73 73 43
Width: 1229
Flags: W
LayerCount: 2
Back
Fore
SplineSet
212 1456 m 1,0,-1
 1018 1456 l 1,1,-1
 1018 1400 l 1,2,-1
 637 1400 l 1,3,-1
 637 54 l 1,4,-1
 1018 54 l 1,5,-1
 1018 0 l 1,6,-1
 212 0 l 1,7,-1
 212 54 l 1,8,-1
 579 54 l 1,9,-1
 579 1400 l 1,10,-1
 212 1400 l 1,11,-1
 212 1456 l 1,0,-1
EndSplineSet
Substitution2: "'smcp' Lowercase to Small Capitals lookup 0 subtable" I.smcp
EndChar
StartChar: J
Encoding: 74 74 44
Width: 1229
Flags: W
LayerCount: 2
Back
Fore
SplineSet
947 1456 m 1,0,-1
 1002 1456 l 1,1,-1
 1002 442 l 2,2,3
 1000 347 1000 347 968 263.5 c 128,-1,4
 936 180 936 180 879 117 c 128,-1,5
 822 54 822 54 742 17 c 128,-1,6
 662 -20 662 -20 564 -20 c 0,7,8
 467 -20 467 -20 388.5 10 c 128,-1,9
 310 40 310 40 253 95.5 c 128,-1,10
 196 151 196 151 163.5 228.5 c 128,-1,11
 131 306 131 306 125 401 c 1,12,-1
 180 401 l 1,13,14
 184 317 184 317 212.5 249 c 128,-1,15
 241 181 241 181 290.5 133 c 128,-1,16
 340 85 340 85 409.5 59 c 128,-1,17
 479 33 479 33 564 34 c 0,18,19
 650 35 650 35 720 67.5 c 128,-1,20
 790 100 790 100 840 155.5 c 128,-1,21
 890 211 890 211 918 285 c 128,-1,22
 946 359 946 359 948 442 c 2,23,-1
 947 1456 l 1,0,-1
EndSplineSet
Substitution2: "'smcp' Lowercase to Small Capitals lookup 0 subtable" J.smcp
EndChar
StartChar: K
Encoding: 75 75 45
Width: 1229
Flags: W
LayerCount: 2
Back
Fore
SplineSet
494 764 m 1,0,-1
 281 553 l 1,1,-1
 281 0 l 1,2,-1
 229 0 l 1,3,-1
 229 1456 l 1,4,-1
 281 1456 l 1,5,-1
 281 617 l 1,6,-1
 498 847 l 1,7,-1
 1055 1456 l 1,8,-1
 1129 1456 l 1,9,-1
 532 802 l 1,10,-1
 1175 0 l 1,11,-1
 1108 0 l 1,12,-1
 494 764 l 1,0,-1
EndSplineSet
Substitution2: "'smcp' Lowercase to Small Capitals lookup 0 subtable" K.smcp
EndChar
StartChar: L
Encoding: 76 76 46
Width: 1229
Flags: W
LayerCount: 2
Back
Fore
SplineSet
297 54 m 1,0,-1
 1067 54 l 1,1,-1
 1067 0 l 1,2,-1
 242 0 l 1,3,-1
 242 1456 l 1,4,-1
 297 1456 l 1,5,-1
 297 54 l 1,0,-1
EndSplineSet
Substitution2: "'smcp' Lowercase to Small Capitals lookup 0 subtable" L.smcp
EndChar
StartChar: M
Encoding: 77 77 47
Width: 1229
Flags: W
LayerCount: 2
Back
Fore
SplineSet
265 1456 m 1,0,-1
 614 541 l 1,1,-1
 983 1456 l 1,2,-1
 1067 1456 l 1,3,-1
 1067 0 l 1,4,-1
 1013 0 l 1,5,-1
 1013 708 l 1,6,-1
 1015 1383 l 1,7,-1
 638 470 l 1,8,-1
 588 470 l 1,9,-1
 239 1373 l 1,10,-1
 240 708 l 1,11,-1
 240 0 l 1,12,-1
 186 0 l 1,13,-1
 186 1456 l 1,14,-1
 265 1456 l 1,0,-1
EndSplineSet
Substitution2: "'smcp' Lowercase to Small Capitals lookup 0 subtable" M.smcp
EndChar
StartChar: O
Encoding: 79 79 49
Width: 1229
Flags: W
LayerCount: 2
Back
Fore
SplineSet
1086 619 m 2,0,1
 1085 548 1085 548 1073 473 c 128,-1,2
 1061 398 1061 398 1037 327 c 128,-1,3
 1013 256 1013 256 975.5 193 c 128,-1,4
 938 130 938 130 886 82.5 c 128,-1,5
 834 35 834 35 766.5 7.5 c 128,-1,6
 699 -20 699 -20 616 -20 c 256,7,8
 533 -20 533 -20 465.5 7.5 c 128,-1,9
 398 35 398 35 345.5 82.5 c 128,-1,10
 293 130 293 130 255 193 c 128,-1,11
 217 256 217 256 192.5 327 c 128,-1,12
 168 398 168 398 155.5 473 c 128,-1,13
 143 548 143 548 142 619 c 2,14,-1
 142 837 l 2,15,16
 143 908 143 908 155 983 c 128,-1,17
 167 1058 167 1058 191.5 1129 c 128,-1,18
 216 1200 216 1200 253.5 1263 c 128,-1,19
 291 1326 291 1326 343.5 1373.5 c 128,-1,20
 396 1421 396 1421 463 1448.5 c 128,-1,21
 530 1476 530 1476 614 1476 c 256,22,23
 698 1476 698 1476 765 1448.5 c 128,-1,24
 832 1421 832 1421 884.5 1373.5 c 128,-1,25
 937 1326 937 1326 974.5 1263 c 128,-1,26
 1012 1200 1012 1200 1036.5 1129 c 128,-1,27
 1061 1058 1061 1058 1073 983 c 128,-1,28
 1085 908 1085 908 1086 837 c 2,29,-1
 1086 619 l 2,0,1
1033 839 m 2,30,31
 1032 903 1032 903 1022 971 c 128,-1,32
 1012 1039 1012 1039 991 1103.5 c 128,-1,33
 970 1168 970 1168 937 1226 c 128,-1,34
 904 1284 904 1284 857.5 1327.5 c 128,-1,35
 811 1371 811 1371 750.5 1396.5 c 128,-1,36
 690 1422 690 1422 614 1422 c 256,37,38
 538 1422 538 1422 478 1396.5 c 128,-1,39
 418 1371 418 1371 371.5 1327.5 c 128,-1,40
 325 1284 325 1284 292.5 1226 c 128,-1,41
 260 1168 260 1168 239 1103 c 128,-1,42
 218 1038 218 1038 208 970 c 128,-1,43
 198 902 198 902 197 839 c 2,44,-1
 197 619 l 2,45,46
 198 555 198 555 208 487 c 128,-1,47
 218 419 218 419 239 354 c 128,-1,48
 260 289 260 289 293 231 c 128,-1,49
 326 173 326 173 372.5 129 c 128,-1,50
 419 85 419 85 479.5 59.5 c 128,-1,51
 540 34 540 34 616 34 c 256,52,53
 692 34 692 34 752.5 59.5 c 128,-1,54
 813 85 813 85 859 129 c 128,-1,55
 905 173 905 173 938 231 c 128,-1,56
 971 289 971 289 992 354 c 128,-1,57
 1013 419 1013 419 1022.5 487 c 128,-1,58
 1032 555 1032 555 1033 619 c 2,59,-1
 1033 839 l 2,30,31
EndSplineSet
Substitution2: "'smcp' Lowercase to Small Capitals lookup 0 subtable" O.smcp
EndChar
StartChar: P
Encoding: 80 80 50
Width: 1229
Flags: W
LayerCount: 2
Back
Fore
SplineSet
296 615 m 1,0,-1
 296 0 l 1,1,-1
 242 0 l 1,2,-1
 242 1456 l 1,3,-1
 686 1456 l 2,4,5
 779 1454 779 1454 859 1423.5 c 128,-1,6
 939 1393 939 1393 998 1337.5 c 128,-1,7
 1057 1282 1057 1282 1090.5 1204.5 c 128,-1,8
 1124 1127 1124 1127 1124 1031 c 256,9,10
 1124 935 1124 935 1090 859 c 128,-1,11
 1056 783 1056 783 997 729 c 128,-1,12
 938 675 938 675 858 645.5 c 128,-1,13
 778 616 778 616 686 615 c 2,14,-1
 296 615 l 1,0,-1
296 669 m 1,15,-1
 686 669 l 2,16,17
 765 670 765 670 835 695.5 c 128,-1,18
 905 721 905 721 957 767.5 c 128,-1,19
 1009 814 1009 814 1039.5 880 c 128,-1,20
 1070 946 1070 946 1070 1029 c 0,21,22
 1070 1113 1070 1113 1040.5 1181 c 128,-1,23
 1011 1249 1011 1249 959.5 1297.5 c 128,-1,24
 908 1346 908 1346 837.5 1373 c 128,-1,25
 767 1400 767 1400 686 1402 c 2,26,-1
 296 1402 l 1,27,-1
 296 669 l 1,15,-1
EndSplineSet
Substitution2: "'smcp' Lowercase to Small Capitals lookup 0 subtable" P.smcp
EndChar
StartChar: Q
Encoding: 81 81 51
Width: 1229
Flags: W
LayerCount: 2
Back
Fore
SplineSet
1121 619 m 2,0,1
 1120 535 1120 535 1102.5 448.5 c 128,-1,2
 1085 362 1085 362 1049.5 283.5 c 128,-1,3
 1014 205 1014 205 961.5 140.5 c 128,-1,4
 909 76 909 76 837 35 c 1,5,-1
 1084 -228 l 1,6,-1
 1046 -263 l 1,7,-1
 785 10 l 1,8,9
 748 -4 748 -4 707 -12 c 128,-1,10
 666 -20 666 -20 621 -20 c 0,11,12
 536 -20 536 -20 465.5 6.5 c 128,-1,13
 395 33 395 33 339.5 79.5 c 128,-1,14
 284 126 284 126 243 188 c 128,-1,15
 202 250 202 250 174.5 321 c 128,-1,16
 147 392 147 392 133.5 468 c 128,-1,17
 120 544 120 544 119 619 c 2,18,-1
 119 837 l 2,19,20
 120 911 120 911 133.5 987.5 c 128,-1,21
 147 1064 147 1064 174 1135 c 128,-1,22
 201 1206 201 1206 242 1268 c 128,-1,23
 283 1330 283 1330 338.5 1376.5 c 128,-1,24
 394 1423 394 1423 464 1449.5 c 128,-1,25
 534 1476 534 1476 619 1476 c 256,26,27
 704 1476 704 1476 774 1449.5 c 128,-1,28
 844 1423 844 1423 899.5 1376.5 c 128,-1,29
 955 1330 955 1330 996 1268 c 128,-1,30
 1037 1206 1037 1206 1064.5 1135 c 128,-1,31
 1092 1064 1092 1064 1106 987.5 c 128,-1,32
 1120 911 1120 911 1121 837 c 2,33,-1
 1121 619 l 2,0,1
1067 839 m 2,34,35
 1066 906 1066 906 1054 975.5 c 128,-1,36
 1042 1045 1042 1045 1018.5 1109.5 c 128,-1,37
 995 1174 995 1174 958.5 1231 c 128,-1,38
 922 1288 922 1288 872.5 1330.5 c 128,-1,39
 823 1373 823 1373 760 1397.5 c 128,-1,40
 697 1422 697 1422 619 1422 c 256,41,42
 541 1422 541 1422 478.5 1397.5 c 128,-1,43
 416 1373 416 1373 366.5 1330.5 c 128,-1,44
 317 1288 317 1288 281 1231 c 128,-1,45
 245 1174 245 1174 221.5 1109 c 128,-1,46
 198 1044 198 1044 186 975 c 128,-1,47
 174 906 174 906 173 839 c 2,48,-1
 173 619 l 2,49,50
 174 552 174 552 186 482.5 c 128,-1,51
 198 413 198 413 221.5 348 c 128,-1,52
 245 283 245 283 281.5 225.5 c 128,-1,53
 318 168 318 168 367.5 125.5 c 128,-1,54
 417 83 417 83 480 58.5 c 128,-1,55
 543 34 543 34 621 34 c 256,56,57
 699 34 699 34 762 58.5 c 128,-1,58
 825 83 825 83 874.5 125.5 c 128,-1,59
 924 168 924 168 960 225.5 c 128,-1,60
 996 283 996 283 1019.5 348 c 128,-1,61
 1043 413 1043 413 1054.5 482.5 c 128,-1,62
 1066 552 1066 552 1067 619 c 2,63,-1
 1067 839 l 2,34,35
EndSplineSet
Substitution2: "'smcp' Lowercase to Small Capitals lookup 0 subtable" Q.smcp
EndChar
StartChar: R
Encoding: 82 82 52
Width: 1229
Flags: W
LayerCount: 2
Back
Fore
SplineSet
707 623 m 1,0,-1
 279 623 l 1,1,-1
 279 0 l 1,2,-1
 227 0 l 1,3,-1
 227 1456 l 1,4,-1
 622 1456 l 2,5,6
 712 1454 712 1454 792 1423.5 c 128,-1,7
 872 1393 872 1393 931.5 1338 c 128,-1,8
 991 1283 991 1283 1025.5 1206.5 c 128,-1,9
 1060 1130 1060 1130 1060 1036 c 0,10,11
 1060 960 1060 960 1037.5 898.5 c 128,-1,12
 1015 837 1015 837 975 788 c 128,-1,13
 935 739 935 739 879.5 702 c 128,-1,14
 824 665 824 665 758 639 c 1,15,-1
 1115 14 l 1,16,-1
 1115 0 l 1,17,-1
 1060 0 l 1,18,-1
 707 623 l 1,0,-1
279 677 m 1,19,-1
 666 677 l 2,20,21
 740 679 740 679 802.5 708 c 128,-1,22
 865 737 865 737 910 785.5 c 128,-1,23
 955 834 955 834 980.5 898.5 c 128,-1,24
 1006 963 1006 963 1006 1036 c 0,25,26
 1006 1119 1006 1119 975.5 1186 c 128,-1,27
 945 1253 945 1253 893 1300.5 c 128,-1,28
 841 1348 841 1348 770.5 1374 c 128,-1,29
 700 1400 700 1400 621 1402 c 2,30,-1
 279 1402 l 1,31,-1
 279 677 l 1,19,-1
EndSplineSet
Substitution2: "'smcp' Lowercase to Small Capitals lookup 0 subtable" R.smcp
EndChar
StartChar: S
Encoding: 83 83 53
Width: 1229
Flags: W
LayerCount: 2
Back
Fore
SplineSet
1044 349 m 0,0,1
 1045 435 1045 435 1007 495.5 c 128,-1,2
 969 556 969 556 910 598 c 128,-1,3
 851 640 851 640 778.5 668.5 c 128,-1,4
 706 697 706 697 637 718 c 0,5,6
 587 733 587 733 535 752 c 128,-1,7
 483 771 483 771 434 795 c 128,-1,8
 385 819 385 819 342 849.5 c 128,-1,9
 299 880 299 880 267 919.5 c 128,-1,10
 235 959 235 959 216.5 1008.5 c 128,-1,11
 198 1058 198 1058 199 1120 c 0,12,13
 199 1208 199 1208 238.5 1275 c 128,-1,14
 278 1342 278 1342 341 1386.5 c 128,-1,15
 404 1431 404 1431 482.5 1453.5 c 128,-1,16
 561 1476 561 1476 641 1476 c 0,17,18
 732 1476 732 1476 811.5 1446.5 c 128,-1,19
 891 1417 891 1417 950 1364 c 128,-1,20
 1009 1311 1009 1311 1044.5 1235 c 128,-1,21
 1080 1159 1080 1159 1084 1066 c 1,22,-1
 1031 1066 l 1,23,24
 1023 1145 1023 1145 991.5 1210.5 c 128,-1,25
 960 1276 960 1276 909 1323 c 128,-1,26
 858 1370 858 1370 790 1396 c 128,-1,27
 722 1422 722 1422 641 1422 c 0,28,29
 573 1422 573 1422 504 1404 c 128,-1,30
 435 1386 435 1386 379 1349 c 128,-1,31
 323 1312 323 1312 288 1255.5 c 128,-1,32
 253 1199 253 1199 252 1122 c 0,33,34
 251 1067 251 1067 268.5 1023 c 128,-1,35
 286 979 286 979 316 944.5 c 128,-1,36
 346 910 346 910 385.5 883 c 128,-1,37
 425 856 425 856 470 835.5 c 128,-1,38
 515 815 515 815 561.5 799 c 128,-1,39
 608 783 608 783 652 770 c 0,40,41
 730 747 730 747 809.5 714 c 128,-1,42
 889 681 889 681 953.5 632.5 c 128,-1,43
 1018 584 1018 584 1058.5 515 c 128,-1,44
 1099 446 1099 446 1099 351 c 0,45,46
 1099 257 1099 257 1060 187.5 c 128,-1,47
 1021 118 1021 118 957.5 72 c 128,-1,48
 894 26 894 26 813 3 c 128,-1,49
 732 -20 732 -20 647 -20 c 0,50,51
 552 -20 552 -20 465 6.5 c 128,-1,52
 378 33 378 33 311 85 c 128,-1,53
 244 137 244 137 202 213.5 c 128,-1,54
 160 290 160 290 156 391 c 1,55,-1
 209 391 l 1,56,57
 218 302 218 302 255.5 235.5 c 128,-1,58
 293 169 293 169 351.5 124 c 128,-1,59
 410 79 410 79 485.5 56.5 c 128,-1,60
 561 34 561 34 647 34 c 0,61,62
 720 34 720 34 791.5 52.5 c 128,-1,63
 863 71 863 71 919 109 c 128,-1,64
 975 147 975 147 1009.5 206.5 c 128,-1,65
 1044 266 1044 266 1044 349 c 0,0,1
EndSplineSet
Substitution2: "'smcp' Lowercase to Small Capitals lookup 0 subtable" S.smcp
EndChar
StartChar: T
Encoding: 84 84 54
Width: 1229
Flags: W
LayerCount: 2
Back
Fore
SplineSet
1123 1402 m 1,0,-1
 644 1402 l 1,1,-1
 644 0 l 1,2,-1
 590 0 l 1,3,-1
 592 1402 l 1,4,-1
 112 1402 l 1,5,-1
 112 1456 l 1,6,-1
 1123 1456 l 1,7,-1
 1123 1402 l 1,0,-1
EndSplineSet
Substitution2: "'smcp' Lowercase to Small Capitals lookup 0 subtable" T.smcp
EndChar
StartChar: U
Encoding: 85 85 55
Width: 1229
Flags: W
LayerCount: 2
Back
Fore
SplineSet
1054 1456 m 1,0,-1
 1055 469 l 2,1,2
 1053 372 1053 372 1023.5 283.5 c 128,-1,3
 994 195 994 195 937.5 127.5 c 128,-1,4
 881 60 881 60 800 20 c 128,-1,5
 719 -20 719 -20 616 -20 c 0,6,7
 512 -20 512 -20 431 20 c 128,-1,8
 350 60 350 60 294 127.5 c 128,-1,9
 238 195 238 195 207.5 283.5 c 128,-1,10
 177 372 177 372 176 469 c 2,11,-1
 177 1456 l 1,12,-1
 228 1456 l 1,13,-1
 229 469 l 2,14,15
 230 384 230 384 256.5 305.5 c 128,-1,16
 283 227 283 227 332.5 166.5 c 128,-1,17
 382 106 382 106 453.5 70 c 128,-1,18
 525 34 525 34 616 34 c 256,19,20
 707 34 707 34 778 70.5 c 128,-1,21
 849 107 849 107 898 167.5 c 128,-1,22
 947 228 947 228 973 306.5 c 128,-1,23
 999 385 999 385 1001 469 c 2,24,-1
 1002 1456 l 1,25,-1
 1054 1456 l 1,0,-1
EndSplineSet
Substitution2: "'smcp' Lowercase to Small Capitals lookup 0 subtable" U.smcp
EndChar
StartChar: V
Encoding: 86 86 56
Width: 1229
Flags: W
LayerCount: 2
Back
Fore
SplineSet
588 142 m 1,0,-1
 610 64 l 1,1,-1
 632 142 l 1,2,-1
 1058 1456 l 1,3,-1
 1115 1456 l 1,4,-1
 641 0 l 1,5,-1
 579 0 l 1,6,-1
 106 1456 l 1,7,-1
 162 1456 l 1,8,-1
 588 142 l 1,0,-1
EndSplineSet
Substitution2: "'smcp' Lowercase to Small Capitals lookup 0 subtable" V.smcp
EndChar
StartChar: W
Encoding: 87 87 57
Width: 1229
Flags: W
LayerCount: 2
Back
Fore
SplineSet
329 330 m 1,0,-1
 357 146 l 1,1,-1
 387 330 l 1,2,-1
 612 1453 l 1,3,-1
 612 1456 l 1,4,-1
 662 1456 l 1,5,-1
 661 1453 l 1,6,-1
 885 330 l 1,7,-1
 914 144 l 1,8,-1
 944 330 l 1,9,-1
 1125 1456 l 1,10,-1
 1174 1456 l 1,11,-1
 941 0 l 1,12,-1
 891 0 l 1,13,-1
 891 3 l 1,14,-1
 656 1214 l 1,15,-1
 636 1320 l 1,16,-1
 617 1214 l 1,17,-1
 379 3 l 1,18,-1
 380 0 l 1,19,-1
 330 0 l 1,20,-1
 97 1456 l 1,21,-1
 147 1456 l 1,22,-1
 329 330 l 1,0,-1
EndSplineSet
Substitution2: "'smcp' Lowercase to Small Capitals lookup 0 subtable" W.smcp
EndChar
StartChar: X
Encoding: 88 88 58
Width: 1229
Flags: W
LayerCount: 2
Back
Fore
SplineSet
633 785 m 1,0,-1
 1057 1456 l 1,1,-1
 1122 1456 l 1,2,-1
 667 743 l 1,3,-1
 1139 0 l 1,4,-1
 1076 0 l 1,5,-1
 633 701 l 1,6,-1
 190 0 l 1,7,-1
 128 0 l 1,8,-1
 600 743 l 1,9,-1
 145 1456 l 1,10,-1
 210 1456 l 1,11,-1
 633 785 l 1,0,-1
EndSplineSet
Substitution2: "'smcp' Lowercase to Small Capitals lookup 0 subtable" X.smcp
EndChar
StartChar: Y
Encoding: 89 89 59
Width: 1229
Flags: W
LayerCount: 2
Back
Fore
SplineSet
597 602 m 1,0,-1
 1043 1456 l 1,1,-1
 1106 1456 l 1,2,-1
 624 553 l 1,3,-1
 624 0 l 1,4,-1
 572 0 l 1,5,-1
 571 553 l 1,6,-1
 90 1456 l 1,7,-1
 157 1456 l 1,8,-1
 597 602 l 1,0,-1
EndSplineSet
Substitution2: "'smcp' Lowercase to Small Capitals lookup 0 subtable" Y.smcp
EndChar
StartChar: bracketleft
Encoding: 91 91 61
Width: 1229
Flags: W
LayerCount: 2
Back
Fore
SplineSet
774 1610 m 1,0,-1
 533 1610 l 1,1,-1
 533 -258 l 1,2,-1
 774 -258 l 1,3,-1
 774 -312 l 1,4,-1
 478 -312 l 1,5,-1
 478 1664 l 1,6,-1
 774 1664 l 1,7,-1
 774 1610 l 1,0,-1
EndSplineSet
EndChar
StartChar: asciicircum
Encoding: 94 94 64
Width: 1229
Flags: W
LayerCount: 2
Back
Fore
SplineSet
615 1382 m 1,0,-1
 319 659 l 1,1,-1
 260 659 l 1,2,-1
 589 1456 l 1,3,-1
 641 1456 l 1,4,-1
 970 659 l 1,5,-1
 909 659 l 1,6,-1
 615 1382 l 1,0,-1
EndSplineSet
EndChar
StartChar: grave
Encoding: 96 96 66
Width: 1229
Flags: W
LayerCount: 2
Back
Fore
SplineSet
737 1250 m 1,0,-1
 679 1250 l 1,1,-1
 492 1516 l 1,2,-1
 557 1516 l 1,3,-1
 737 1250 l 1,0,-1
EndSplineSet
EndChar
StartChar: a
Encoding: 97 97 67
Width: 1229
Flags: W
LayerCount: 2
Back
Fore
SplineSet
989 0 m 1,0,1
 977 51 977 51 973 101 c 128,-1,2
 969 151 969 151 968 202 c 1,3,4
 933 147 933 147 884.5 105 c 128,-1,5
 836 63 836 63 779 35.5 c 128,-1,6
 722 8 722 8 658 -6 c 128,-1,7
 594 -20 594 -20 527 -20 c 0,8,9
 462 -20 462 -20 400 -0.5 c 128,-1,10
 338 19 338 19 290 56 c 128,-1,11
 242 93 242 93 213 148 c 128,-1,12
 184 203 184 203 184 274 c 0,13,14
 184 371 184 371 231 434.5 c 128,-1,15
 278 498 278 498 352.5 535.5 c 128,-1,16
 427 573 427 573 519 588 c 128,-1,17
 611 603 611 603 701 604 c 2,18,-1
 968 604 l 1,19,-1
 968 762 l 2,20,21
 966 835 966 835 938 889 c 128,-1,22
 910 943 910 943 863.5 978 c 128,-1,23
 817 1013 817 1013 755.5 1030.5 c 128,-1,24
 694 1048 694 1048 626 1048 c 0,25,26
 566 1048 566 1048 503.5 1032 c 128,-1,27
 441 1016 441 1016 390 983.5 c 128,-1,28
 339 951 339 951 305 901.5 c 128,-1,29
 271 852 271 852 268 784 c 1,30,-1
 214 786 l 1,31,32
 218 865 218 865 256.5 924 c 128,-1,33
 295 983 295 983 353.5 1022.5 c 128,-1,34
 412 1062 412 1062 483.5 1082 c 128,-1,35
 555 1102 555 1102 626 1102 c 0,36,37
 706 1102 706 1102 777.5 1080.5 c 128,-1,38
 849 1059 849 1059 903 1016.5 c 128,-1,39
 957 974 957 974 988.5 909.5 c 128,-1,40
 1020 845 1020 845 1022 760 c 2,41,-1
 1022 218 l 2,42,43
 1023 163 1023 163 1032 113 c 128,-1,44
 1041 63 1041 63 1051 9 c 2,45,-1
 1052 0 l 1,46,-1
 989 0 l 1,0,1
527 33 m 0,47,48
 598 32 598 32 664.5 48.5 c 128,-1,49
 731 65 731 65 788.5 98 c 128,-1,50
 846 131 846 131 892 180 c 128,-1,51
 938 229 938 229 968 293 c 1,52,-1
 968 549 l 1,53,-1
 704 549 l 2,54,55
 653 548 653 548 598.5 543 c 128,-1,56
 544 538 544 538 492 526 c 128,-1,57
 440 514 440 514 393.5 494 c 128,-1,58
 347 474 347 474 312.5 443 c 128,-1,59
 278 412 278 412 257.5 369.5 c 128,-1,60
 237 327 237 327 238 270 c 0,61,62
 238 213 238 213 264 168.5 c 128,-1,63
 290 124 290 124 331.5 94 c 128,-1,64
 373 64 373 64 424.5 48.5 c 128,-1,65
 476 33 476 33 527 33 c 0,47,48
EndSplineSet
Substitution2: "'smcp' Lowercase to Small Capitals lookup 0 subtable" A.smcp
EndChar
StartChar: b
Encoding: 98 98 68
Width: 1229
Flags: W
LayerCount: 2
Back
Fore
SplineSet
1053 531 m 2,0,1
 1052 468 1052 468 1042 402.5 c 128,-1,2
 1032 337 1032 337 1011 276 c 128,-1,3
 990 215 990 215 956.5 161 c 128,-1,4
 923 107 923 107 875.5 67 c 128,-1,5
 828 27 828 27 766.5 3.5 c 128,-1,6
 705 -20 705 -20 627 -20 c 0,7,8
 578 -20 578 -20 528 -8 c 128,-1,9
 478 4 478 4 431.5 27 c 128,-1,10
 385 50 385 50 345.5 83.5 c 128,-1,11
 306 117 306 117 278 160 c 1,12,-1
 278 0 l 1,13,-1
 224 0 l 1,14,-1
 224 1536 l 1,15,-1
 278 1536 l 1,16,-1
 278 898 l 1,17,18
 305 944 305 944 343 982 c 128,-1,19
 381 1020 381 1020 426 1046.5 c 128,-1,20
 471 1073 471 1073 521.5 1087.5 c 128,-1,21
 572 1102 572 1102 625 1102 c 0,22,23
 704 1102 704 1102 766.5 1079 c 128,-1,24
 829 1056 829 1056 876 1016.5 c 128,-1,25
 923 977 923 977 956.5 923 c 128,-1,26
 990 869 990 869 1011.5 808 c 128,-1,27
 1033 747 1033 747 1042.5 681.5 c 128,-1,28
 1052 616 1052 616 1053 552 c 2,29,-1
 1053 531 l 2,0,1
997 552 m 2,30,31
 996 607 996 607 988 665.5 c 128,-1,32
 980 724 980 724 962.5 779 c 128,-1,33
 945 834 945 834 917 883 c 128,-1,34
 889 932 889 932 847.5 968.5 c 128,-1,35
 806 1005 806 1005 751.5 1026.5 c 128,-1,36
 697 1048 697 1048 626 1048 c 0,37,38
 566 1048 566 1048 511 1029 c 128,-1,39
 456 1010 456 1010 410.5 975 c 128,-1,40
 365 940 365 940 330.5 891.5 c 128,-1,41
 296 843 296 843 278 785 c 1,42,-1
 278 261 l 1,43,44
 297 206 297 206 334.5 163.5 c 128,-1,45
 372 121 372 121 419 92 c 128,-1,46
 466 63 466 63 520 48.5 c 128,-1,47
 574 34 574 34 628 34 c 0,48,49
 698 34 698 34 753 55.5 c 128,-1,50
 808 77 808 77 848.5 114 c 128,-1,51
 889 151 889 151 917.5 200 c 128,-1,52
 946 249 946 249 963.5 304 c 128,-1,53
 981 359 981 359 988.5 417 c 128,-1,54
 996 475 996 475 997 531 c 2,55,-1
 997 552 l 2,30,31
EndSplineSet
Substitution2: "'smcp' Lowercase to Small Capitals lookup 0 subtable" B.smcp
EndChar
StartChar: d
Encoding: 100 100 70
Width: 1229
Flags: W
LayerCount: 2
Back
Fore
SplineSet
176 552 m 2,0,1
 176 616 176 616 186 681.5 c 128,-1,2
 196 747 196 747 217.5 808 c 128,-1,3
 239 869 239 869 272.5 923 c 128,-1,4
 306 977 306 977 353 1016.5 c 128,-1,5
 400 1056 400 1056 462.5 1079 c 128,-1,6
 525 1102 525 1102 604 1102 c 0,7,8
 657 1102 657 1102 707.5 1087.5 c 128,-1,9
 758 1073 758 1073 803 1046 c 128,-1,10
 848 1019 848 1019 886 981 c 128,-1,11
 924 943 924 943 951 896 c 1,12,-1
 951 1536 l 1,13,-1
 1005 1536 l 1,14,-1
 1005 0 l 1,15,-1
 951 0 l 1,16,-1
 951 162 l 1,17,18
 923 118 923 118 883.5 84.5 c 128,-1,19
 844 51 844 51 797.5 27.5 c 128,-1,20
 751 4 751 4 701 -8 c 128,-1,21
 651 -20 651 -20 602 -20 c 0,22,23
 524 -20 524 -20 462 3.5 c 128,-1,24
 400 27 400 27 353 67 c 128,-1,25
 306 107 306 107 272.5 161 c 128,-1,26
 239 215 239 215 218 276 c 128,-1,27
 197 337 197 337 186.5 402.5 c 128,-1,28
 176 468 176 468 176 531 c 2,29,-1
 176 552 l 2,0,1
232 531 m 2,30,31
 232 476 232 476 240 417.5 c 128,-1,32
 248 359 248 359 265.5 304 c 128,-1,33
 283 249 283 249 311.5 200 c 128,-1,34
 340 151 340 151 380.5 114 c 128,-1,35
 421 77 421 77 475.5 55.5 c 128,-1,36
 530 34 530 34 601 34 c 0,37,38
 654 34 654 34 707.5 48.5 c 128,-1,39
 761 63 761 63 808 91 c 128,-1,40
 855 119 855 119 892.5 160.5 c 128,-1,41
 930 202 930 202 951 255 c 1,42,-1
 951 790 l 1,43,44
 932 848 932 848 897 895.5 c 128,-1,45
 862 943 862 943 816.5 977 c 128,-1,46
 771 1011 771 1011 716.5 1029.5 c 128,-1,47
 662 1048 662 1048 603 1048 c 0,48,49
 532 1048 532 1048 477.5 1026.5 c 128,-1,50
 423 1005 423 1005 381.5 968.5 c 128,-1,51
 340 932 340 932 312 883 c 128,-1,52
 284 834 284 834 266.5 779 c 128,-1,53
 249 724 249 724 240.5 665.5 c 128,-1,54
 232 607 232 607 232 552 c 2,55,-1
 232 531 l 2,30,31
EndSplineSet
Substitution2: "'smcp' Lowercase to Small Capitals lookup 0 subtable" D.smcp
EndChar
StartChar: e
Encoding: 101 101 71
Width: 1229
Flags: W
LayerCount: 2
Back
Fore
SplineSet
658 -20 m 0,0,1
 547 -20 547 -20 456.5 24.5 c 128,-1,2
 366 69 366 69 301.5 144 c 128,-1,3
 237 219 237 219 201 316 c 128,-1,4
 165 413 165 413 164 518 c 2,5,-1
 164 562 l 2,6,7
 165 663 165 663 198 760 c 128,-1,8
 231 857 231 857 292 933 c 128,-1,9
 353 1009 353 1009 440 1055.5 c 128,-1,10
 527 1102 527 1102 637 1102 c 0,11,12
 735 1102 735 1102 814 1065 c 128,-1,13
 893 1028 893 1028 948.5 964.5 c 128,-1,14
 1004 901 1004 901 1034 817 c 128,-1,15
 1064 733 1064 733 1065 640 c 2,16,-1
 1065 577 l 1,17,-1
 218 577 l 1,18,-1
 218 562 l 1,19,-1
 218 518 l 2,20,21
 219 425 219 425 251 337.5 c 128,-1,22
 283 250 283 250 340.5 182.5 c 128,-1,23
 398 115 398 115 478.5 74.5 c 128,-1,24
 559 34 559 34 658 33 c 0,25,26
 759 32 759 32 843.5 68 c 128,-1,27
 928 104 928 104 993 182 c 1,28,-1
 1032 155 l 1,29,30
 963 65 963 65 866.5 22.5 c 128,-1,31
 770 -20 770 -20 658 -20 c 0,0,1
637 1048 m 0,32,33
 547 1048 547 1048 475 1013.5 c 128,-1,34
 403 979 403 979 350.5 921 c 128,-1,35
 298 863 298 863 265.5 787.5 c 128,-1,36
 233 712 233 712 223 631 c 1,37,-1
 1011 631 l 1,38,-1
 1011 644 l 2,39,40
 1011 724 1011 724 983.5 797 c 128,-1,41
 956 870 956 870 907 926 c 128,-1,42
 858 982 858 982 789 1015 c 128,-1,43
 720 1048 720 1048 637 1048 c 0,32,33
EndSplineSet
Substitution2: "'smcp' Lowercase to Small Capitals lookup 0 subtable" E.smcp
EndChar
StartChar: f
Encoding: 102 102 72
Width: 1230
Flags: W
LayerCount: 2
Back
Fore
SplineSet
1004 1027 m 1,0,-1
 559 1027 l 1,1,-1
 563 0 l 1,2,-1
 500 0 l 1,3,-1
 503 1027 l 1,4,-1
 210 1027 l 1,5,-1
 210 1082 l 1,6,-1
 503 1082 l 1,7,-1
 504 1177 l 2,8,9
 506 1295 506 1295 543 1369 c 128,-1,10
 580 1443 580 1443 639 1484.5 c 128,-1,11
 698 1526 698 1526 773 1541.5 c 128,-1,12
 848 1557 848 1557 926 1557 c 0,13,14
 974 1557 974 1557 1020 1553.5 c 128,-1,15
 1066 1550 1066 1550 1112 1540 c 1,16,-1
 1104 1488 l 1,17,18
 1060 1497 1060 1497 1016.5 1500 c 128,-1,19
 973 1503 973 1503 928 1503 c 0,20,21
 885 1503 885 1503 841 1498.5 c 128,-1,22
 797 1494 797 1494 756.5 1481.5 c 128,-1,23
 716 1469 716 1469 680.5 1446.5 c 128,-1,24
 645 1424 645 1424 618.5 1387.5 c 128,-1,25
 592 1351 592 1351 576 1299.5 c 128,-1,26
 560 1248 560 1248 559 1177 c 2,27,-1
 559 1082 l 1,28,-1
 1004 1082 l 1,29,-1
 1004 1027 l 1,0,-1
EndSplineSet
Substitution2: "'smcp' Lowercase to Small Capitals lookup 0 subtable" F.smcp
EndChar
StartChar: g
Encoding: 103 103 73
Width: 1229
Flags: W
LayerCount: 2
Back
Fore
SplineSet
178 552 m 2,0,1
 178 616 178 616 188 681.5 c 128,-1,2
 198 747 198 747 219.5 808 c 128,-1,3
 241 869 241 869 274.5 923 c 128,-1,4
 308 977 308 977 355 1016.5 c 128,-1,5
 402 1056 402 1056 464.5 1079 c 128,-1,6
 527 1102 527 1102 606 1102 c 0,7,8
 658 1102 658 1102 708.5 1087.5 c 128,-1,9
 759 1073 759 1073 804 1046 c 128,-1,10
 849 1019 849 1019 887 981 c 128,-1,11
 925 943 925 943 952 897 c 1,12,-1
 952 1082 l 1,13,-1
 1007 1082 l 1,14,-1
 1007 15 l 2,15,16
 1006 -78 1006 -78 979 -160 c 128,-1,17
 952 -242 952 -242 900 -303.5 c 128,-1,18
 848 -365 848 -365 772.5 -400.5 c 128,-1,19
 697 -436 697 -436 598 -436 c 0,20,21
 489 -436 489 -436 399.5 -387.5 c 128,-1,22
 310 -339 310 -339 244 -254 c 1,23,-1
 282 -218 l 1,24,25
 343 -292 343 -292 420 -337.5 c 128,-1,26
 497 -383 497 -383 596 -383 c 0,27,28
 684 -383 684 -383 750.5 -352 c 128,-1,29
 817 -321 817 -321 861.5 -267 c 128,-1,30
 906 -213 906 -213 928.5 -140.5 c 128,-1,31
 951 -68 951 -68 952 15 c 2,32,-1
 952 160 l 1,33,34
 924 117 924 117 884.5 83.5 c 128,-1,35
 845 50 845 50 799 27 c 128,-1,36
 753 4 753 4 703 -8 c 128,-1,37
 653 -20 653 -20 604 -20 c 0,38,39
 526 -20 526 -20 464.5 3.5 c 128,-1,40
 403 27 403 27 355.5 67 c 128,-1,41
 308 107 308 107 274.5 161 c 128,-1,42
 241 215 241 215 220 276 c 128,-1,43
 199 337 199 337 188.5 402.5 c 128,-1,44
 178 468 178 468 178 531 c 2,45,-1
 178 552 l 2,0,1
233 531 m 2,46,47
 234 476 234 476 242 417.5 c 128,-1,48
 250 359 250 359 267.5 304 c 128,-1,49
 285 249 285 249 313 200 c 128,-1,50
 341 151 341 151 382 114 c 128,-1,51
 423 77 423 77 477.5 55.5 c 128,-1,52
 532 34 532 34 603 34 c 0,53,54
 657 34 657 34 711 49 c 128,-1,55
 765 64 765 64 812.5 93 c 128,-1,56
 860 122 860 122 896.5 164.5 c 128,-1,57
 933 207 933 207 952 262 c 1,58,-1
 952 783 l 1,59,60
 934 842 934 842 900 890.5 c 128,-1,61
 866 939 866 939 820.5 974 c 128,-1,62
 775 1009 775 1009 720 1028.5 c 128,-1,63
 665 1048 665 1048 605 1048 c 0,64,65
 534 1048 534 1048 479 1026.5 c 128,-1,66
 424 1005 424 1005 383 968.5 c 128,-1,67
 342 932 342 932 313.5 883.5 c 128,-1,68
 285 835 285 835 267.5 780 c 128,-1,69
 250 725 250 725 241.5 666.5 c 128,-1,70
 233 608 233 608 233 552 c 2,71,-1
 233 531 l 2,46,47
EndSplineSet
Substitution2: "'smcp' Lowercase to Small Capitals lookup 0 subtable" G.smcp
EndChar
StartChar: h
Encoding: 104 104 74
Width: 1229
Flags: W
LayerCount: 2
Back
Fore
SplineSet
268 821 m 1,0,1
 294 881 294 881 334 932.5 c 128,-1,2
 374 984 374 984 425.5 1021.5 c 128,-1,3
 477 1059 477 1059 539 1080.5 c 128,-1,4
 601 1102 601 1102 672 1102 c 0,5,6
 765 1102 765 1102 833 1072 c 128,-1,7
 901 1042 901 1042 945 988.5 c 128,-1,8
 989 935 989 935 1010.5 861 c 128,-1,9
 1032 787 1032 787 1033 700 c 2,10,-1
 1033 0 l 1,11,-1
 978 0 l 1,12,-1
 978 700 l 2,13,14
 977 776 977 776 959.5 840.5 c 128,-1,15
 942 905 942 905 904.5 951.5 c 128,-1,16
 867 998 867 998 809 1024 c 128,-1,17
 751 1050 751 1050 669 1049 c 0,18,19
 596 1048 596 1048 530 1020 c 128,-1,20
 464 992 464 992 410.5 945 c 128,-1,21
 357 898 357 898 320 835 c 128,-1,22
 283 772 283 772 268 702 c 1,23,-1
 268 0 l 1,24,-1
 213 0 l 1,25,-1
 213 1536 l 1,26,-1
 268 1536 l 1,27,-1
 268 821 l 1,0,1
EndSplineSet
Substitution2: "'smcp' Lowercase to Small Capitals lookup 0 subtable" H.smcp
EndChar
StartChar: i
Encoding: 105 105 75
Width: 1229
Flags: W
LayerCount: 2
Back
Fore
SplineSet
239 1082 m 1,0,-1
 690 1082 l 1,1,-1
 690 54 l 1,2,-1
 1074 54 l 1,3,-1
 1074 0 l 1,4,-1
 239 0 l 1,5,-1
 239 54 l 1,6,-1
 636 54 l 1,7,-1
 636 1028 l 1,8,-1
 239 1028 l 1,9,-1
 239 1082 l 1,0,-1
590 1390 m 0,10,11
 590 1404 590 1404 593 1417.5 c 128,-1,12
 596 1431 596 1431 604 1441.5 c 128,-1,13
 612 1452 612 1452 625.5 1458 c 128,-1,14
 639 1464 639 1464 660 1464 c 0,15,16
 680 1464 680 1464 693.5 1458 c 128,-1,17
 707 1452 707 1452 715.5 1441.5 c 128,-1,18
 724 1431 724 1431 727.5 1417.5 c 128,-1,19
 731 1404 731 1404 731 1390 c 0,20,21
 731 1363 731 1363 715.5 1341 c 128,-1,22
 700 1319 700 1319 660 1319 c 0,23,24
 619 1319 619 1319 604.5 1341 c 128,-1,25
 590 1363 590 1363 590 1390 c 0,10,11
EndSplineSet
Substitution2: "'smcp' Lowercase to Small Capitals lookup 0 subtable" I.smcp
EndChar
StartChar: j
Encoding: 106 106 76
Width: 1229
Flags: W
LayerCount: 2
Back
Fore
SplineSet
303 1082 m 1,0,-1
 777 1082 l 1,1,-1
 777 6 l 2,2,3
 777 -93 777 -93 750.5 -175 c 128,-1,4
 724 -257 724 -257 673 -315 c 128,-1,5
 622 -373 622 -373 549 -405 c 128,-1,6
 476 -437 476 -437 383 -437 c 0,7,8
 354 -437 354 -437 329 -436 c 128,-1,9
 304 -435 304 -435 280 -433 c 128,-1,10
 256 -431 256 -431 231.5 -428 c 128,-1,11
 207 -425 207 -425 179 -420 c 1,12,-1
 183 -372 l 1,13,14
 202 -375 202 -375 229.5 -377.5 c 128,-1,15
 257 -380 257 -380 284.5 -381.5 c 128,-1,16
 312 -383 312 -383 337.5 -383.5 c 128,-1,17
 363 -384 363 -384 379 -384 c 0,18,19
 447 -384 447 -384 509.5 -363.5 c 128,-1,20
 572 -343 572 -343 619.5 -296.5 c 128,-1,21
 667 -250 667 -250 695 -176 c 128,-1,22
 723 -102 723 -102 723 6 c 2,23,-1
 723 1028 l 1,24,-1
 303 1028 l 1,25,-1
 303 1082 l 1,0,-1
670 1391 m 0,26,27
 670 1405 670 1405 673 1418.5 c 128,-1,28
 676 1432 676 1432 684.5 1442.5 c 128,-1,29
 693 1453 693 1453 706.5 1459 c 128,-1,30
 720 1465 720 1465 741 1465 c 0,31,32
 761 1465 761 1465 774.5 1459 c 128,-1,33
 788 1453 788 1453 796.5 1442.5 c 128,-1,34
 805 1432 805 1432 808.5 1418.5 c 128,-1,35
 812 1405 812 1405 812 1391 c 0,36,37
 812 1364 812 1364 796.5 1342 c 128,-1,38
 781 1320 781 1320 741 1320 c 0,39,40
 699 1320 699 1320 684.5 1342 c 128,-1,41
 670 1364 670 1364 670 1391 c 0,26,27
EndSplineSet
Substitution2: "'smcp' Lowercase to Small Capitals lookup 0 subtable" J.smcp
EndChar
StartChar: k
Encoding: 107 107 77
Width: 1229
Flags: W
LayerCount: 2
Back
Fore
SplineSet
483 586 m 1,0,-1
 479 583 l 1,1,-1
 312 447 l 1,2,-1
 312 0 l 1,3,-1
 257 0 l 1,4,-1
 257 1536 l 1,5,-1
 312 1536 l 1,6,-1
 312 505 l 1,7,-1
 449 627 l 1,8,-1
 973 1082 l 1,9,-1
 1053 1082 l 1,10,-1
 525 622 l 1,11,-1
 1086 0 l 1,12,-1
 1014 0 l 1,13,-1
 483 586 l 1,0,-1
EndSplineSet
Substitution2: "'smcp' Lowercase to Small Capitals lookup 0 subtable" K.smcp
EndChar
StartChar: l
Encoding: 108 108 78
Width: 1229
Flags: W
LayerCount: 2
Back
Fore
SplineSet
239 1536 m 1,0,-1
 694 1536 l 1,1,-1
 694 54 l 1,2,-1
 1074 54 l 1,3,-1
 1074 0 l 1,4,-1
 239 0 l 1,5,-1
 239 54 l 1,6,-1
 640 54 l 1,7,-1
 640 1482 l 1,8,-1
 239 1482 l 1,9,-1
 239 1536 l 1,0,-1
EndSplineSet
Substitution2: "'smcp' Lowercase to Small Capitals lookup 0 subtable" L.smcp
EndChar
StartChar: m
Encoding: 109 109 79
Width: 1229
Flags: W
LayerCount: 2
Back
Fore
SplineSet
135 1082 m 1,0,-1
 137 940 l 1,1,2
 168 1010 168 1010 229.5 1055 c 128,-1,3
 291 1100 291 1100 393 1102 c 0,4,5
 447 1102 447 1102 486.5 1088.5 c 128,-1,6
 526 1075 526 1075 554 1052 c 128,-1,7
 582 1029 582 1029 599 998.5 c 128,-1,8
 616 968 616 968 625 935 c 1,9,10
 641 968 641 968 666 998 c 128,-1,11
 691 1028 691 1028 725.5 1051 c 128,-1,12
 760 1074 760 1074 803 1088 c 128,-1,13
 846 1102 846 1102 898 1102 c 0,14,15
 951 1102 951 1102 990.5 1088.5 c 128,-1,16
 1030 1075 1030 1075 1057 1052 c 128,-1,17
 1084 1029 1084 1029 1101 998.5 c 128,-1,18
 1118 968 1118 968 1128 934.5 c 128,-1,19
 1138 901 1138 901 1141.5 866 c 128,-1,20
 1145 831 1145 831 1145 800 c 2,21,-1
 1143 0 l 1,22,-1
 1094 0 l 1,23,-1
 1092 800 l 2,24,25
 1092 835 1092 835 1086.5 879 c 128,-1,26
 1081 923 1081 923 1061 961.5 c 128,-1,27
 1041 1000 1041 1000 1002 1025.5 c 128,-1,28
 963 1051 963 1051 896 1049 c 0,29,30
 830 1047 830 1047 785.5 1027 c 128,-1,31
 741 1007 741 1007 712 976 c 128,-1,32
 683 945 683 945 666.5 908 c 128,-1,33
 650 871 650 871 639 836 c 0,34,35
 639 831 639 831 639.5 827.5 c 128,-1,36
 640 824 640 824 640 820 c 2,37,-1
 638 0 l 1,38,-1
 589 0 l 1,39,-1
 587 820 l 2,40,41
 586 855 586 855 580 895.5 c 128,-1,42
 574 936 574 936 553.5 970.5 c 128,-1,43
 533 1005 533 1005 494.5 1027.5 c 128,-1,44
 456 1050 456 1050 391 1049 c 0,45,46
 321 1047 321 1047 276.5 1023 c 128,-1,47
 232 999 232 999 204 961.5 c 128,-1,48
 176 924 176 924 161.5 878 c 128,-1,49
 147 832 147 832 137 788 c 1,50,-1
 135 0 l 1,51,-1
 86 0 l 1,52,-1
 86 1082 l 1,53,-1
 135 1082 l 1,0,-1
EndSplineSet
Substitution2: "'smcp' Lowercase to Small Capitals lookup 0 subtable" M.smcp
EndChar
StartChar: n
Encoding: 110 110 80
Width: 1229
Flags: W
LayerCount: 2
Back
Fore
SplineSet
267 822 m 1,0,1
 293 882 293 882 332.5 933.5 c 128,-1,2
 372 985 372 985 423.5 1022 c 128,-1,3
 475 1059 475 1059 537 1080.5 c 128,-1,4
 599 1102 599 1102 670 1102 c 0,5,6
 763 1102 763 1102 830.5 1072 c 128,-1,7
 898 1042 898 1042 942 988.5 c 128,-1,8
 986 935 986 935 1007 861 c 128,-1,9
 1028 787 1028 787 1029 700 c 2,10,-1
 1030 0 l 1,11,-1
 975 0 l 1,12,-1
 975 700 l 2,13,14
 974 776 974 776 956.5 840.5 c 128,-1,15
 939 905 939 905 902 951.5 c 128,-1,16
 865 998 865 998 807 1024 c 128,-1,17
 749 1050 749 1050 667 1049 c 0,18,19
 594 1048 594 1048 528 1020 c 128,-1,20
 462 992 462 992 409 945 c 128,-1,21
 356 898 356 898 319 835 c 128,-1,22
 282 772 282 772 267 702 c 1,23,-1
 267 0 l 1,24,-1
 212 0 l 1,25,-1
 212 1082 l 1,26,-1
 267 1082 l 1,27,-1
 267 822 l 1,28,-1
 267 822 l 1,0,1
EndSplineSet
Substitution2: "'smcp' Lowercase to Small Capitals lookup 0 subtable" N.smcp
EndChar
StartChar: o
Encoding: 111 111 81
Width: 1229
Flags: W
LayerCount: 2
Back
Fore
SplineSet
141 562 m 2,0,1
 142 666 142 666 174 763.5 c 128,-1,2
 206 861 206 861 266 936 c 128,-1,3
 326 1011 326 1011 413.5 1056.5 c 128,-1,4
 501 1102 501 1102 614 1102 c 256,5,6
 727 1102 727 1102 814.5 1057 c 128,-1,7
 902 1012 902 1012 962.5 937 c 128,-1,8
 1023 862 1023 862 1055 764.5 c 128,-1,9
 1087 667 1087 667 1088 562 c 2,10,-1
 1088 520 l 2,11,12
 1087 416 1087 416 1055.5 318.5 c 128,-1,13
 1024 221 1024 221 964 146 c 128,-1,14
 904 71 904 71 816.5 25.5 c 128,-1,15
 729 -20 729 -20 616 -20 c 256,16,17
 503 -20 503 -20 415 25 c 128,-1,18
 327 70 327 70 266.5 145 c 128,-1,19
 206 220 206 220 174 317.5 c 128,-1,20
 142 415 142 415 141 520 c 2,21,-1
 141 562 l 2,0,1
195 520 m 2,22,23
 196 428 196 428 224.5 340.5 c 128,-1,24
 253 253 253 253 306.5 185 c 128,-1,25
 360 117 360 117 438 75.5 c 128,-1,26
 516 34 516 34 616 34 c 256,27,28
 716 34 716 34 793 75.5 c 128,-1,29
 870 117 870 117 923.5 185.5 c 128,-1,30
 977 254 977 254 1005 341 c 128,-1,31
 1033 428 1033 428 1034 520 c 2,32,-1
 1034 562 l 2,33,34
 1033 653 1033 653 1004.5 740.5 c 128,-1,35
 976 828 976 828 922.5 896 c 128,-1,36
 869 964 869 964 791 1006 c 128,-1,37
 713 1048 713 1048 614 1048 c 256,38,39
 515 1048 515 1048 437.5 1006 c 128,-1,40
 360 964 360 964 306.5 896 c 128,-1,41
 253 828 253 828 224.5 740.5 c 128,-1,42
 196 653 196 653 195 562 c 2,43,-1
 195 520 l 2,22,23
EndSplineSet
Substitution2: "'smcp' Lowercase to Small Capitals lookup 0 subtable" O.smcp
EndChar
StartChar: p
Encoding: 112 112 82
Width: 1229
Flags: W
LayerCount: 2
Back
Fore
SplineSet
1049 531 m 2,0,1
 1049 468 1049 468 1038.5 402.5 c 128,-1,2
 1028 337 1028 337 1007 276 c 128,-1,3
 986 215 986 215 952.5 161 c 128,-1,4
 919 107 919 107 872 67 c 128,-1,5
 825 27 825 27 763 3.5 c 128,-1,6
 701 -20 701 -20 623 -20 c 0,7,8
 574 -20 574 -20 524 -8 c 128,-1,9
 474 4 474 4 428 26.5 c 128,-1,10
 382 49 382 49 342 82 c 128,-1,11
 302 115 302 115 274 158 c 1,12,-1
 274 -416 l 1,13,-1
 220 -416 l 1,14,-1
 220 1082 l 1,15,-1
 274 1082 l 1,16,-1
 274 902 l 1,17,18
 301 948 301 948 339.5 985 c 128,-1,19
 378 1022 378 1022 423 1048 c 128,-1,20
 468 1074 468 1074 518.5 1088 c 128,-1,21
 569 1102 569 1102 621 1102 c 0,22,23
 700 1102 700 1102 762.5 1079 c 128,-1,24
 825 1056 825 1056 872 1016.5 c 128,-1,25
 919 977 919 977 952.5 923 c 128,-1,26
 986 869 986 869 1007.5 808 c 128,-1,27
 1029 747 1029 747 1038.5 681.5 c 128,-1,28
 1048 616 1048 616 1049 552 c 2,29,-1
 1049 531 l 2,0,1
994 552 m 2,30,31
 994 608 994 608 985.5 666.5 c 128,-1,32
 977 725 977 725 959.5 780 c 128,-1,33
 942 835 942 835 913.5 883.5 c 128,-1,34
 885 932 885 932 844 968.5 c 128,-1,35
 803 1005 803 1005 748 1026.5 c 128,-1,36
 693 1048 693 1048 622 1048 c 0,37,38
 563 1048 563 1048 508.5 1029.5 c 128,-1,39
 454 1011 454 1011 408 977 c 128,-1,40
 362 943 362 943 327.5 895.5 c 128,-1,41
 293 848 293 848 274 790 c 1,42,-1
 274 256 l 1,43,44
 294 202 294 202 331.5 160.5 c 128,-1,45
 369 119 369 119 416 91 c 128,-1,46
 463 63 463 63 517 48.5 c 128,-1,47
 571 34 571 34 624 34 c 0,48,49
 694 34 694 34 749 55.5 c 128,-1,50
 804 77 804 77 845 114 c 128,-1,51
 886 151 886 151 914 200 c 128,-1,52
 942 249 942 249 959.5 304 c 128,-1,53
 977 359 977 359 985 417 c 128,-1,54
 993 475 993 475 994 531 c 2,55,-1
 994 552 l 2,30,31
EndSplineSet
Substitution2: "'smcp' Lowercase to Small Capitals lookup 0 subtable" P.smcp
EndChar
StartChar: q
Encoding: 113 113 83
Width: 1229
Flags: W
LayerCount: 2
Back
Fore
SplineSet
177 552 m 2,0,1
 177 616 177 616 187 681.5 c 128,-1,2
 197 747 197 747 218.5 808 c 128,-1,3
 240 869 240 869 273.5 923 c 128,-1,4
 307 977 307 977 354 1016.5 c 128,-1,5
 401 1056 401 1056 463.5 1079 c 128,-1,6
 526 1102 526 1102 605 1102 c 0,7,8
 657 1102 657 1102 707.5 1088 c 128,-1,9
 758 1074 758 1074 803 1048 c 128,-1,10
 848 1022 848 1022 886 985 c 128,-1,11
 924 948 924 948 952 902 c 1,12,-1
 952 1082 l 1,13,-1
 1006 1082 l 1,14,-1
 1006 -416 l 1,15,-1
 952 -416 l 1,16,-1
 952 157 l 1,17,18
 923 115 923 115 883 82 c 128,-1,19
 843 49 843 49 797 26.5 c 128,-1,20
 751 4 751 4 701 -8 c 128,-1,21
 651 -20 651 -20 603 -20 c 0,22,23
 525 -20 525 -20 463.5 3.5 c 128,-1,24
 402 27 402 27 354.5 67 c 128,-1,25
 307 107 307 107 273.5 161 c 128,-1,26
 240 215 240 215 219 276 c 128,-1,27
 198 337 198 337 187.5 402.5 c 128,-1,28
 177 468 177 468 177 531 c 2,29,-1
 177 552 l 2,0,1
233 531 m 2,30,31
 233 476 233 476 241 417.5 c 128,-1,32
 249 359 249 359 266.5 304 c 128,-1,33
 284 249 284 249 312.5 200 c 128,-1,34
 341 151 341 151 381.5 114 c 128,-1,35
 422 77 422 77 476.5 55.5 c 128,-1,36
 531 34 531 34 602 34 c 0,37,38
 655 34 655 34 708.5 48.5 c 128,-1,39
 762 63 762 63 809 91 c 128,-1,40
 856 119 856 119 893.5 160.5 c 128,-1,41
 931 202 931 202 952 255 c 1,42,-1
 952 791 l 1,43,44
 932 848 932 848 897 895 c 128,-1,45
 862 942 862 942 816 976 c 128,-1,46
 770 1010 770 1010 715.5 1029 c 128,-1,47
 661 1048 661 1048 604 1048 c 0,48,49
 533 1048 533 1048 478.5 1026.5 c 128,-1,50
 424 1005 424 1005 382.5 968.5 c 128,-1,51
 341 932 341 932 313 883 c 128,-1,52
 285 834 285 834 267.5 779 c 128,-1,53
 250 724 250 724 241.5 665.5 c 128,-1,54
 233 607 233 607 233 552 c 2,55,-1
 233 531 l 2,30,31
EndSplineSet
Substitution2: "'smcp' Lowercase to Small Capitals lookup 0 subtable" Q.smcp
EndChar
StartChar: r
Encoding: 114 114 84
Width: 1229
Flags: W
LayerCount: 2
Back
Fore
SplineSet
935 1102 m 0,0,1
 971 1102 971 1102 1007 1097.5 c 128,-1,2
 1043 1093 1043 1093 1076 1086 c 1,3,-1
 1070 1035 l 1,4,5
 1041 1040 1041 1040 1005.5 1044.5 c 128,-1,6
 970 1049 970 1049 935 1049 c 0,7,8
 852 1049 852 1049 773.5 1030.5 c 128,-1,9
 695 1012 695 1012 630.5 969.5 c 128,-1,10
 566 927 566 927 518.5 858.5 c 128,-1,11
 471 790 471 790 449 691 c 1,12,-1
 452 0 l 1,13,-1
 390 0 l 1,14,-1
 390 1082 l 1,15,-1
 443 1082 l 1,16,-1
 449 894 l 1,17,-1
 449 825 l 1,18,19
 509 958 509 958 634 1030.5 c 128,-1,20
 759 1103 759 1103 935 1102 c 0,0,1
EndSplineSet
Substitution2: "'smcp' Lowercase to Small Capitals lookup 0 subtable" R.smcp
EndChar
StartChar: s
Encoding: 115 115 85
Width: 1229
Flags: W
LayerCount: 2
Back
Fore
SplineSet
1003 265 m 0,0,1
 1003 309 1003 309 986 344.5 c 128,-1,2
 969 380 969 380 940 407 c 128,-1,3
 911 434 911 434 873.5 454.5 c 128,-1,4
 836 475 836 475 795 489.5 c 128,-1,5
 754 504 754 504 714 514.5 c 128,-1,6
 674 525 674 525 640 532 c 0,7,8
 599 541 599 541 553 551.5 c 128,-1,9
 507 562 507 562 463 577.5 c 128,-1,10
 419 593 419 593 378.5 614 c 128,-1,11
 338 635 338 635 308 665 c 128,-1,12
 278 695 278 695 260 735.5 c 128,-1,13
 242 776 242 776 243 829 c 0,14,15
 243 879 243 879 261 918.5 c 128,-1,16
 279 958 279 958 308.5 988.5 c 128,-1,17
 338 1019 338 1019 377.5 1040.5 c 128,-1,18
 417 1062 417 1062 460.5 1075.5 c 128,-1,19
 504 1089 504 1089 549 1095.5 c 128,-1,20
 594 1102 594 1102 635 1102 c 0,21,22
 711 1102 711 1102 784 1085 c 128,-1,23
 857 1068 857 1068 915.5 1031 c 128,-1,24
 974 994 974 994 1012 935.5 c 128,-1,25
 1050 877 1050 877 1056 793 c 1,26,-1
 1000 793 l 1,27,28
 998 862 998 862 963 910.5 c 128,-1,29
 928 959 928 959 874.5 989.5 c 128,-1,30
 821 1020 821 1020 757.5 1034 c 128,-1,31
 694 1048 694 1048 635 1048 c 0,32,33
 585 1048 585 1048 526.5 1037.5 c 128,-1,34
 468 1027 468 1027 417 1002 c 128,-1,35
 366 977 366 977 332 935.5 c 128,-1,36
 298 894 298 894 297 831 c 0,37,38
 296 785 296 785 313 751 c 128,-1,39
 330 717 330 717 358.5 691.5 c 128,-1,40
 387 666 387 666 424.5 648 c 128,-1,41
 462 630 462 630 502 617 c 128,-1,42
 542 604 542 604 582.5 595 c 128,-1,43
 623 586 623 586 657 579 c 0,44,45
 721 565 721 565 791.5 544 c 128,-1,46
 862 523 862 523 921.5 488 c 128,-1,47
 981 453 981 453 1019 399 c 128,-1,48
 1057 345 1057 345 1057 264 c 0,49,50
 1057 211 1057 211 1038 169.5 c 128,-1,51
 1019 128 1019 128 988 96.5 c 128,-1,52
 957 65 957 65 915.5 42.5 c 128,-1,53
 874 20 874 20 828.5 6.5 c 128,-1,54
 783 -7 783 -7 735.5 -13.5 c 128,-1,55
 688 -20 688 -20 644 -20 c 0,56,57
 596 -20 596 -20 546 -13.5 c 128,-1,58
 496 -7 496 -7 448.5 7.5 c 128,-1,59
 401 22 401 22 358.5 45 c 128,-1,60
 316 68 316 68 283 100.5 c 128,-1,61
 250 133 250 133 229 176.5 c 128,-1,62
 208 220 208 220 204 275 c 1,63,-1
 259 275 l 1,64,65
 267 204 267 204 305.5 157.5 c 128,-1,66
 344 111 344 111 398.5 83.5 c 128,-1,67
 453 56 453 56 518 45 c 128,-1,68
 583 34 583 34 644 34 c 0,69,70
 678 34 678 34 718 39 c 128,-1,71
 758 44 758 44 797.5 55.5 c 128,-1,72
 837 67 837 67 874 84.5 c 128,-1,73
 911 102 911 102 939.5 128 c 128,-1,74
 968 154 968 154 985 187.5 c 128,-1,75
 1002 221 1002 221 1003 265 c 0,0,1
EndSplineSet
Substitution2: "'smcp' Lowercase to Small Capitals lookup 0 subtable" S.smcp
EndChar
StartChar: t
Encoding: 116 116 86
Width: 1229
Flags: W
LayerCount: 2
Back
Fore
SplineSet
573 1374 m 1,0,-1
 572 1082 l 1,1,-1
 962 1082 l 1,2,-1
 962 1027 l 1,3,-1
 572 1027 l 1,4,-1
 572 259 l 2,5,6
 574 196 574 196 594.5 153.5 c 128,-1,7
 615 111 615 111 651 84.5 c 128,-1,8
 687 58 687 58 735.5 46 c 128,-1,9
 784 34 784 34 842 34 c 0,10,11
 923 34 923 34 1001 43 c 1,12,-1
 1012 -8 l 1,13,14
 971 -16 971 -16 930 -18 c 128,-1,15
 889 -20 889 -20 847 -20 c 0,16,17
 775 -20 775 -20 715 -5.5 c 128,-1,18
 655 9 655 9 611 42 c 128,-1,19
 567 75 567 75 542 128 c 128,-1,20
 517 181 517 181 515 259 c 2,21,-1
 515 1027 l 1,22,-1
 197 1027 l 1,23,-1
 197 1082 l 1,24,-1
 515 1082 l 1,25,-1
 515 1374 l 1,26,-1
 573 1374 l 1,0,-1
EndSplineSet
Substitution2: "'smcp' Lowercase to Small Capitals lookup 0 subtable" T.smcp
EndChar
StartChar: u
Encoding: 117 117 87
Width: 1229
Flags: W
LayerCount: 2
Back
Fore
SplineSet
964 0 m 1,0,-1
 965 193 l 1,1,2
 913 93 913 93 816.5 36.5 c 128,-1,3
 720 -20 720 -20 581 -20 c 0,4,5
 487 -20 487 -20 418.5 12 c 128,-1,6
 350 44 350 44 305.5 99.5 c 128,-1,7
 261 155 261 155 239 231 c 128,-1,8
 217 307 217 307 216 395 c 2,9,-1
 216 1082 l 1,10,-1
 270 1082 l 1,11,-1
 270 393 l 2,12,13
 271 318 271 318 289 253 c 128,-1,14
 307 188 307 188 344.5 139 c 128,-1,15
 382 90 382 90 440 62 c 128,-1,16
 498 34 498 34 579 34 c 0,17,18
 657 34 657 34 722 54.5 c 128,-1,19
 787 75 787 75 836.5 113.5 c 128,-1,20
 886 152 886 152 918.5 207.5 c 128,-1,21
 951 263 951 263 965 333 c 1,22,-1
 964 1082 l 1,23,-1
 1020 1082 l 1,24,-1
 1020 0 l 1,25,-1
 964 0 l 1,0,-1
EndSplineSet
Substitution2: "'smcp' Lowercase to Small Capitals lookup 0 subtable" U.smcp
EndChar
StartChar: v
Encoding: 118 118 88
Width: 1229
Flags: W
LayerCount: 2
Back
Fore
SplineSet
612 79 m 1,0,-1
 1047 1082 l 1,1,-1
 1108 1082 l 1,2,-1
 639 0 l 1,3,-1
 584 0 l 1,4,-1
 116 1082 l 1,5,-1
 177 1082 l 1,6,-1
 612 79 l 1,0,-1
EndSplineSet
Substitution2: "'smcp' Lowercase to Small Capitals lookup 0 subtable" V.smcp
EndChar
StartChar: w
Encoding: 119 119 89
Width: 1229
Flags: W
LayerCount: 2
Back
Fore
SplineSet
310 313 m 1,0,-1
 352 100 l 1,1,-1
 405 313 l 1,2,-1
 598 1082 l 1,3,-1
 648 1082 l 1,4,-1
 841 313 l 1,5,-1
 893 100 l 1,6,-1
 936 313 l 1,7,-1
 1112 1082 l 1,8,-1
 1169 1082 l 1,9,-1
 920 0 l 1,10,-1
 871 0 l 1,11,-1
 658 813 l 1,12,-1
 623 985 l 1,13,-1
 585 813 l 1,14,-1
 375 0 l 1,15,-1
 326 0 l 1,16,-1
 77 1082 l 1,17,-1
 134 1082 l 1,18,-1
 310 313 l 1,0,-1
EndSplineSet
Substitution2: "'smcp' Lowercase to Small Capitals lookup 0 subtable" W.smcp
EndChar
StartChar: x
Encoding: 120 120 90
Width: 1229
Flags: W
LayerCount: 2
Back
Fore
SplineSet
628 602 m 1,0,-1
 1011 1082 l 1,1,-1
 1083 1082 l 1,2,-1
 662 555 l 1,3,-1
 1105 0 l 1,4,-1
 1035 0 l 1,5,-1
 627 508 l 1,6,-1
 221 0 l 1,7,-1
 150 0 l 1,8,-1
 593 555 l 1,9,-1
 172 1082 l 1,10,-1
 244 1082 l 1,11,-1
 628 602 l 1,0,-1
EndSplineSet
Substitution2: "'smcp' Lowercase to Small Capitals lookup 0 subtable" X.smcp
EndChar
StartChar: y
Encoding: 121 121 91
Width: 1229
Flags: W
LayerCount: 2
Back
Fore
SplineSet
623 74 m 1,0,-1
 636 104 l 1,1,-1
 1076 1082 l 1,2,-1
 1141 1082 l 1,3,-1
 572 -180 l 2,4,5
 547 -236 547 -236 516.5 -282.5 c 128,-1,6
 486 -329 486 -329 446.5 -363.5 c 128,-1,7
 407 -398 407 -398 356 -417.5 c 128,-1,8
 305 -437 305 -437 239 -437 c 0,9,10
 195 -437 195 -437 149 -426 c 1,11,-1
 147 -375 l 1,12,13
 167 -378 167 -378 188 -381 c 128,-1,14
 209 -384 209 -384 230 -384 c 0,15,16
 284 -384 284 -384 328 -368.5 c 128,-1,17
 372 -353 372 -353 407 -324.5 c 128,-1,18
 442 -296 442 -296 469 -256.5 c 128,-1,19
 496 -217 496 -217 517 -170 c 2,20,-1
 592 2 l 1,21,-1
 84 1082 l 1,22,-1
 147 1082 l 1,23,-1
 623 74 l 1,0,-1
EndSplineSet
Substitution2: "'smcp' Lowercase to Small Capitals lookup 0 subtable" Y.smcp
EndChar
StartChar: z
Encoding: 122 122 92
Width: 1229
Flags: W
LayerCount: 2
Back
Fore
SplineSet
217 54 m 1,0,-1
 1111 54 l 1,1,-1
 1111 0 l 1,2,-1
 137 0 l 1,3,-1
 138 44 l 1,4,-1
 963 1027 l 1,5,-1
 173 1027 l 1,6,-1
 173 1082 l 1,7,-1
 1043 1082 l 1,8,-1
 1042 1034 l 1,9,-1
 217 54 l 1,0,-1
EndSplineSet
Substitution2: "'smcp' Lowercase to Small Capitals lookup 0 subtable" Z.smcp
EndChar
StartChar: braceleft
Encoding: 123 123 93
Width: 1229
Flags: W
LayerCount: 2
Back
Fore
SplineSet
970 -441 m 1,0,1
 801 -386 801 -386 710.5 -273 c 128,-1,2
 620 -160 620 -160 618 20 c 2,3,-1
 618 265 l 2,4,5
 616 399 616 399 543 468.5 c 128,-1,6
 470 538 470 538 339 543 c 1,7,-1
 338 566 l 1,8,-1
 338 586 l 1,9,-1
 339 609 l 1,10,11
 469 614 469 614 542.5 683 c 128,-1,12
 616 752 616 752 618 885 c 2,13,-1
 618 1132 l 2,14,15
 620 1312 620 1312 710.5 1426.5 c 128,-1,16
 801 1541 801 1541 969 1597 c 1,17,-1
 985 1552 l 1,18,19
 836 1502 836 1502 755 1396 c 128,-1,20
 674 1290 674 1290 672 1132 c 2,21,-1
 672 885 l 2,22,23
 670 754 670 754 603 676.5 c 128,-1,24
 536 599 536 599 423 576 c 1,25,26
 536 552 536 552 603 473.5 c 128,-1,27
 670 395 670 395 672 265 c 2,28,-1
 672 20 l 2,29,30
 673 -60 673 -60 695.5 -125 c 128,-1,31
 718 -190 718 -190 759 -241.5 c 128,-1,32
 800 -293 800 -293 858.5 -331.5 c 128,-1,33
 917 -370 917 -370 990 -395 c 1,34,-1
 970 -441 l 1,0,1
EndSplineSet
EndChar
StartChar: bar
Encoding: 124 124 94
Width: 1229
Flags: W
LayerCount: 2
Back
Fore
SplineSet
642 -270 m 1,0,-1
 588 -270 l 1,1,-1
 588 1456 l 1,2,-1
 642 1456 l 1,3,-1
 642 -270 l 1,0,-1
EndSplineSet
EndChar
StartChar: braceright
Encoding: 125 125 95
Width: 1229
Flags: W
LayerCount: 2
Back
Fore
SplineSet
338 -395 m 1,0,1
 411 -370 411 -370 469 -331.5 c 128,-1,2
 527 -293 527 -293 568 -241 c 128,-1,3
 609 -189 609 -189 631.5 -124 c 128,-1,4
 654 -59 654 -59 655 20 c 2,5,-1
 655 265 l 2,6,7
 657 396 657 396 723.5 474 c 128,-1,8
 790 552 790 552 904 576 c 1,9,10
 791 599 791 599 724 676.5 c 128,-1,11
 657 754 657 754 655 885 c 2,12,-1
 655 1132 l 2,13,14
 653 1290 653 1290 572.5 1396 c 128,-1,15
 492 1502 492 1502 343 1552 c 1,16,-1
 358 1597 l 1,17,18
 527 1541 527 1541 617 1426.5 c 128,-1,19
 707 1312 707 1312 709 1132 c 2,20,-1
 709 885 l 2,21,22
 711 752 711 752 784.5 683 c 128,-1,23
 858 614 858 614 988 609 c 1,24,-1
 988 586 l 1,25,-1
 989 586 l 1,26,-1
 988 576 l 1,27,-1
 989 566 l 1,28,-1
 988 566 l 1,29,-1
 988 543 l 1,30,31
 857 538 857 538 784 468 c 128,-1,32
 711 398 711 398 709 265 c 2,33,-1
 709 20 l 2,34,35
 707 -160 707 -160 616.5 -273 c 128,-1,36
 526 -386 526 -386 357 -441 c 1,37,-1
 338 -395 l 1,0,1
EndSplineSet
EndChar
StartChar: asciitilde
Encoding: 126 126 96
Width: 1229
Flags: W
LayerCount: 2
Back
Fore
SplineSet
1157 752 m 1,0,1
 1155 692 1155 692 1137.5 636 c 128,-1,2
 1120 580 1120 580 1087 537.5 c 128,-1,3
 1054 495 1054 495 1004 469 c 128,-1,4
 954 443 954 443 888 443 c 0,5,6
 842 443 842 443 802 455.5 c 128,-1,7
 762 468 762 468 726 489 c 128,-1,8
 690 510 690 510 656.5 537 c 128,-1,9
 623 564 623 564 590 593 c 0,10,11
 563 617 563 617 534.5 640 c 128,-1,12
 506 663 506 663 475.5 681 c 128,-1,13
 445 699 445 699 411.5 709.5 c 128,-1,14
 378 720 378 720 339 720 c 0,15,16
 282 720 282 720 242.5 698.5 c 128,-1,17
 203 677 203 677 177.5 641.5 c 128,-1,18
 152 606 152 606 140 559.5 c 128,-1,19
 128 513 128 513 126 462 c 1,20,-1
 71 462 l 1,21,22
 73 523 73 523 89.5 579.5 c 128,-1,23
 106 636 106 636 139 679 c 128,-1,24
 172 722 172 722 221.5 748 c 128,-1,25
 271 774 271 774 339 774 c 0,26,27
 385 774 385 774 425.5 761.5 c 128,-1,28
 466 749 466 749 502.5 728 c 128,-1,29
 539 707 539 707 573 680 c 128,-1,30
 607 653 607 653 639 624 c 0,31,32
 666 600 666 600 694 577 c 128,-1,33
 722 554 722 554 752.5 536 c 128,-1,34
 783 518 783 518 816.5 507 c 128,-1,35
 850 496 850 496 888 496 c 0,36,37
 944 496 944 496 983.5 517.5 c 128,-1,38
 1023 539 1023 539 1048.5 574.5 c 128,-1,39
 1074 610 1074 610 1086.5 656.5 c 128,-1,40
 1099 703 1099 703 1101 753 c 1,41,-1
 1157 752 l 1,0,1
EndSplineSet
EndChar
StartChar: exclamdown
Encoding: 161 161 97
Width: 1229
Flags: W
LayerCount: 2
Back
Fore
SplineSet
594 696 m 1,0,-1
 649 696 l 1,1,-1
 649 -359 l 1,2,-1
 594 -359 l 1,3,-1
 594 696 l 1,0,-1
670 1048 m 0,4,5
 670 1026 670 1026 653 1009 c 128,-1,6
 636 992 636 992 613 992 c 0,7,8
 591 992 591 992 573.5 1008.5 c 128,-1,9
 556 1025 556 1025 556 1048 c 256,10,11
 556 1071 556 1071 573.5 1087 c 128,-1,12
 591 1103 591 1103 613 1103 c 256,13,14
 635 1103 635 1103 652.5 1087 c 128,-1,15
 670 1071 670 1071 670 1048 c 0,4,5
EndSplineSet
EndChar
StartChar: cent
Encoding: 162 162 98
Width: 1229
Flags: W
LayerCount: 2
Back
Fore
SplineSet
635 34 m 0,0,1
 704 34 704 34 765.5 53 c 128,-1,2
 827 72 827 72 874.5 109.5 c 128,-1,3
 922 147 922 147 952 202 c 128,-1,4
 982 257 982 257 990 328 c 1,5,-1
 1044 328 l 1,6,7
 1037 252 1037 252 1005.5 190.5 c 128,-1,8
 974 129 974 129 925 84.5 c 128,-1,9
 876 40 876 40 812 14 c 128,-1,10
 748 -12 748 -12 675 -18 c 1,11,-1
 675 -245 l 1,12,-1
 619 -245 l 1,13,-1
 619 -19 l 1,14,15
 509 -16 509 -16 427.5 31 c 128,-1,16
 346 78 346 78 292 153 c 128,-1,17
 238 228 238 228 211.5 323.5 c 128,-1,18
 185 419 185 419 184 520 c 2,19,-1
 184 562 l 2,20,21
 185 663 185 663 211.5 758.5 c 128,-1,22
 238 854 238 854 292 929 c 128,-1,23
 346 1004 346 1004 427.5 1051 c 128,-1,24
 509 1098 509 1098 619 1101 c 1,25,-1
 619 1318 l 1,26,-1
 675 1318 l 1,27,-1
 675 1100 l 1,28,29
 752 1093 752 1093 817 1063.5 c 128,-1,30
 882 1034 882 1034 930 985 c 128,-1,31
 978 936 978 936 1008 870 c 128,-1,32
 1038 804 1038 804 1044 725 c 1,33,-1
 990 725 l 1,34,35
 984 798 984 798 955 857.5 c 128,-1,36
 926 917 926 917 878.5 959.5 c 128,-1,37
 831 1002 831 1002 768.5 1025 c 128,-1,38
 706 1048 706 1048 633 1048 c 0,39,40
 530 1048 530 1048 456 1006.5 c 128,-1,41
 382 965 382 965 333.5 896.5 c 128,-1,42
 285 828 285 828 262 740.5 c 128,-1,43
 239 653 239 653 238 562 c 2,44,-1
 238 520 l 2,45,46
 239 427 239 427 262 340 c 128,-1,47
 285 253 285 253 333.5 185 c 128,-1,48
 382 117 382 117 456.5 75.5 c 128,-1,49
 531 34 531 34 635 34 c 0,0,1
EndSplineSet
EndChar
StartChar: sterling
Encoding: 163 163 99
Width: 1229
Flags: W
LayerCount: 2
Back
Fore
SplineSet
419 667 m 1,0,-1
 429 336 l 2,1,2
 430 299 430 299 428 261.5 c 128,-1,3
 426 224 426 224 418.5 187.5 c 128,-1,4
 411 151 411 151 397 117 c 128,-1,5
 383 83 383 83 360 54 c 1,6,-1
 1118 54 l 1,7,-1
 1119 0 l 1,8,-1
 159 0 l 1,9,-1
 159 54 l 1,10,-1
 279 54 l 1,11,12
 314 70 314 70 334 104 c 128,-1,13
 354 138 354 138 363 178.5 c 128,-1,14
 372 219 372 219 374 261 c 128,-1,15
 376 303 376 303 375 336 c 2,16,-1
 365 667 l 1,17,-1
 155 667 l 1,18,-1
 155 721 l 1,19,-1
 363 721 l 1,20,-1
 354 1039 l 2,21,22
 354 1123 354 1123 376.5 1202 c 128,-1,23
 399 1281 399 1281 444.5 1341.5 c 128,-1,24
 490 1402 490 1402 559 1439 c 128,-1,25
 628 1476 628 1476 720 1476 c 0,26,27
 807 1476 807 1476 875 1446.5 c 128,-1,28
 943 1417 943 1417 991 1365.5 c 128,-1,29
 1039 1314 1039 1314 1065 1243 c 128,-1,30
 1091 1172 1091 1172 1093 1089 c 1,31,-1
 1039 1089 l 1,32,33
 1036 1161 1036 1161 1014.5 1222.5 c 128,-1,34
 993 1284 993 1284 952.5 1328.5 c 128,-1,35
 912 1373 912 1373 854 1397.5 c 128,-1,36
 796 1422 796 1422 720 1422 c 0,37,38
 639 1422 639 1422 580 1389.5 c 128,-1,39
 521 1357 521 1357 482.5 1303.5 c 128,-1,40
 444 1250 444 1250 426 1181 c 128,-1,41
 408 1112 408 1112 408 1039 c 2,42,-1
 417 721 l 1,43,-1
 787 721 l 1,44,-1
 787 667 l 1,45,-1
 419 667 l 1,0,-1
EndSplineSet
EndChar
StartChar: currency
Encoding: 164 164 100
Width: 1229
Flags: W
LayerCount: 2
Back
Fore
SplineSet
982 152 m 1,0,1
 919 74 919 74 832 27 c 128,-1,2
 745 -20 745 -20 634 -20 c 0,3,4
 524 -20 524 -20 437 27 c 128,-1,5
 350 74 350 74 286 151 c 1,6,-1
 137 -26 l 1,7,-1
 99 13 l 1,8,-1
 253 195 l 1,9,10
 222 240 222 240 198.5 290.5 c 128,-1,11
 175 341 175 341 159.5 394 c 128,-1,12
 144 447 144 447 136 501 c 128,-1,13
 128 555 128 555 128 608 c 0,14,15
 128 662 128 662 136.5 718 c 128,-1,16
 145 774 145 774 162 829 c 128,-1,17
 179 884 179 884 203.5 935.5 c 128,-1,18
 228 987 228 987 261 1032 c 1,19,-1
 99 1225 l 1,20,-1
 137 1264 l 1,21,-1
 296 1075 l 1,22,23
 359 1147 359 1147 443.5 1190.5 c 128,-1,24
 528 1234 528 1234 634 1234 c 256,25,26
 740 1234 740 1234 824.5 1190 c 128,-1,27
 909 1146 909 1146 972 1074 c 1,28,-1
 1134 1265 l 1,29,-1
 1173 1225 l 1,30,-1
 1008 1029 l 1,31,32
 1073 938 1073 938 1106 827.5 c 128,-1,33
 1139 717 1139 717 1139 608 c 0,34,35
 1139 503 1139 503 1108 396 c 128,-1,36
 1077 289 1077 289 1016 198 c 1,37,-1
 1173 13 l 1,38,-1
 1134 -27 l 1,39,-1
 982 152 l 1,0,1
183 608 m 256,40,41
 183 544 183 544 196 476.5 c 128,-1,42
 209 409 209 409 235 345.5 c 128,-1,43
 261 282 261 282 299.5 225 c 128,-1,44
 338 168 338 168 388 125.5 c 128,-1,45
 438 83 438 83 499.5 58 c 128,-1,46
 561 33 561 33 634 33 c 256,47,48
 707 33 707 33 768.5 58 c 128,-1,49
 830 83 830 83 880 125.5 c 128,-1,50
 930 168 930 168 968.5 225 c 128,-1,51
 1007 282 1007 282 1033 345.5 c 128,-1,52
 1059 409 1059 409 1072 476.5 c 128,-1,53
 1085 544 1085 544 1085 608 c 0,54,55
 1085 671 1085 671 1072 738.5 c 128,-1,56
 1059 806 1059 806 1033 869.5 c 128,-1,57
 1007 933 1007 933 968.5 989.5 c 128,-1,58
 930 1046 930 1046 880 1088.5 c 128,-1,59
 830 1131 830 1131 768.5 1156 c 128,-1,60
 707 1181 707 1181 634 1181 c 256,61,62
 561 1181 561 1181 499.5 1156.5 c 128,-1,63
 438 1132 438 1132 388 1089.5 c 128,-1,64
 338 1047 338 1047 299.5 990.5 c 128,-1,65
 261 934 261 934 235.5 870 c 128,-1,66
 210 806 210 806 196.5 739 c 128,-1,67
 183 672 183 672 183 608 c 256,40,41
EndSplineSet
EndChar
StartChar: yen
Encoding: 165 165 101
Width: 1229
Flags: W
LayerCount: 2
Back
Fore
SplineSet
1091 1456 m 1,0,-1
 1157 1456 l 1,1,-1
 669 676 l 1,2,-1
 1092 676 l 1,3,-1
 1092 621 l 1,4,-1
 641 621 l 1,5,-1
 641 381 l 1,6,-1
 1092 381 l 1,7,-1
 1092 326 l 1,8,-1
 641 326 l 1,9,-1
 641 0 l 1,10,-1
 587 0 l 1,11,-1
 587 326 l 1,12,-1
 139 326 l 1,13,-1
 139 381 l 1,14,-1
 587 381 l 1,15,-1
 587 621 l 1,16,-1
 139 621 l 1,17,-1
 139 676 l 1,18,-1
 558 676 l 1,19,-1
 73 1456 l 1,20,-1
 138 1456 l 1,21,-1
 589 738 l 1,22,-1
 612 687 l 1,23,-1
 617 687 l 1,24,-1
 641 738 l 1,25,-1
 1091 1456 l 1,0,-1
EndSplineSet
EndChar
StartChar: brokenbar
Encoding: 166 166 102
Width: 1229
Flags: W
LayerCount: 2
Back
Fore
SplineSet
576 -270 m 1,0,-1
 576 482 l 1,1,-1
 630 482 l 1,2,-1
 630 -270 l 1,3,-1
 576 -270 l 1,0,-1
630 698 m 1,4,-1
 576 698 l 1,5,-1
 576 1456 l 1,6,-1
 630 1456 l 1,7,-1
 630 698 l 1,4,-1
EndSplineSet
EndChar
StartChar: section
Encoding: 167 167 103
Width: 1229
Flags: W
LayerCount: 2
Back
Fore
SplineSet
1102 431 m 0,0,1
 1101 364 1101 364 1074 316.5 c 128,-1,2
 1047 269 1047 269 1004 237.5 c 128,-1,3
 961 206 961 206 906 188 c 128,-1,4
 851 170 851 170 795 163 c 1,5,6
 847 143 847 143 895 116 c 128,-1,7
 943 89 943 89 979 52 c 128,-1,8
 1015 15 1015 15 1036.5 -34.5 c 128,-1,9
 1058 -84 1058 -84 1058 -149 c 0,10,11
 1058 -241 1058 -241 1018 -306.5 c 128,-1,12
 978 -372 978 -372 913.5 -414 c 128,-1,13
 849 -456 849 -456 769 -475.5 c 128,-1,14
 689 -495 689 -495 608 -495 c 0,15,16
 507 -495 507 -495 419.5 -467 c 128,-1,17
 332 -439 332 -439 267.5 -384.5 c 128,-1,18
 203 -330 203 -330 165 -249.5 c 128,-1,19
 127 -169 127 -169 124 -64 c 1,20,-1
 178 -62 l 1,21,22
 181 -155 181 -155 215.5 -226 c 128,-1,23
 250 -297 250 -297 307.5 -345 c 128,-1,24
 365 -393 365 -393 442 -417 c 128,-1,25
 519 -441 519 -441 608 -441 c 0,26,27
 676 -441 676 -441 746 -425 c 128,-1,28
 816 -409 816 -409 873 -374.5 c 128,-1,29
 930 -340 930 -340 966 -285 c 128,-1,30
 1002 -230 1002 -230 1003 -151 c 256,31,32
 1004 -72 1004 -72 967 -18.5 c 128,-1,33
 930 35 930 35 873 70.5 c 128,-1,34
 816 106 816 106 747.5 127.5 c 128,-1,35
 679 149 679 149 615 166 c 0,36,37
 564 179 564 179 508.5 194.5 c 128,-1,38
 453 210 453 210 399 231.5 c 128,-1,39
 345 253 345 253 296 281 c 128,-1,40
 247 309 247 309 210 347.5 c 128,-1,41
 173 386 173 386 151 436 c 128,-1,42
 129 486 129 486 130 551 c 0,43,44
 130 616 130 616 154 664 c 128,-1,45
 178 712 178 712 217 745 c 128,-1,46
 256 778 256 778 306.5 797.5 c 128,-1,47
 357 817 357 817 412 826 c 1,48,49
 363 846 363 846 320 873 c 128,-1,50
 277 900 277 900 244.5 936.5 c 128,-1,51
 212 973 212 973 193.5 1020 c 128,-1,52
 175 1067 175 1067 175 1129 c 0,53,54
 175 1220 175 1220 215.5 1286 c 128,-1,55
 256 1352 256 1352 321 1394 c 128,-1,56
 386 1436 386 1436 466 1456 c 128,-1,57
 546 1476 546 1476 626 1476 c 0,58,59
 727 1476 727 1476 809.5 1446.5 c 128,-1,60
 892 1417 892 1417 951 1361.5 c 128,-1,61
 1010 1306 1010 1306 1043.5 1226 c 128,-1,62
 1077 1146 1077 1146 1080 1045 c 1,63,-1
 1026 1045 l 1,64,65
 1023 1130 1023 1130 992.5 1199.5 c 128,-1,66
 962 1269 962 1269 908.5 1318.5 c 128,-1,67
 855 1368 855 1368 783 1395 c 128,-1,68
 711 1422 711 1422 626 1422 c 0,69,70
 580 1422 580 1422 533 1415.5 c 128,-1,71
 486 1409 486 1409 442 1394.5 c 128,-1,72
 398 1380 398 1380 359.5 1357.5 c 128,-1,73
 321 1335 321 1335 292 1302.5 c 128,-1,74
 263 1270 263 1270 246 1227.5 c 128,-1,75
 229 1185 229 1185 229 1132 c 0,76,77
 229 1078 229 1078 245.5 1036 c 128,-1,78
 262 994 262 994 291.5 961.5 c 128,-1,79
 321 929 321 929 360.5 905 c 128,-1,80
 400 881 400 881 444 862.5 c 128,-1,81
 488 844 488 844 534 830 c 128,-1,82
 580 816 580 816 624 804 c 0,83,84
 674 790 674 790 729 775 c 128,-1,85
 784 760 784 760 837 740 c 128,-1,86
 890 720 890 720 938.5 693.5 c 128,-1,87
 987 667 987 667 1023.5 630 c 128,-1,88
 1060 593 1060 593 1081 544 c 128,-1,89
 1102 495 1102 495 1102 431 c 0,0,1
598 766 m 0,90,91
 572 773 572 773 546.5 780.5 c 128,-1,92
 521 788 521 788 495 796 c 1,93,94
 439 792 439 792 384 778 c 128,-1,95
 329 764 329 764 284.5 736 c 128,-1,96
 240 708 240 708 212.5 663 c 128,-1,97
 185 618 185 618 184 553 c 0,98,99
 183 495 183 495 203.5 450.5 c 128,-1,100
 224 406 224 406 259 373 c 128,-1,101
 294 340 294 340 340 315.5 c 128,-1,102
 386 291 386 291 436 273 c 128,-1,103
 486 255 486 255 536.5 241 c 128,-1,104
 587 227 587 227 632 215 c 2,105,-1
 697 196 l 1,106,107
 751 198 751 198 812 209 c 128,-1,108
 873 220 873 220 925 246.5 c 128,-1,109
 977 273 977 273 1012 317 c 128,-1,110
 1047 361 1047 361 1048 428 c 0,111,112
 1049 485 1049 485 1028 528.5 c 128,-1,113
 1007 572 1007 572 971.5 606 c 128,-1,114
 936 640 936 640 889.5 664.5 c 128,-1,115
 843 689 843 689 792.5 708 c 128,-1,116
 742 727 742 727 691.5 740.5 c 128,-1,117
 641 754 641 754 598 766 c 0,90,91
EndSplineSet
EndChar
StartChar: dieresis
Encoding: 168 168 104
Width: 1229
Flags: W
LayerCount: 2
Back
Fore
SplineSet
334 1421 m 256,0,1
 334 1443 334 1443 350.5 1460 c 128,-1,2
 367 1477 367 1477 389 1477 c 256,3,4
 411 1477 411 1477 428 1460 c 128,-1,5
 445 1443 445 1443 445 1421 c 256,6,7
 445 1399 445 1399 428 1382.5 c 128,-1,8
 411 1366 411 1366 389 1366 c 256,9,10
 367 1366 367 1366 350.5 1382.5 c 128,-1,11
 334 1399 334 1399 334 1421 c 256,0,1
779 1421 m 256,12,13
 779 1443 779 1443 795.5 1460 c 128,-1,14
 812 1477 812 1477 834 1477 c 256,15,16
 856 1477 856 1477 873 1460 c 128,-1,17
 890 1443 890 1443 890 1421 c 256,18,19
 890 1399 890 1399 873 1382.5 c 128,-1,20
 856 1366 856 1366 834 1366 c 256,21,22
 812 1366 812 1366 795.5 1382.5 c 128,-1,23
 779 1399 779 1399 779 1421 c 256,12,13
EndSplineSet
EndChar
StartChar: copyright
Encoding: 169 169 105
Width: 1229
Flags: W
LayerCount: 2
Back
Fore
SplineSet
845 456 m 1,0,1
 846 418 846 418 835 376.5 c 128,-1,2
 824 335 824 335 797 300.5 c 128,-1,3
 770 266 770 266 725.5 244 c 128,-1,4
 681 222 681 222 617 222 c 0,5,6
 569 222 569 222 532 237.5 c 128,-1,7
 495 253 495 253 468 277.5 c 128,-1,8
 441 302 441 302 422.5 334 c 128,-1,9
 404 366 404 366 393 400 c 128,-1,10
 382 434 382 434 376.5 467.5 c 128,-1,11
 371 501 371 501 371 529 c 2,12,-1
 371 577 l 2,13,14
 371 605 371 605 376.5 637.5 c 128,-1,15
 382 670 382 670 393 703 c 128,-1,16
 404 736 404 736 422.5 767 c 128,-1,17
 441 798 441 798 468.5 822 c 128,-1,18
 496 846 496 846 532.5 860.5 c 128,-1,19
 569 875 569 875 617 875 c 0,20,21
 681 875 681 875 725.5 854.5 c 128,-1,22
 770 834 770 834 797 801.5 c 128,-1,23
 824 769 824 769 835.5 729 c 128,-1,24
 847 689 847 689 846 651 c 1,25,-1
 798 651 l 1,26,27
 794 678 794 678 786 708 c 128,-1,28
 778 738 778 738 759 763.5 c 128,-1,29
 740 789 740 789 706 805.5 c 128,-1,30
 672 822 672 822 617 822 c 0,31,32
 558 822 558 822 521 795.5 c 128,-1,33
 484 769 484 769 462.5 731 c 128,-1,34
 441 693 441 693 433 651 c 128,-1,35
 425 609 425 609 425 578 c 2,36,-1
 425 529 l 2,37,38
 426 497 426 497 433.5 454 c 128,-1,39
 441 411 441 411 462 372 c 128,-1,40
 483 333 483 333 520.5 305.5 c 128,-1,41
 558 278 558 278 617 277 c 0,42,43
 672 276 672 276 706 294 c 128,-1,44
 740 312 740 312 759 339 c 128,-1,45
 778 366 778 366 786 397.5 c 128,-1,46
 794 429 794 429 797 456 c 1,47,-1
 845 456 l 1,0,1
139 551 m 0,48,49
 139 495 139 495 151.5 435 c 128,-1,50
 164 375 164 375 189.5 317.5 c 128,-1,51
 215 260 215 260 254 208.5 c 128,-1,52
 293 157 293 157 347 118 c 128,-1,53
 401 79 401 79 469.5 56.5 c 128,-1,54
 538 34 538 34 623 34 c 0,55,56
 707 34 707 34 776 57 c 128,-1,57
 845 80 845 80 898.5 118.5 c 128,-1,58
 952 157 952 157 991 208.5 c 128,-1,59
 1030 260 1030 260 1055.5 317.5 c 128,-1,60
 1081 375 1081 375 1093.5 435 c 128,-1,61
 1106 495 1106 495 1106 551 c 0,62,63
 1106 605 1106 605 1093.5 663 c 128,-1,64
 1081 721 1081 721 1055.5 776.5 c 128,-1,65
 1030 832 1030 832 991 882 c 128,-1,66
 952 932 952 932 898 969.5 c 128,-1,67
 844 1007 844 1007 775.5 1029 c 128,-1,68
 707 1051 707 1051 623 1051 c 256,69,70
 539 1051 539 1051 470 1029 c 128,-1,71
 401 1007 401 1007 347.5 969.5 c 128,-1,72
 294 932 294 932 254.5 882 c 128,-1,73
 215 832 215 832 189.5 776.5 c 128,-1,74
 164 721 164 721 151.5 663 c 128,-1,75
 139 605 139 605 139 551 c 0,48,49
84 551 m 0,76,77
 84 613 84 613 98 678 c 128,-1,78
 112 743 112 743 141 805 c 128,-1,79
 170 867 170 867 214 921.5 c 128,-1,80
 258 976 258 976 318 1017 c 128,-1,81
 378 1058 378 1058 454 1082 c 128,-1,82
 530 1106 530 1106 623 1106 c 256,83,84
 716 1106 716 1106 792 1082 c 128,-1,85
 868 1058 868 1058 927.5 1017 c 128,-1,86
 987 976 987 976 1031 921.5 c 128,-1,87
 1075 867 1075 867 1104 805 c 128,-1,88
 1133 743 1133 743 1147 678 c 128,-1,89
 1161 613 1161 613 1161 551 c 0,90,91
 1161 487 1161 487 1147 419.5 c 128,-1,92
 1133 352 1133 352 1104 288.5 c 128,-1,93
 1075 225 1075 225 1031.5 168.5 c 128,-1,94
 988 112 988 112 928 70 c 128,-1,95
 868 28 868 28 792 3.5 c 128,-1,96
 716 -21 716 -21 623 -21 c 256,97,98
 530 -21 530 -21 454 3.5 c 128,-1,99
 378 28 378 28 318 70.5 c 128,-1,100
 258 113 258 113 214 169 c 128,-1,101
 170 225 170 225 141 288.5 c 128,-1,102
 112 352 112 352 98 419.5 c 128,-1,103
 84 487 84 487 84 551 c 0,76,77
EndSplineSet
EndChar
StartChar: ordfeminine
Encoding: 170 170 106
Width: 1229
Flags: W
LayerCount: 2
Back
Fore
SplineSet
852 705 m 1,0,1
 843 735 843 735 837.5 765.5 c 128,-1,2
 832 796 832 796 830 828 c 1,3,4
 788 765 788 765 721 728.5 c 128,-1,5
 654 692 654 692 578 691 c 0,6,7
 530 691 530 691 483.5 703 c 128,-1,8
 437 715 437 715 401 741 c 128,-1,9
 365 767 365 767 343 806.5 c 128,-1,10
 321 846 321 846 321 900 c 0,11,12
 321 967 321 967 352 1011 c 128,-1,13
 383 1055 383 1055 431 1082 c 128,-1,14
 479 1109 479 1109 537.5 1120 c 128,-1,15
 596 1131 596 1131 651 1132 c 2,16,-1
 829 1132 l 1,17,-1
 829 1201 l 2,18,19
 827 1249 827 1249 813.5 1289.5 c 128,-1,20
 800 1330 800 1330 774 1359.5 c 128,-1,21
 748 1389 748 1389 710 1405.5 c 128,-1,22
 672 1422 672 1422 621 1422 c 0,23,24
 575 1422 575 1422 532 1413 c 128,-1,25
 489 1404 489 1404 455 1383 c 128,-1,26
 421 1362 421 1362 399 1327.5 c 128,-1,27
 377 1293 377 1293 374 1243 c 1,28,-1
 319 1243 l 1,29,30
 323 1303 323 1303 350 1346.5 c 128,-1,31
 377 1390 377 1390 419 1419 c 128,-1,32
 461 1448 461 1448 513 1462 c 128,-1,33
 565 1476 565 1476 621 1476 c 0,34,35
 683 1476 683 1476 731 1455 c 128,-1,36
 779 1434 779 1434 812.5 1397.5 c 128,-1,37
 846 1361 846 1361 864 1310.5 c 128,-1,38
 882 1260 882 1260 884 1200 c 2,39,-1
 884 886 l 2,40,41
 884 839 884 839 891 794.5 c 128,-1,42
 898 750 898 750 911 705 c 1,43,-1
 852 705 l 1,0,1
579 746 m 0,44,45
 613 746 613 746 653 757.5 c 128,-1,46
 693 769 693 769 729 789.5 c 128,-1,47
 765 810 765 810 792 839.5 c 128,-1,48
 819 869 819 869 829 906 c 1,49,-1
 829 1078 l 1,50,-1
 652 1078 l 2,51,52
 608 1077 608 1077 559.5 1070.5 c 128,-1,53
 511 1064 511 1064 470 1045.5 c 128,-1,54
 429 1027 429 1027 402 993 c 128,-1,55
 375 959 375 959 375 904 c 0,56,57
 375 861 375 861 392.5 830.5 c 128,-1,58
 410 800 410 800 438.5 781.5 c 128,-1,59
 467 763 467 763 504 754.5 c 128,-1,60
 541 746 541 746 579 746 c 0,44,45
EndSplineSet
EndChar
StartChar: registered
Encoding: 174 174 109
Width: 1229
Flags: W
LayerCount: 2
Back
Fore
SplineSet
81 539 m 256,0,1
 81 603 81 603 95 669.5 c 128,-1,2
 109 736 109 736 138 798 c 128,-1,3
 167 860 167 860 211 914 c 128,-1,4
 255 968 255 968 315 1008.5 c 128,-1,5
 375 1049 375 1049 451 1072.5 c 128,-1,6
 527 1096 527 1096 620 1096 c 256,7,8
 713 1096 713 1096 789 1072.5 c 128,-1,9
 865 1049 865 1049 924.5 1008.5 c 128,-1,10
 984 968 984 968 1028 914 c 128,-1,11
 1072 860 1072 860 1101 798 c 128,-1,12
 1130 736 1130 736 1144 669.5 c 128,-1,13
 1158 603 1158 603 1158 539 c 256,14,15
 1158 475 1158 475 1144 408.5 c 128,-1,16
 1130 342 1130 342 1101 279.5 c 128,-1,17
 1072 217 1072 217 1028.5 162.5 c 128,-1,18
 985 108 985 108 925 67 c 128,-1,19
 865 26 865 26 789 2.5 c 128,-1,20
 713 -21 713 -21 620 -21 c 256,21,22
 527 -21 527 -21 451 2.5 c 128,-1,23
 375 26 375 26 315 67 c 128,-1,24
 255 108 255 108 211 162.5 c 128,-1,25
 167 217 167 217 138 279.5 c 128,-1,26
 109 342 109 342 95 408.5 c 128,-1,27
 81 475 81 475 81 539 c 256,0,1
135 539 m 256,28,29
 135 483 135 483 147.5 424 c 128,-1,30
 160 365 160 365 185.5 308.5 c 128,-1,31
 211 252 211 252 250.5 202.5 c 128,-1,32
 290 153 290 153 343.5 115.5 c 128,-1,33
 397 78 397 78 466 56 c 128,-1,34
 535 34 535 34 620 34 c 0,35,36
 747 34 747 34 838 81.5 c 128,-1,37
 929 129 929 129 988 203 c 128,-1,38
 1047 277 1047 277 1075 366 c 128,-1,39
 1103 455 1103 455 1103 539 c 0,40,41
 1103 595 1103 595 1090.5 654 c 128,-1,42
 1078 713 1078 713 1052.5 768.5 c 128,-1,43
 1027 824 1027 824 988 874 c 128,-1,44
 949 924 949 924 895 961 c 128,-1,45
 841 998 841 998 772.5 1019.5 c 128,-1,46
 704 1041 704 1041 620 1041 c 0,47,48
 535 1041 535 1041 466.5 1019.5 c 128,-1,49
 398 998 398 998 344 961 c 128,-1,50
 290 924 290 924 250.5 874 c 128,-1,51
 211 824 211 824 185.5 768.5 c 128,-1,52
 160 713 160 713 147.5 654 c 128,-1,53
 135 595 135 595 135 539 c 256,28,29
481 498 m 1,54,-1
 481 236 l 1,55,-1
 428 236 l 1,56,-1
 428 846 l 1,57,-1
 630 846 l 2,58,59
 730 844 730 844 784.5 796.5 c 128,-1,60
 839 749 839 749 838 668 c 0,61,62
 837 608 837 608 801 568.5 c 128,-1,63
 765 529 765 529 699 514 c 1,64,-1
 858 236 l 1,65,-1
 800 236 l 1,66,-1
 651 498 l 1,67,-1
 481 498 l 1,54,-1
481 550 m 1,68,-1
 640 550 l 2,69,70
 678 551 678 551 705.5 560.5 c 128,-1,71
 733 570 733 570 750 586.5 c 128,-1,72
 767 603 767 603 775.5 624 c 128,-1,73
 784 645 784 645 784 669 c 0,74,75
 785 725 785 725 746 756.5 c 128,-1,76
 707 788 707 788 630 791 c 2,77,-1
 481 791 l 1,78,-1
 481 550 l 1,68,-1
EndSplineSet
EndChar
StartChar: degree
Encoding: 176 176 111
Width: 1229
Flags: W
LayerCount: 2
Back
Fore
SplineSet
380 1236 m 256,0,1
 380 1284 380 1284 398.5 1327.5 c 128,-1,2
 417 1371 417 1371 449.5 1404 c 128,-1,3
 482 1437 482 1437 525 1456.5 c 128,-1,4
 568 1476 568 1476 616 1476 c 256,5,6
 664 1476 664 1476 706 1456 c 128,-1,7
 748 1436 748 1436 779.5 1403 c 128,-1,8
 811 1370 811 1370 829.5 1326.5 c 128,-1,9
 848 1283 848 1283 848 1236 c 0,10,11
 848 1188 848 1188 830 1145 c 128,-1,12
 812 1102 812 1102 780.5 1069.5 c 128,-1,13
 749 1037 749 1037 706.5 1018 c 128,-1,14
 664 999 664 999 616 999 c 256,15,16
 568 999 568 999 525 1018 c 128,-1,17
 482 1037 482 1037 449.5 1069 c 128,-1,18
 417 1101 417 1101 398.5 1144.5 c 128,-1,19
 380 1188 380 1188 380 1236 c 256,0,1
435 1236 m 256,20,21
 435 1198 435 1198 449 1165 c 128,-1,22
 463 1132 463 1132 487.5 1107.5 c 128,-1,23
 512 1083 512 1083 545 1069 c 128,-1,24
 578 1055 578 1055 616 1055 c 256,25,26
 654 1055 654 1055 686 1069 c 128,-1,27
 718 1083 718 1083 741.5 1108 c 128,-1,28
 765 1133 765 1133 778.5 1165.5 c 128,-1,29
 792 1198 792 1198 792 1236 c 0,30,31
 792 1273 792 1273 779 1307 c 128,-1,32
 766 1341 766 1341 742.5 1366 c 128,-1,33
 719 1391 719 1391 687 1406 c 128,-1,34
 655 1421 655 1421 616 1421 c 256,35,36
 577 1421 577 1421 544 1406.5 c 128,-1,37
 511 1392 511 1392 487 1366.5 c 128,-1,38
 463 1341 463 1341 449 1307.5 c 128,-1,39
 435 1274 435 1274 435 1236 c 256,20,21
EndSplineSet
EndChar
StartChar: plusminus
Encoding: 177 177 112
Width: 1229
Flags: W
LayerCount: 2
Back
Fore
SplineSet
653 805 m 1,0,-1
 1072 805 l 1,1,-1
 1072 751 l 1,2,-1
 653 751 l 1,3,-1
 653 289 l 1,4,-1
 599 289 l 1,5,-1
 599 751 l 1,6,-1
 156 751 l 1,7,-1
 156 805 l 1,8,-1
 599 805 l 1,9,-1
 599 1267 l 1,10,-1
 653 1267 l 1,11,-1
 653 805 l 1,0,-1
1047 -1 m 1,12,-1
 212 -1 l 1,13,-1
 212 53 l 1,14,-1
 1047 53 l 1,15,-1
 1047 -1 l 1,12,-1
EndSplineSet
EndChar
StartChar: twosuperior
Encoding: 178 178 113
Width: 1229
Flags: W
LayerCount: 2
Back
Fore
SplineSet
911 667 m 1,0,-1
 368 667 l 1,1,-1
 368 711 l 1,2,-1
 658 1006 l 2,3,4
 682 1030 682 1030 708.5 1057.5 c 128,-1,5
 735 1085 735 1085 758 1115.5 c 128,-1,6
 781 1146 781 1146 796 1179.5 c 128,-1,7
 811 1213 811 1213 811 1250 c 0,8,9
 811 1292 811 1292 795.5 1323.5 c 128,-1,10
 780 1355 780 1355 753 1376 c 128,-1,11
 726 1397 726 1397 690.5 1407.5 c 128,-1,12
 655 1418 655 1418 616 1418 c 0,13,14
 571 1418 571 1418 532.5 1405.5 c 128,-1,15
 494 1393 494 1393 465.5 1369 c 128,-1,16
 437 1345 437 1345 420 1310 c 128,-1,17
 403 1275 403 1275 400 1229 c 1,18,-1
 346 1229 l 1,19,20
 349 1284 349 1284 371 1328.5 c 128,-1,21
 393 1373 393 1373 429.5 1403.5 c 128,-1,22
 466 1434 466 1434 514 1450.5 c 128,-1,23
 562 1467 562 1467 616 1467 c 0,24,25
 665 1467 665 1467 710 1453 c 128,-1,26
 755 1439 755 1439 789.5 1412 c 128,-1,27
 824 1385 824 1385 844.5 1344.5 c 128,-1,28
 865 1304 865 1304 865 1251 c 0,29,30
 865 1208 865 1208 847 1168.5 c 128,-1,31
 829 1129 829 1129 802.5 1093 c 128,-1,32
 776 1057 776 1057 745 1024.5 c 128,-1,33
 714 992 714 992 686 964 c 2,34,-1
 435 716 l 1,35,-1
 911 716 l 1,36,-1
 911 667 l 1,0,-1
EndSplineSet
EndChar
StartChar: threesuperior
Encoding: 179 179 114
Width: 1229
Flags: W
LayerCount: 2
Back
Fore
SplineSet
541 1092 m 1,0,-1
 612 1092 l 2,1,2
 649 1093 649 1093 688 1101 c 128,-1,3
 727 1109 727 1109 759.5 1128 c 128,-1,4
 792 1147 792 1147 813.5 1177 c 128,-1,5
 835 1207 835 1207 835 1251 c 0,6,7
 835 1293 835 1293 818 1324.5 c 128,-1,8
 801 1356 801 1356 772.5 1376.5 c 128,-1,9
 744 1397 744 1397 707.5 1407 c 128,-1,10
 671 1417 671 1417 633 1417 c 0,11,12
 592 1417 592 1417 555.5 1406.5 c 128,-1,13
 519 1396 519 1396 490.5 1375 c 128,-1,14
 462 1354 462 1354 443.5 1322 c 128,-1,15
 425 1290 425 1290 421 1248 c 1,16,-1
 368 1248 l 1,17,18
 372 1301 372 1301 395 1341.5 c 128,-1,19
 418 1382 418 1382 454 1410 c 128,-1,20
 490 1438 490 1438 536 1452 c 128,-1,21
 582 1466 582 1466 633 1466 c 0,22,23
 682 1466 682 1466 728.5 1452.5 c 128,-1,24
 775 1439 775 1439 811 1411.5 c 128,-1,25
 847 1384 847 1384 868 1343 c 128,-1,26
 889 1302 889 1302 889 1248 c 0,27,28
 889 1212 889 1212 875.5 1183 c 128,-1,29
 862 1154 862 1154 839.5 1132 c 128,-1,30
 817 1110 817 1110 788 1094.5 c 128,-1,31
 759 1079 759 1079 727 1069 c 1,32,33
 763 1061 763 1061 796 1046 c 128,-1,34
 829 1031 829 1031 853.5 1007.5 c 128,-1,35
 878 984 878 984 893 952 c 128,-1,36
 908 920 908 920 908 877 c 0,37,38
 908 821 908 821 884.5 779.5 c 128,-1,39
 861 738 861 738 823 710 c 128,-1,40
 785 682 785 682 736.5 668.5 c 128,-1,41
 688 655 688 655 638 655 c 0,42,43
 584 655 584 655 534 669 c 128,-1,44
 484 683 484 683 445 711.5 c 128,-1,45
 406 740 406 740 380.5 783 c 128,-1,46
 355 826 355 826 351 883 c 1,47,-1
 405 883 l 1,48,49
 409 837 409 837 429.5 803.5 c 128,-1,50
 450 770 450 770 482.5 747.5 c 128,-1,51
 515 725 515 725 555 714 c 128,-1,52
 595 703 595 703 638 703 c 0,53,54
 678 703 678 703 717 713 c 128,-1,55
 756 723 756 723 786.5 744 c 128,-1,56
 817 765 817 765 835.5 798 c 128,-1,57
 854 831 854 831 854 876 c 0,58,59
 854 926 854 926 831.5 958 c 128,-1,60
 809 990 809 990 773.5 1008.5 c 128,-1,61
 738 1027 738 1027 695.5 1034.5 c 128,-1,62
 653 1042 653 1042 612 1043 c 2,63,-1
 541 1043 l 1,64,-1
 541 1092 l 1,0,-1
EndSplineSet
EndChar
StartChar: acute
Encoding: 180 180 115
Width: 1229
Flags: W
LayerCount: 2
Back
Fore
SplineSet
674 1516 m 1,0,-1
 740 1516 l 1,1,-1
 549 1250 l 1,2,-1
 490 1250 l 1,3,-1
 674 1516 l 1,0,-1
EndSplineSet
EndChar
StartChar: mu
Encoding: 181 181 116
Width: 1229
Flags: W
LayerCount: 2
Back
Fore
SplineSet
276 1082 m 1,0,-1
 276 440 l 2,1,2
 278 365 278 365 293 292 c 128,-1,3
 308 219 308 219 343.5 161.5 c 128,-1,4
 379 104 379 104 437 69 c 128,-1,5
 495 34 495 34 582 34 c 0,6,7
 679 34 679 34 747 65.5 c 128,-1,8
 815 97 815 97 858.5 151 c 128,-1,9
 902 205 902 205 924 278 c 128,-1,10
 946 351 946 351 952 434 c 1,11,-1
 952 1082 l 1,12,-1
 1006 1082 l 1,13,-1
 1006 0 l 1,14,-1
 955 0 l 1,15,-1
 952 220 l 1,16,17
 930 167 930 167 897.5 123.5 c 128,-1,18
 865 80 865 80 820.5 48 c 128,-1,19
 776 16 776 16 719 -2 c 128,-1,20
 662 -20 662 -20 591 -20 c 0,21,22
 538 -20 538 -20 491 -6.5 c 128,-1,23
 444 7 444 7 404 32 c 128,-1,24
 364 57 364 57 331.5 91.5 c 128,-1,25
 299 126 299 126 276 168 c 1,26,-1
 276 -416 l 1,27,-1
 224 -416 l 1,28,-1
 224 1082 l 1,29,-1
 276 1082 l 1,0,-1
EndSplineSet
EndChar
StartChar: paragraph
Encoding: 182 182 117
Width: 1229
Flags: W
LayerCount: 2
Back
Fore
SplineSet
871 0 m 1,0,-1
 871 520 l 1,1,-1
 746 520 l 2,2,3
 642 521 642 521 552 554 c 128,-1,4
 462 587 462 587 396 647.5 c 128,-1,5
 330 708 330 708 292.5 794 c 128,-1,6
 255 880 255 880 255 988 c 256,7,8
 255 1096 255 1096 293 1182 c 128,-1,9
 331 1268 331 1268 397 1328.5 c 128,-1,10
 463 1389 463 1389 552.5 1422 c 128,-1,11
 642 1455 642 1455 746 1456 c 2,12,-1
 925 1456 l 1,13,-1
 925 0 l 1,14,-1
 871 0 l 1,0,-1
EndSplineSet
EndChar
StartChar: periodcentered
Encoding: 183 183 118
Width: 1229
Flags: W
LayerCount: 2
Back
Fore
SplineSet
565 706 m 256,0,1
 565 728 565 728 581.5 745 c 128,-1,2
 598 762 598 762 620 762 c 256,3,4
 642 762 642 762 659 745 c 128,-1,5
 676 728 676 728 676 706 c 256,6,7
 676 684 676 684 659 667.5 c 128,-1,8
 642 651 642 651 620 651 c 256,9,10
 598 651 598 651 581.5 667.5 c 128,-1,11
 565 684 565 684 565 706 c 256,0,1
EndSplineSet
EndChar
StartChar: cedilla
Encoding: 184 184 119
Width: 1229
Flags: W
LayerCount: 2
Back
Fore
SplineSet
618 0 m 1,0,-1
 607 -76 l 1,1,2
 643 -81 643 -81 675.5 -93 c 128,-1,3
 708 -105 708 -105 732 -125.5 c 128,-1,4
 756 -146 756 -146 770 -175.5 c 128,-1,5
 784 -205 784 -205 784 -245 c 0,6,7
 784 -301 784 -301 756 -337 c 128,-1,8
 728 -373 728 -373 685.5 -394 c 128,-1,9
 643 -415 643 -415 593 -424.5 c 128,-1,10
 543 -434 543 -434 499 -435 c 1,11,-1
 492 -386 l 1,12,13
 525 -385 525 -385 565.5 -378.5 c 128,-1,14
 606 -372 606 -372 642 -356.5 c 128,-1,15
 678 -341 678 -341 703 -314 c 128,-1,16
 728 -287 728 -287 729 -245 c 0,17,18
 730 -206 730 -206 711.5 -183.5 c 128,-1,19
 693 -161 693 -161 664.5 -148 c 128,-1,20
 636 -135 636 -135 602.5 -130 c 128,-1,21
 569 -125 569 -125 540 -121 c 1,22,-1
 565 0 l 1,23,-1
 618 0 l 1,0,-1
EndSplineSet
EndChar
StartChar: onesuperior
Encoding: 185 185 120
Width: 1229
Flags: W
LayerCount: 2
Back
Fore
SplineSet
728 665 m 1,0,-1
 674 665 l 1,1,-1
 674 1387 l 1,2,-1
 426 1306 l 1,3,-1
 426 1359 l 1,4,-1
 719 1456 l 1,5,-1
 728 1456 l 1,6,-1
 728 665 l 1,0,-1
EndSplineSet
EndChar
StartChar: ordmasculine
Encoding: 186 186 121
Width: 1229
Flags: W
LayerCount: 2
Back
Fore
SplineSet
310 1141 m 2,0,1
 311 1208 311 1208 332 1269 c 128,-1,2
 353 1330 353 1330 391.5 1376 c 128,-1,3
 430 1422 430 1422 486 1449 c 128,-1,4
 542 1476 542 1476 614 1476 c 256,5,6
 686 1476 686 1476 742 1449 c 128,-1,7
 798 1422 798 1422 837 1376 c 128,-1,8
 876 1330 876 1330 897 1269 c 128,-1,9
 918 1208 918 1208 919 1141 c 2,10,-1
 919 1024 l 2,11,12
 918 957 918 957 897.5 896.5 c 128,-1,13
 877 836 877 836 838 790 c 128,-1,14
 799 744 799 744 743.5 717 c 128,-1,15
 688 690 688 690 616 690 c 256,16,17
 544 690 544 690 487.5 716.5 c 128,-1,18
 431 743 431 743 392 789 c 128,-1,19
 353 835 353 835 332 895.5 c 128,-1,20
 311 956 311 956 310 1024 c 2,21,-1
 310 1141 l 2,0,1
364 1024 m 2,22,23
 365 966 365 966 381.5 915 c 128,-1,24
 398 864 398 864 429.5 826 c 128,-1,25
 461 788 461 788 507.5 766 c 128,-1,26
 554 744 554 744 616 744 c 0,27,28
 677 744 677 744 723 766.5 c 128,-1,29
 769 789 769 789 800.5 827.5 c 128,-1,30
 832 866 832 866 848.5 916.5 c 128,-1,31
 865 967 865 967 866 1024 c 2,32,-1
 866 1141 l 2,33,34
 865 1198 865 1198 848.5 1249 c 128,-1,35
 832 1300 832 1300 800 1338.5 c 128,-1,36
 768 1377 768 1377 721.5 1399.5 c 128,-1,37
 675 1422 675 1422 614 1422 c 256,38,39
 553 1422 553 1422 507 1399 c 128,-1,40
 461 1376 461 1376 429.5 1337.5 c 128,-1,41
 398 1299 398 1299 381.5 1248 c 128,-1,42
 365 1197 365 1197 364 1141 c 2,43,-1
 364 1024 l 2,22,23
EndSplineSet
EndChar
StartChar: questiondown
Encoding: 191 191 126
Width: 1229
Flags: W
LayerCount: 2
Back
Fore
SplineSet
667 695 m 1,0,1
 666 646 666 646 660 607 c 128,-1,2
 654 568 654 568 639.5 534 c 128,-1,3
 625 500 625 500 601.5 468.5 c 128,-1,4
 578 437 578 437 542 403 c 0,5,6
 495 358 495 358 453.5 312.5 c 128,-1,7
 412 267 412 267 381 217 c 128,-1,8
 350 167 350 167 332.5 109.5 c 128,-1,9
 315 52 315 52 315 -17 c 0,10,11
 315 -85 315 -85 336 -142.5 c 128,-1,12
 357 -200 357 -200 395.5 -241 c 128,-1,13
 434 -282 434 -282 489 -305 c 128,-1,14
 544 -328 544 -328 614 -328 c 0,15,16
 683 -328 683 -328 737.5 -305 c 128,-1,17
 792 -282 792 -282 830 -241 c 128,-1,18
 868 -200 868 -200 889.5 -143.5 c 128,-1,19
 911 -87 911 -87 915 -21 c 1,20,-1
 969 -21 l 1,21,22
 966 -99 966 -99 940.5 -165 c 128,-1,23
 915 -231 915 -231 869.5 -279 c 128,-1,24
 824 -327 824 -327 759.5 -354 c 128,-1,25
 695 -381 695 -381 614 -381 c 0,26,27
 534 -381 534 -381 468.5 -353 c 128,-1,28
 403 -325 403 -325 357 -276 c 128,-1,29
 311 -227 311 -227 286 -160 c 128,-1,30
 261 -93 261 -93 261 -15 c 0,31,32
 261 57 261 57 281 121 c 128,-1,33
 301 185 301 185 335.5 241.5 c 128,-1,34
 370 298 370 298 416 348.5 c 128,-1,35
 462 399 462 399 514 445 c 0,36,37
 545 473 545 473 564.5 500 c 128,-1,38
 584 527 584 527 595 557 c 128,-1,39
 606 587 606 587 609.5 620.5 c 128,-1,40
 613 654 613 654 613 695 c 1,41,-1
 667 695 l 1,0,1
580 1046 m 256,42,43
 580 1068 580 1068 597 1084.5 c 128,-1,44
 614 1101 614 1101 636 1101 c 256,45,46
 658 1101 658 1101 674.5 1084.5 c 128,-1,47
 691 1068 691 1068 691 1046 c 256,48,49
 691 1024 691 1024 674.5 1007 c 128,-1,50
 658 990 658 990 636 990 c 256,51,52
 614 990 614 990 597 1007 c 128,-1,53
 580 1024 580 1024 580 1046 c 256,42,43
EndSplineSet
EndChar
StartChar: AE
Encoding: 198 198 127
Width: 1229
Flags: W
LayerCount: 2
Back
Fore
SplineSet
1148 0 m 1,0,-1
 672 0 l 1,1,-1
 661 425 l 1,2,-1
 289 425 l 1,3,-1
 131 0 l 1,4,-1
 78 0 l 1,5,-1
 622 1456 l 1,6,-1
 1110 1456 l 1,7,-1
 1110 1402 l 1,8,-1
 683 1402 l 1,9,-1
 699 786 l 1,10,-1
 1060 786 l 1,11,-1
 1060 732 l 1,12,-1
 701 732 l 1,13,-1
 718 54 l 1,14,-1
 1148 54 l 1,15,-1
 1148 0 l 1,0,-1
309 478 m 1,16,-1
 660 478 l 1,17,-1
 637 1358 l 1,18,-1
 309 478 l 1,16,-1
EndSplineSet
EndChar
StartChar: multiply
Encoding: 215 215 128
Width: 1229
Flags: W
LayerCount: 2
Back
Fore
SplineSet
212 36 m 1,0,-1
 596 429 l 1,1,-1
 239 793 l 1,2,-1
 278 832 l 1,3,-1
 634 468 l 1,4,-1
 991 832 l 1,5,-1
 1030 793 l 1,6,-1
 673 429 l 1,7,-1
 1058 36 l 1,8,-1
 1019 -1 l 1,9,-1
 635 390 l 1,10,-1
 251 -1 l 1,11,-1
 212 36 l 1,0,-1
EndSplineSet
EndChar
StartChar: Oslash
Encoding: 216 216 129
Width: 1229
Flags: W
LayerCount: 2
Back
Fore
SplineSet
1074 619 m 2,0,1
 1073 548 1073 548 1061 473 c 128,-1,2
 1049 398 1049 398 1025 327 c 128,-1,3
 1001 256 1001 256 963.5 193 c 128,-1,4
 926 130 926 130 874 82.5 c 128,-1,5
 822 35 822 35 754.5 7.5 c 128,-1,6
 687 -20 687 -20 604 -20 c 0,7,8
 513 -20 513 -20 441 12.5 c 128,-1,9
 369 45 369 45 315 100 c 1,10,-1
 213 -75 l 1,11,-1
 149 -75 l 1,12,-1
 277 144 l 1,13,14
 239 192 239 192 212 249.5 c 128,-1,15
 185 307 185 307 167 369 c 128,-1,16
 149 431 149 431 140 494.5 c 128,-1,17
 131 558 131 558 130 619 c 2,18,-1
 130 837 l 2,19,20
 131 908 131 908 143 983 c 128,-1,21
 155 1058 155 1058 179.5 1129 c 128,-1,22
 204 1200 204 1200 241.5 1263 c 128,-1,23
 279 1326 279 1326 331.5 1373.5 c 128,-1,24
 384 1421 384 1421 451 1448.5 c 128,-1,25
 518 1476 518 1476 602 1476 c 0,26,27
 660 1476 660 1476 711 1462 c 128,-1,28
 762 1448 762 1448 804.5 1423 c 128,-1,29
 847 1398 847 1398 882.5 1363.5 c 128,-1,30
 918 1329 918 1329 947 1287 c 1,31,-1
 1069 1495 l 1,32,-1
 1133 1495 l 1,33,-1
 979 1233 l 1,34,35
 1027 1143 1027 1143 1049.5 1039.5 c 128,-1,36
 1072 936 1072 936 1074 837 c 2,37,-1
 1074 619 l 2,0,1
185 619 m 2,38,39
 185 565 185 565 192.5 508.5 c 128,-1,40
 200 452 200 452 214.5 396.5 c 128,-1,41
 229 341 229 341 251.5 289 c 128,-1,42
 274 237 274 237 306 192 c 1,43,-1
 918 1237 l 1,44,45
 893 1277 893 1277 861 1311 c 128,-1,46
 829 1345 829 1345 790 1370 c 128,-1,47
 751 1395 751 1395 704 1408.5 c 128,-1,48
 657 1422 657 1422 602 1422 c 0,49,50
 526 1422 526 1422 466 1396.5 c 128,-1,51
 406 1371 406 1371 359.5 1327.5 c 128,-1,52
 313 1284 313 1284 280.5 1226 c 128,-1,53
 248 1168 248 1168 227 1103 c 128,-1,54
 206 1038 206 1038 196 970 c 128,-1,55
 186 902 186 902 185 839 c 2,56,-1
 185 619 l 2,38,39
1021 839 m 2,57,58
 1020 923 1020 923 1003 1012 c 128,-1,59
 986 1101 986 1101 948 1180 c 1,60,-1
 343 147 l 1,61,62
 391 95 391 95 455 64.5 c 128,-1,63
 519 34 519 34 604 34 c 0,64,65
 680 34 680 34 740.5 59.5 c 128,-1,66
 801 85 801 85 847 129 c 128,-1,67
 893 173 893 173 926 231 c 128,-1,68
 959 289 959 289 980 354 c 128,-1,69
 1001 419 1001 419 1010.5 487 c 128,-1,70
 1020 555 1020 555 1021 619 c 2,71,-1
 1021 839 l 2,57,58
EndSplineSet
EndChar
StartChar: Thorn
Encoding: 222 222 130
Width: 1229
Flags: W
LayerCount: 2
Back
Fore
SplineSet
268 1456 m 1,0,-1
 268 1143 l 1,1,-1
 639 1143 l 2,2,3
 730 1142 730 1142 812 1115 c 128,-1,4
 894 1088 894 1088 955.5 1036.5 c 128,-1,5
 1017 985 1017 985 1053 910 c 128,-1,6
 1089 835 1089 835 1089 738 c 256,7,8
 1089 641 1089 641 1053 566 c 128,-1,9
 1017 491 1017 491 955.5 440 c 128,-1,10
 894 389 894 389 812 362 c 128,-1,11
 730 335 730 335 639 334 c 2,12,-1
 268 334 l 1,13,-1
 268 0 l 1,14,-1
 214 0 l 1,15,-1
 214 1456 l 1,16,-1
 268 1456 l 1,0,-1
268 1089 m 1,17,-1
 268 388 l 1,18,-1
 639 388 l 2,19,20
 716 389 716 389 787.5 412 c 128,-1,21
 859 435 859 435 914 479.5 c 128,-1,22
 969 524 969 524 1002 588 c 128,-1,23
 1035 652 1035 652 1035 736 c 0,24,25
 1035 821 1035 821 1002.5 886 c 128,-1,26
 970 951 970 951 915.5 996 c 128,-1,27
 861 1041 861 1041 789.5 1064.5 c 128,-1,28
 718 1088 718 1088 639 1089 c 2,29,-1
 268 1089 l 1,17,-1
EndSplineSet
EndChar
StartChar: germandbls
Encoding: 223 223 131
Width: 1229
Flags: W
LayerCount: 2
Back
Fore
SplineSet
271 0 m 1,0,-1
 218 0 l 1,1,-1
 218 1143 l 2,2,3
 219 1217 219 1217 237 1287.5 c 128,-1,4
 255 1358 255 1358 294 1413 c 128,-1,5
 333 1468 333 1468 395.5 1501.5 c 128,-1,6
 458 1535 458 1535 548 1535 c 0,7,8
 611 1535 611 1535 667.5 1513.5 c 128,-1,9
 724 1492 724 1492 767 1455 c 128,-1,10
 810 1418 810 1418 836 1367.5 c 128,-1,11
 862 1317 862 1317 862 1257 c 0,12,13
 863 1199 863 1199 845 1147 c 128,-1,14
 827 1095 827 1095 806 1044 c 128,-1,15
 785 993 785 993 767 940 c 128,-1,16
 749 887 749 887 750 829 c 0,17,18
 751 777 751 777 774.5 736 c 128,-1,19
 798 695 798 695 833 658 c 128,-1,20
 868 621 868 621 909 584.5 c 128,-1,21
 950 548 950 548 984.5 505 c 128,-1,22
 1019 462 1019 462 1042 409 c 128,-1,23
 1065 356 1065 356 1065 287 c 256,24,25
 1065 218 1065 218 1037 161.5 c 128,-1,26
 1009 105 1009 105 962 64.5 c 128,-1,27
 915 24 915 24 854.5 1.5 c 128,-1,28
 794 -21 794 -21 728 -21 c 0,29,30
 690 -21 690 -21 649 -16 c 128,-1,31
 608 -11 608 -11 568 0 c 128,-1,32
 528 11 528 11 491 27.5 c 128,-1,33
 454 44 454 44 424 68 c 1,34,-1
 448 117 l 1,35,36
 505 77 505 77 578 54.5 c 128,-1,37
 651 32 651 32 721 32 c 0,38,39
 778 32 778 32 831 50.5 c 128,-1,40
 884 69 884 69 924 103.5 c 128,-1,41
 964 138 964 138 987.5 186.5 c 128,-1,42
 1011 235 1011 235 1011 296 c 0,43,44
 1011 356 1011 356 987.5 402 c 128,-1,45
 964 448 964 448 929.5 487 c 128,-1,46
 895 526 895 526 854.5 561.5 c 128,-1,47
 814 597 814 597 779.5 636.5 c 128,-1,48
 745 676 745 676 721.5 723 c 128,-1,49
 698 770 698 770 697 831 c 0,50,51
 696 889 696 889 712.5 941.5 c 128,-1,52
 729 994 729 994 749.5 1045.5 c 128,-1,53
 770 1097 770 1097 787 1149.5 c 128,-1,54
 804 1202 804 1202 803 1259 c 0,55,56
 802 1304 802 1304 782 1344 c 128,-1,57
 762 1384 762 1384 728.5 1414 c 128,-1,58
 695 1444 695 1444 651 1462 c 128,-1,59
 607 1480 607 1480 558 1481 c 0,60,61
 478 1482 478 1482 423.5 1453.5 c 128,-1,62
 369 1425 369 1425 335.5 1378 c 128,-1,63
 302 1331 302 1331 287 1269.5 c 128,-1,64
 272 1208 272 1208 271 1143 c 2,65,-1
 271 0 l 1,0,-1
EndSplineSet
Substitution2: "'smcp' Lowercase to Small Capitals lookup 0 subtable" Germandbls.smcp
EndChar
StartChar: ae
Encoding: 230 230 132
Width: 1229
Flags: W
LayerCount: 2
Back
Fore
SplineSet
893 -20 m 0,0,1
 833 -20 833 -20 786.5 -3.5 c 128,-1,2
 740 13 740 13 705 41 c 128,-1,3
 670 69 670 69 644.5 106 c 128,-1,4
 619 143 619 143 603 184 c 1,5,6
 583 140 583 140 554 103 c 128,-1,7
 525 66 525 66 487.5 38.5 c 128,-1,8
 450 11 450 11 406 -4.5 c 128,-1,9
 362 -20 362 -20 312 -20 c 0,10,11
 247 -20 247 -20 198.5 5 c 128,-1,12
 150 30 150 30 117.5 72 c 128,-1,13
 85 114 85 114 68.5 169 c 128,-1,14
 52 224 52 224 52 284 c 0,15,16
 52 356 52 356 73 418.5 c 128,-1,17
 94 481 94 481 133.5 527.5 c 128,-1,18
 173 574 173 574 231.5 601.5 c 128,-1,19
 290 629 290 629 365 630 c 2,20,-1
 564 630 l 1,21,-1
 563 820 l 2,22,23
 563 856 563 856 556.5 896 c 128,-1,24
 550 936 550 936 528 970 c 128,-1,25
 506 1004 506 1004 464.5 1026 c 128,-1,26
 423 1048 423 1048 353 1048 c 0,27,28
 296 1048 296 1048 252 1031 c 128,-1,29
 208 1014 208 1014 178.5 984.5 c 128,-1,30
 149 955 149 955 134.5 915.5 c 128,-1,31
 120 876 120 876 122 831 c 1,32,-1
 70 831 l 1,33,34
 68 892 68 892 88.5 942.5 c 128,-1,35
 109 993 109 993 147 1028 c 128,-1,36
 185 1063 185 1063 238 1082.5 c 128,-1,37
 291 1102 291 1102 353 1102 c 0,38,39
 419 1102 419 1102 464.5 1084.5 c 128,-1,40
 510 1067 510 1067 540 1038.5 c 128,-1,41
 570 1010 570 1010 586.5 972.5 c 128,-1,42
 603 935 603 935 610 896 c 1,43,44
 626 938 626 938 650.5 975.5 c 128,-1,45
 675 1013 675 1013 708 1041 c 128,-1,46
 741 1069 741 1069 784.5 1085.5 c 128,-1,47
 828 1102 828 1102 882 1102 c 0,48,49
 940 1102 940 1102 984 1085.5 c 128,-1,50
 1028 1069 1028 1069 1060.5 1040.5 c 128,-1,51
 1093 1012 1093 1012 1115 974 c 128,-1,52
 1137 936 1137 936 1150.5 893.5 c 128,-1,53
 1164 851 1164 851 1170 806.5 c 128,-1,54
 1176 762 1176 762 1176 720 c 2,55,-1
 1174 577 l 1,56,-1
 618 577 l 1,57,-1
 618 400 l 2,58,59
 618 366 618 366 623 325.5 c 128,-1,60
 628 285 628 285 639 244.5 c 128,-1,61
 650 204 650 204 669.5 166 c 128,-1,62
 689 128 689 128 719.5 99 c 128,-1,63
 750 70 750 70 792.5 52 c 128,-1,64
 835 34 835 34 893 34 c 0,65,66
 933 34 933 34 968 45 c 128,-1,67
 1003 56 1003 56 1032 74 c 128,-1,68
 1061 92 1061 92 1085 115.5 c 128,-1,69
 1109 139 1109 139 1129 164 c 1,70,-1
 1157 122 l 1,71,72
 1109 56 1109 56 1045.5 18 c 128,-1,73
 982 -20 982 -20 893 -20 c 0,0,1
566 228 m 1,74,75
 566 228 566 228 567 229 c 2,76,-1
 590 224 l 1,77,78
 576 269 576 269 570 314 c 128,-1,79
 564 359 564 359 564 400 c 2,80,-1
 564 575 l 1,81,-1
 366 575 l 2,82,83
 303 574 303 574 254.5 550 c 128,-1,84
 206 526 206 526 173 486 c 128,-1,85
 140 446 140 446 123 393 c 128,-1,86
 106 340 106 340 106 280 c 0,87,88
 106 232 106 232 118.5 187 c 128,-1,89
 131 142 131 142 156 107.5 c 128,-1,90
 181 73 181 73 219.5 52.5 c 128,-1,91
 258 32 258 32 311 32 c 0,92,93
 358 32 358 32 399.5 49 c 128,-1,94
 441 66 441 66 474 94 c 128,-1,95
 507 122 507 122 531 157 c 128,-1,96
 555 192 555 192 566 228 c 1,97,-1
 565 358 l 1,98,-1
 564 575 l 1,99,-1
 564 644 l 2,100,101
 565 700 565 700 575 766.5 c 128,-1,102
 585 833 585 833 610 896 c 1,103,104
 614 876 614 876 615 856.5 c 128,-1,105
 616 837 616 837 617 818 c 2,106,-1
 616 632 l 1,107,-1
 618 632 l 1,108,-1
 618 577 l 1,109,-1
 616 577 l 1,110,-1
 616 218 l 1,111,-1
 617 218 l 1,112,113
 614 209 614 209 610.5 200.5 c 128,-1,114
 607 192 607 192 603 184 c 1,115,-1
 596 204 l 1,116,-1
 567 183 l 1,117,-1
 566 228 l 1,74,75
618 632 m 1,118,-1
 1125 632 l 1,119,-1
 1123 724 l 2,120,121
 1120 774 1120 774 1110 831 c 128,-1,122
 1100 888 1100 888 1074 936 c 128,-1,123
 1048 984 1048 984 1002 1016 c 128,-1,124
 956 1048 956 1048 882 1048 c 0,125,126
 827 1048 827 1048 786 1028 c 128,-1,127
 745 1008 745 1008 716 975.5 c 128,-1,128
 687 943 687 943 668 901 c 128,-1,129
 649 859 649 859 638 814 c 128,-1,130
 627 769 627 769 622.5 724.5 c 128,-1,131
 618 680 618 680 618 644 c 2,132,-1
 618 632 l 1,118,-1
564 575 m 1,133,-1
 564 630 l 1,134,-1
 591 630 l 1,135,-1
 591 632 l 1,136,-1
 616 632 l 1,137,-1
 616 577 l 1,138,-1
 593 577 l 1,139,-1
 593 575 l 1,140,-1
 564 575 l 1,133,-1
616 218 m 1,141,-1
 590 224 l 1,142,-1
 596 204 l 1,143,-1
 616 218 l 1,141,-1
EndSplineSet
EndChar
StartChar: eth
Encoding: 240 240 133
Width: 1229
Flags: W
LayerCount: 2
Back
Fore
SplineSet
746 1301 m 1,0,1
 873 1173 873 1173 941 1003 c 128,-1,2
 1009 833 1009 833 1010 615 c 2,3,-1
 1010 535 l 2,4,5
 1009 471 1009 471 996.5 404.5 c 128,-1,6
 984 338 984 338 958.5 276.5 c 128,-1,7
 933 215 933 215 894.5 161 c 128,-1,8
 856 107 856 107 804 67 c 128,-1,9
 752 27 752 27 685.5 3.5 c 128,-1,10
 619 -20 619 -20 538 -20 c 0,11,12
 445 -20 445 -20 364.5 18 c 128,-1,13
 284 56 284 56 225.5 122 c 128,-1,14
 167 188 167 188 133 276 c 128,-1,15
 99 364 99 364 99 465 c 0,16,17
 99 568 99 568 130 657 c 128,-1,18
 161 746 161 746 221 812 c 128,-1,19
 281 878 281 878 368.5 915.5 c 128,-1,20
 456 953 456 953 569 953 c 0,21,22
 624 953 624 953 678 941.5 c 128,-1,23
 732 930 732 930 781 908 c 128,-1,24
 830 886 830 886 872 852.5 c 128,-1,25
 914 819 914 819 944 776 c 1,26,27
 921 931 921 931 858.5 1054 c 128,-1,28
 796 1177 796 1177 696 1274 c 1,29,-1
 461 1149 l 1,30,-1
 432 1197 l 1,31,-1
 652 1314 l 1,32,33
 574 1380 574 1380 479.5 1432.5 c 128,-1,34
 385 1485 385 1485 273 1527 c 1,35,-1
 293 1577 l 1,36,37
 415 1532 415 1532 517.5 1473.5 c 128,-1,38
 620 1415 620 1415 703 1341 c 1,39,-1
 928 1461 l 1,40,-1
 958 1413 l 1,41,-1
 746 1301 l 1,0,1
956 617 m 2,42,43
 956 650 956 650 953 682 c 1,44,45
 929 735 929 735 886 775 c 128,-1,46
 843 815 843 815 790.5 841.5 c 128,-1,47
 738 868 738 868 680 881.5 c 128,-1,48
 622 895 622 895 569 895 c 0,49,50
 469 895 469 895 392 861.5 c 128,-1,51
 315 828 315 828 262 770 c 128,-1,52
 209 712 209 712 182 633.5 c 128,-1,53
 155 555 155 555 155 465 c 256,54,55
 155 375 155 375 185 297 c 128,-1,56
 215 219 215 219 267 161.5 c 128,-1,57
 319 104 319 104 389.5 71 c 128,-1,58
 460 38 460 38 542 38 c 0,59,60
 615 38 615 38 674 59.5 c 128,-1,61
 733 81 733 81 779 117 c 128,-1,62
 825 153 825 153 858 201.5 c 128,-1,63
 891 250 891 250 912.5 305.5 c 128,-1,64
 934 361 934 361 944.5 419.5 c 128,-1,65
 955 478 955 478 956 535 c 2,66,-1
 956 617 l 2,42,43
EndSplineSet
Substitution2: "'smcp' Lowercase to Small Capitals lookup 0 subtable" Eth.smcp
EndChar
StartChar: divide
Encoding: 247 247 134
Width: 1229
Flags: W
LayerCount: 2
Back
Fore
SplineSet
1113 686 m 1,0,-1
 115 686 l 1,1,-1
 115 738 l 1,2,-1
 1113 738 l 1,3,-1
 1113 686 l 1,0,-1
571 1079 m 256,4,5
 571 1101 571 1101 587.5 1118 c 128,-1,6
 604 1135 604 1135 626 1135 c 256,7,8
 648 1135 648 1135 665 1118 c 128,-1,9
 682 1101 682 1101 682 1079 c 256,10,11
 682 1057 682 1057 665 1040.5 c 128,-1,12
 648 1024 648 1024 626 1024 c 256,13,14
 604 1024 604 1024 587.5 1040.5 c 128,-1,15
 571 1057 571 1057 571 1079 c 256,4,5
571 301 m 256,16,17
 571 323 571 323 587.5 340 c 128,-1,18
 604 357 604 357 626 357 c 256,19,20
 648 357 648 357 665 340 c 128,-1,21
 682 323 682 323 682 301 c 256,22,23
 682 279 682 279 665 262.5 c 128,-1,24
 648 246 648 246 626 246 c 256,25,26
 604 246 604 246 587.5 262.5 c 128,-1,27
 571 279 571 279 571 301 c 256,16,17
EndSplineSet
EndChar
StartChar: oslash
Encoding: 248 248 135
Width: 1229
Flags: W
LayerCount: 2
Back
Fore
SplineSet
141 562 m 2,0,1
 142 666 142 666 174 763.5 c 128,-1,2
 206 861 206 861 266 936 c 128,-1,3
 326 1011 326 1011 413.5 1056.5 c 128,-1,4
 501 1102 501 1102 614 1102 c 0,5,6
 713 1102 713 1102 796 1065 c 1,7,-1
 871 1219 l 1,8,-1
 934 1219 l 1,9,-1
 846 1039 l 1,10,11
 904 1004 904 1004 949 952.5 c 128,-1,12
 994 901 994 901 1024.5 838.5 c 128,-1,13
 1055 776 1055 776 1071 705.5 c 128,-1,14
 1087 635 1087 635 1088 562 c 2,15,-1
 1088 520 l 2,16,17
 1087 416 1087 416 1055.5 318.5 c 128,-1,18
 1024 221 1024 221 964 146 c 128,-1,19
 904 71 904 71 816.5 25.5 c 128,-1,20
 729 -20 729 -20 616 -20 c 0,21,22
 543 -20 543 -20 481 -1 c 128,-1,23
 419 18 419 18 367 53 c 1,24,-1
 271 -145 l 1,25,-1
 208 -145 l 1,26,-1
 321 88 l 1,27,28
 277 126 277 126 244 174.5 c 128,-1,29
 211 223 211 223 188.5 278.5 c 128,-1,30
 166 334 166 334 154 395.5 c 128,-1,31
 142 457 142 457 141 520 c 2,32,-1
 141 562 l 2,0,1
1034 562 m 2,33,34
 1033 625 1033 625 1019 687.5 c 128,-1,35
 1005 750 1005 750 978 806 c 128,-1,36
 951 862 951 862 912 908.5 c 128,-1,37
 873 955 873 955 822 988 c 1,38,-1
 392 103 l 1,39,40
 438 70 438 70 494 52 c 128,-1,41
 550 34 550 34 616 34 c 0,42,43
 716 34 716 34 793 75.5 c 128,-1,44
 870 117 870 117 923.5 185.5 c 128,-1,45
 977 254 977 254 1005 341 c 128,-1,46
 1033 428 1033 428 1034 520 c 2,47,-1
 1034 562 l 2,33,34
195 520 m 2,48,49
 197 411 197 411 235.5 310.5 c 128,-1,50
 274 210 274 210 347 140 c 1,51,-1
 772 1015 l 1,52,53
 737 1031 737 1031 697.5 1039.5 c 128,-1,54
 658 1048 658 1048 614 1048 c 0,55,56
 515 1048 515 1048 437.5 1006 c 128,-1,57
 360 964 360 964 306.5 896 c 128,-1,58
 253 828 253 828 224.5 740.5 c 128,-1,59
 196 653 196 653 195 562 c 2,60,-1
 195 520 l 2,48,49
EndSplineSet
EndChar
StartChar: thorn
Encoding: 254 254 136
Width: 1229
Flags: W
LayerCount: 2
Back
Fore
SplineSet
1049 531 m 2,0,1
 1048 468 1048 468 1038.5 402.5 c 128,-1,2
 1029 337 1029 337 1008.5 276 c 128,-1,3
 988 215 988 215 956.5 161 c 128,-1,4
 925 107 925 107 880 67 c 128,-1,5
 835 27 835 27 776 3.5 c 128,-1,6
 717 -20 717 -20 643 -20 c 0,7,8
 591 -20 591 -20 538 -8 c 128,-1,9
 485 4 485 4 436.5 27 c 128,-1,10
 388 50 388 50 346 83.5 c 128,-1,11
 304 117 304 117 274 161 c 1,12,-1
 274 -416 l 1,13,-1
 220 -416 l 1,14,-1
 220 1536 l 1,15,-1
 274 1536 l 1,16,-1
 274 898 l 1,17,18
 302 944 302 944 342.5 982 c 128,-1,19
 383 1020 383 1020 431 1046.5 c 128,-1,20
 479 1073 479 1073 532.5 1087.5 c 128,-1,21
 586 1102 586 1102 641 1102 c 0,22,23
 716 1102 716 1102 775.5 1079 c 128,-1,24
 835 1056 835 1056 880 1016.5 c 128,-1,25
 925 977 925 977 957 923 c 128,-1,26
 989 869 989 869 1009 808 c 128,-1,27
 1029 747 1029 747 1038.5 681.5 c 128,-1,28
 1048 616 1048 616 1049 552 c 2,29,-1
 1049 531 l 2,0,1
994 552 m 2,30,31
 994 608 994 608 986 666.5 c 128,-1,32
 978 725 978 725 961.5 780 c 128,-1,33
 945 835 945 835 918 883.5 c 128,-1,34
 891 932 891 932 852 968.5 c 128,-1,35
 813 1005 813 1005 761 1026.5 c 128,-1,36
 709 1048 709 1048 642 1048 c 0,37,38
 579 1048 579 1048 521.5 1029 c 128,-1,39
 464 1010 464 1010 415.5 976 c 128,-1,40
 367 942 367 942 330.5 894 c 128,-1,41
 294 846 294 846 274 788 c 1,42,-1
 274 258 l 1,43,44
 295 204 295 204 334 162 c 128,-1,45
 373 120 373 120 423 91.5 c 128,-1,46
 473 63 473 63 530 48.5 c 128,-1,47
 587 34 587 34 644 34 c 0,48,49
 711 34 711 34 762.5 55.5 c 128,-1,50
 814 77 814 77 853 114 c 128,-1,51
 892 151 892 151 918.5 200 c 128,-1,52
 945 249 945 249 961.5 304 c 128,-1,53
 978 359 978 359 985.5 417 c 128,-1,54
 993 475 993 475 994 531 c 2,55,-1
 994 552 l 2,30,31
EndSplineSet
EndChar
StartChar: Aogonek
Encoding: 260 260 549
Width: 1229
Flags: W
LayerCount: 2
Back
Fore
SplineSet
661 1456 m 1,0,-1
 1138 0 l 1,1,2
 1109 -22 1109 -22 1074.5 -48 c 128,-1,3
 1040 -74 1040 -74 1010 -104 c 128,-1,4
 980 -134 980 -134 959.5 -169.5 c 128,-1,5
 939 -205 939 -205 939 -246 c 0,6,7
 940 -291 940 -291 967 -315.5 c 128,-1,8
 994 -340 994 -340 1039 -341 c 0,9,10
 1071 -342 1071 -342 1100 -331 c 128,-1,11
 1129 -320 1129 -320 1155 -303 c 1,12,-1
 1171 -351 l 1,13,14
 1141 -372 1141 -372 1108.5 -383.5 c 128,-1,15
 1076 -395 1076 -395 1039 -395 c 0,16,17
 1005 -395 1005 -395 976.5 -384.5 c 128,-1,18
 948 -374 948 -374 928 -355 c 128,-1,19
 908 -336 908 -336 896.5 -308.5 c 128,-1,20
 885 -281 885 -281 885 -246 c 0,21,22
 885 -206 885 -206 904 -169.5 c 128,-1,23
 923 -133 923 -133 952 -101.5 c 128,-1,24
 981 -70 981 -70 1015 -42.5 c 128,-1,25
 1049 -15 1049 -15 1079 8 c 1,26,-1
 939 435 l 1,27,-1
 320 435 l 1,28,-1
 178 0 l 1,29,-1
 122 0 l 1,30,-1
 599 1456 l 1,31,-1
 661 1456 l 1,0,-1
337 489 m 1,32,-1
 922 489 l 1,33,-1
 630 1382 l 1,34,-1
 337 489 l 1,32,-1
EndSplineSet
Substitution2: "'smcp' Lowercase to Small Capitals lookup 0 subtable" Aogonek.smcp
EndChar
StartChar: aogonek
Encoding: 261 261 550
Width: 1229
Flags: W
LayerCount: 2
Back
Fore
SplineSet
984 19 m 1,0,1
 975 65 975 65 972 110.5 c 128,-1,2
 969 156 969 156 968 202 c 1,3,4
 933 147 933 147 884.5 105 c 128,-1,5
 836 63 836 63 779 35.5 c 128,-1,6
 722 8 722 8 658 -6 c 128,-1,7
 594 -20 594 -20 527 -20 c 0,8,9
 462 -20 462 -20 400 -0.5 c 128,-1,10
 338 19 338 19 290 56 c 128,-1,11
 242 93 242 93 213 148 c 128,-1,12
 184 203 184 203 184 274 c 0,13,14
 184 371 184 371 231 434.5 c 128,-1,15
 278 498 278 498 352.5 535.5 c 128,-1,16
 427 573 427 573 519 588 c 128,-1,17
 611 603 611 603 701 604 c 2,18,-1
 968 604 l 1,19,-1
 968 762 l 2,20,21
 966 835 966 835 938 889 c 128,-1,22
 910 943 910 943 863.5 978 c 128,-1,23
 817 1013 817 1013 755.5 1030.5 c 128,-1,24
 694 1048 694 1048 626 1048 c 0,25,26
 566 1048 566 1048 503.5 1032 c 128,-1,27
 441 1016 441 1016 390 983.5 c 128,-1,28
 339 951 339 951 305 901.5 c 128,-1,29
 271 852 271 852 268 784 c 1,30,-1
 214 786 l 1,31,32
 218 865 218 865 256.5 924 c 128,-1,33
 295 983 295 983 353.5 1022.5 c 128,-1,34
 412 1062 412 1062 483.5 1082 c 128,-1,35
 555 1102 555 1102 626 1102 c 0,36,37
 706 1102 706 1102 777.5 1080.5 c 128,-1,38
 849 1059 849 1059 903 1016.5 c 128,-1,39
 957 974 957 974 988.5 909.5 c 128,-1,40
 1020 845 1020 845 1022 760 c 2,41,-1
 1022 218 l 2,42,43
 1023 163 1023 163 1032 113 c 128,-1,44
 1041 63 1041 63 1051 9 c 2,45,-1
 1052 0 l 1,46,-1
 1029 0 l 1,47,48
 1000 -22 1000 -22 965.5 -48 c 128,-1,49
 931 -74 931 -74 901 -104 c 128,-1,50
 871 -134 871 -134 850.5 -169.5 c 128,-1,51
 830 -205 830 -205 830 -246 c 0,52,53
 831 -291 831 -291 858 -315.5 c 128,-1,54
 885 -340 885 -340 930 -341 c 0,55,56
 962 -342 962 -342 991 -331 c 128,-1,57
 1020 -320 1020 -320 1046 -303 c 1,58,-1
 1062 -351 l 1,59,60
 1032 -372 1032 -372 999.5 -383.5 c 128,-1,61
 967 -395 967 -395 930 -395 c 0,62,63
 896 -395 896 -395 867.5 -384.5 c 128,-1,64
 839 -374 839 -374 819 -355 c 128,-1,65
 799 -336 799 -336 787.5 -308.5 c 128,-1,66
 776 -281 776 -281 776 -246 c 0,67,68
 776 -203 776 -203 797.5 -164.5 c 128,-1,69
 819 -126 819 -126 850 -93 c 128,-1,70
 881 -60 881 -60 917.5 -32 c 128,-1,71
 954 -4 954 -4 984 19 c 1,0,1
527 33 m 0,72,73
 598 32 598 32 664.5 48.5 c 128,-1,74
 731 65 731 65 788.5 98 c 128,-1,75
 846 131 846 131 892 180 c 128,-1,76
 938 229 938 229 968 293 c 1,77,-1
 968 549 l 1,78,-1
 704 549 l 2,79,80
 653 548 653 548 598.5 543 c 128,-1,81
 544 538 544 538 492 526 c 128,-1,82
 440 514 440 514 393.5 494 c 128,-1,83
 347 474 347 474 312.5 443 c 128,-1,84
 278 412 278 412 257.5 369.5 c 128,-1,85
 237 327 237 327 238 270 c 0,86,87
 238 213 238 213 264 168.5 c 128,-1,88
 290 124 290 124 331.5 94 c 128,-1,89
 373 64 373 64 424.5 48.5 c 128,-1,90
 476 33 476 33 527 33 c 0,72,73
EndSplineSet
Substitution2: "'smcp' Lowercase to Small Capitals lookup 0 subtable" Aogonek.smcp
EndChar
StartChar: Dcroat
Encoding: 272 272 485
Width: 1259
Flags: W
LayerCount: 2
Back
Fore
SplineSet
230 0 m 1,0,-1
 230 713 l 1,1,-1
 -45 713 l 1,2,-1
 -45 767 l 1,3,-1
 230 767 l 1,4,-1
 230 1456 l 1,5,-1
 596 1456 l 2,6,7
 681 1454 681 1454 754.5 1428 c 128,-1,8
 828 1402 828 1402 888 1357.5 c 128,-1,9
 948 1313 948 1313 994.5 1252.5 c 128,-1,10
 1041 1192 1041 1192 1073 1122 c 128,-1,11
 1105 1052 1105 1052 1122 974 c 128,-1,12
 1139 896 1139 896 1140 817 c 2,13,-1
 1140 639 l 2,14,15
 1139 560 1139 560 1122 482 c 128,-1,16
 1105 404 1105 404 1073 334 c 128,-1,17
 1041 264 1041 264 994.5 203.5 c 128,-1,18
 948 143 948 143 888 98.5 c 128,-1,19
 828 54 828 54 754.5 28 c 128,-1,20
 681 2 681 2 596 0 c 2,21,-1
 230 0 l 1,0,-1
542 713 m 1,22,-1
 282 713 l 1,23,-1
 282 54 l 1,24,-1
 596 54 l 2,25,26
 674 56 674 56 740 80 c 128,-1,27
 806 104 806 104 860 145 c 128,-1,28
 914 186 914 186 956 241.5 c 128,-1,29
 998 297 998 297 1026.5 361.5 c 128,-1,30
 1055 426 1055 426 1070 496.5 c 128,-1,31
 1085 567 1085 567 1086 639 c 2,32,-1
 1086 820 l 2,33,34
 1084 927 1084 927 1051 1030 c 128,-1,35
 1018 1133 1018 1133 955.5 1215 c 128,-1,36
 893 1297 893 1297 802.5 1348 c 128,-1,37
 712 1399 712 1399 596 1402 c 2,38,-1
 282 1402 l 1,39,-1
 282 767 l 1,40,-1
 542 767 l 1,41,-1
 542 713 l 1,22,-1
EndSplineSet
Substitution2: "'smcp' Lowercase to Small Capitals lookup 0 subtable" Dcroat.smcp
EndChar
StartChar: dcroat
Encoding: 273 273 995
Width: 1259
Flags: W
LayerCount: 2
Back
Fore
SplineSet
1190 1281 m 1,0,-1
 1005 1281 l 1,1,-1
 1005 0 l 1,2,-1
 951 0 l 1,3,-1
 951 162 l 1,4,5
 923 118 923 118 883.5 84.5 c 128,-1,6
 844 51 844 51 797.5 27.5 c 128,-1,7
 751 4 751 4 701 -8 c 128,-1,8
 651 -20 651 -20 602 -20 c 0,9,10
 524 -20 524 -20 462 3.5 c 128,-1,11
 400 27 400 27 353 67 c 128,-1,12
 306 107 306 107 272.5 161 c 128,-1,13
 239 215 239 215 218 276 c 128,-1,14
 197 337 197 337 186.5 402.5 c 128,-1,15
 176 468 176 468 176 531 c 2,16,-1
 176 552 l 2,17,18
 176 616 176 616 186 681.5 c 128,-1,19
 196 747 196 747 217.5 808 c 128,-1,20
 239 869 239 869 272.5 923 c 128,-1,21
 306 977 306 977 353 1016.5 c 128,-1,22
 400 1056 400 1056 462.5 1079 c 128,-1,23
 525 1102 525 1102 604 1102 c 0,24,25
 657 1102 657 1102 707.5 1087.5 c 128,-1,26
 758 1073 758 1073 803 1046 c 128,-1,27
 848 1019 848 1019 886 981 c 128,-1,28
 924 943 924 943 951 896 c 1,29,-1
 951 1281 l 1,30,-1
 603 1281 l 1,31,-1
 603 1335 l 1,32,-1
 951 1335 l 1,33,-1
 951 1536 l 1,34,-1
 1005 1536 l 1,35,-1
 1005 1335 l 1,36,-1
 1190 1335 l 1,37,-1
 1190 1281 l 1,0,-1
232 531 m 2,38,39
 232 476 232 476 240 417.5 c 128,-1,40
 248 359 248 359 265.5 304 c 128,-1,41
 283 249 283 249 311.5 200 c 128,-1,42
 340 151 340 151 380.5 114 c 128,-1,43
 421 77 421 77 475.5 55.5 c 128,-1,44
 530 34 530 34 601 34 c 0,45,46
 654 34 654 34 707.5 48.5 c 128,-1,47
 761 63 761 63 808 91 c 128,-1,48
 855 119 855 119 892.5 160.5 c 128,-1,49
 930 202 930 202 951 255 c 1,50,-1
 951 790 l 1,51,52
 932 848 932 848 897 895.5 c 128,-1,53
 862 943 862 943 816.5 977 c 128,-1,54
 771 1011 771 1011 716.5 1029.5 c 128,-1,55
 662 1048 662 1048 603 1048 c 0,56,57
 532 1048 532 1048 477.5 1026.5 c 128,-1,58
 423 1005 423 1005 381.5 968.5 c 128,-1,59
 340 932 340 932 312 883 c 128,-1,60
 284 834 284 834 266.5 779 c 128,-1,61
 249 724 249 724 240.5 665.5 c 128,-1,62
 232 607 232 607 232 552 c 2,63,-1
 232 531 l 2,38,39
EndSplineSet
Substitution2: "'smcp' Lowercase to Small Capitals lookup 0 subtable" Dcroat.smcp
EndChar
StartChar: Eogonek
Encoding: 280 280 567
Width: 1229
Flags: W
LayerCount: 2
Back
Fore
SplineSet
950 722 m 1,0,-1
 273 722 l 1,1,-1
 273 54 l 1,2,-1
 1045 54 l 1,3,-1
 1045 0 l 1,4,-1
 914 0 l 1,5,6
 885 -22 885 -22 850.5 -48 c 128,-1,7
 816 -74 816 -74 786 -104 c 128,-1,8
 756 -134 756 -134 735.5 -169.5 c 128,-1,9
 715 -205 715 -205 715 -246 c 0,10,11
 716 -291 716 -291 743 -315.5 c 128,-1,12
 770 -340 770 -340 815 -341 c 0,13,14
 847 -342 847 -342 876 -331 c 128,-1,15
 905 -320 905 -320 931 -303 c 1,16,-1
 947 -351 l 1,17,18
 917 -372 917 -372 884.5 -383.5 c 128,-1,19
 852 -395 852 -395 815 -395 c 0,20,21
 781 -395 781 -395 752.5 -384.5 c 128,-1,22
 724 -374 724 -374 704 -355 c 128,-1,23
 684 -336 684 -336 672.5 -308.5 c 128,-1,24
 661 -281 661 -281 661 -246 c 0,25,26
 661 -207 661 -207 678.5 -172 c 128,-1,27
 696 -137 696 -137 723 -106.5 c 128,-1,28
 750 -76 750 -76 782 -49.5 c 128,-1,29
 814 -23 814 -23 844 0 c 1,30,-1
 220 0 l 1,31,-1
 220 1456 l 1,32,-1
 1045 1456 l 1,33,-1
 1045 1402 l 1,34,-1
 273 1402 l 1,35,-1
 273 776 l 1,36,-1
 950 776 l 1,37,-1
 950 722 l 1,0,-1
EndSplineSet
Substitution2: "'smcp' Lowercase to Small Capitals lookup 0 subtable" Eogonek.smcp
EndChar
StartChar: eogonek
Encoding: 281 281 568
Width: 1229
Flags: W
LayerCount: 2
Back
Fore
SplineSet
658 -20 m 0,0,1
 547 -20 547 -20 456.5 24.5 c 128,-1,2
 366 69 366 69 301.5 144 c 128,-1,3
 237 219 237 219 201 316 c 128,-1,4
 165 413 165 413 164 518 c 2,5,-1
 164 562 l 2,6,7
 165 663 165 663 198 760 c 128,-1,8
 231 857 231 857 292 933 c 128,-1,9
 353 1009 353 1009 440 1055.5 c 128,-1,10
 527 1102 527 1102 637 1102 c 0,11,12
 735 1102 735 1102 814 1065 c 128,-1,13
 893 1028 893 1028 948.5 964.5 c 128,-1,14
 1004 901 1004 901 1034 817 c 128,-1,15
 1064 733 1064 733 1065 640 c 2,16,-1
 1065 577 l 1,17,-1
 218 577 l 1,18,-1
 218 562 l 1,19,-1
 218 518 l 2,20,21
 219 425 219 425 251 337.5 c 128,-1,22
 283 250 283 250 340.5 182.5 c 128,-1,23
 398 115 398 115 478.5 74.5 c 128,-1,24
 559 34 559 34 658 33 c 0,25,26
 759 32 759 32 843.5 68 c 128,-1,27
 928 104 928 104 993 182 c 1,28,-1
 1032 155 l 1,29,30
 983 92 983 92 917 50 c 1,31,-1
 918 50 l 1,32,33
 889 28 889 28 854.5 2 c 128,-1,34
 820 -24 820 -24 790 -54 c 128,-1,35
 760 -84 760 -84 739.5 -119.5 c 128,-1,36
 719 -155 719 -155 719 -196 c 0,37,38
 720 -241 720 -241 747 -265.5 c 128,-1,39
 774 -290 774 -290 819 -291 c 0,40,41
 851 -292 851 -292 880 -281 c 128,-1,42
 909 -270 909 -270 935 -253 c 1,43,-1
 951 -301 l 1,44,45
 921 -322 921 -322 888.5 -333.5 c 128,-1,46
 856 -345 856 -345 819 -345 c 0,47,48
 785 -345 785 -345 756.5 -334.5 c 128,-1,49
 728 -324 728 -324 708 -305 c 128,-1,50
 688 -286 688 -286 676.5 -258.5 c 128,-1,51
 665 -231 665 -231 665 -196 c 0,52,53
 665 -168 665 -168 674 -142.5 c 128,-1,54
 683 -117 683 -117 698.5 -93.5 c 128,-1,55
 714 -70 714 -70 734.5 -48.5 c 128,-1,56
 755 -27 755 -27 777 -7 c 1,57,58
 748 -13 748 -13 718.5 -16.5 c 128,-1,59
 689 -20 689 -20 658 -20 c 0,0,1
637 1048 m 0,60,61
 547 1048 547 1048 475 1013.5 c 128,-1,62
 403 979 403 979 350.5 921 c 128,-1,63
 298 863 298 863 265.5 787.5 c 128,-1,64
 233 712 233 712 223 631 c 1,65,-1
 1011 631 l 1,66,-1
 1011 644 l 2,67,68
 1011 724 1011 724 983.5 797 c 128,-1,69
 956 870 956 870 907 926 c 128,-1,70
 858 982 858 982 789 1015 c 128,-1,71
 720 1048 720 1048 637 1048 c 0,60,61
EndSplineSet
Substitution2: "'smcp' Lowercase to Small Capitals lookup 0 subtable" Eogonek.smcp
EndChar
StartChar: Hbar
Encoding: 294 294 137
Width: 1229
Flags: W
LayerCount: 2
Back
Fore
SplineSet
1045 1081 m 1,0,-1
 1195 1081 l 1,1,-1
 1195 1028 l 1,2,-1
 1045 1028 l 1,3,-1
 1045 0 l 1,4,-1
 994 0 l 1,5,-1
 994 722 l 1,6,-1
 222 722 l 1,7,-1
 222 0 l 1,8,-1
 171 0 l 1,9,-1
 171 1028 l 1,10,-1
 48 1028 l 1,11,-1
 48 1081 l 1,12,-1
 171 1081 l 1,13,-1
 171 1456 l 1,14,-1
 222 1456 l 1,15,-1
 222 1081 l 1,16,-1
 994 1081 l 1,17,-1
 994 1456 l 1,18,-1
 1045 1456 l 1,19,-1
 1045 1081 l 1,0,-1
222 776 m 1,20,-1
 994 776 l 1,21,-1
 994 1028 l 1,22,-1
 222 1028 l 1,23,-1
 222 776 l 1,20,-1
EndSplineSet
EndChar
StartChar: hbar
Encoding: 295 295 487
Width: 1259
Flags: W
LayerCount: 2
Back
Fore
SplineSet
608 1281 m 1,0,-1
 298 1281 l 1,1,-1
 298 821 l 1,2,3
 324 881 324 881 364 932.5 c 128,-1,4
 404 984 404 984 455.5 1021.5 c 128,-1,5
 507 1059 507 1059 569 1080.5 c 128,-1,6
 631 1102 631 1102 702 1102 c 0,7,8
 795 1102 795 1102 863 1072 c 128,-1,9
 931 1042 931 1042 975 988.5 c 128,-1,10
 1019 935 1019 935 1040.5 861 c 128,-1,11
 1062 787 1062 787 1063 700 c 2,12,-1
 1063 0 l 1,13,-1
 1008 0 l 1,14,-1
 1008 700 l 2,15,16
 1007 776 1007 776 989.5 840.5 c 128,-1,17
 972 905 972 905 934.5 951.5 c 128,-1,18
 897 998 897 998 839 1024 c 128,-1,19
 781 1050 781 1050 699 1049 c 0,20,21
 626 1048 626 1048 560 1020 c 128,-1,22
 494 992 494 992 440.5 945 c 128,-1,23
 387 898 387 898 350 835 c 128,-1,24
 313 772 313 772 298 702 c 1,25,-1
 298 0 l 1,26,-1
 243 0 l 1,27,-1
 243 1281 l 1,28,-1
 21 1281 l 1,29,-1
 21 1335 l 1,30,-1
 243 1335 l 1,31,-1
 243 1536 l 1,32,-1
 298 1536 l 1,33,-1
 298 1335 l 1,34,-1
 608 1335 l 1,35,-1
 608 1281 l 1,0,-1
EndSplineSet
EndChar
StartChar: Iogonek
Encoding: 302 302 587
Width: 1229
Flags: W
LayerCount: 2
Back
Fore
SplineSet
212 1456 m 1,0,-1
 1018 1456 l 1,1,-1
 1018 1400 l 1,2,-1
 637 1400 l 1,3,-1
 637 54 l 1,4,-1
 1018 54 l 1,5,-1
 1018 0 l 1,6,-1
 724 0 l 1,7,8
 695 -22 695 -22 660.5 -48 c 128,-1,9
 626 -74 626 -74 596 -104 c 128,-1,10
 566 -134 566 -134 545.5 -169.5 c 128,-1,11
 525 -205 525 -205 525 -246 c 0,12,13
 526 -291 526 -291 553 -315.5 c 128,-1,14
 580 -340 580 -340 625 -341 c 0,15,16
 657 -342 657 -342 686 -331 c 128,-1,17
 715 -320 715 -320 741 -303 c 1,18,-1
 757 -351 l 1,19,20
 727 -372 727 -372 694.5 -383.5 c 128,-1,21
 662 -395 662 -395 625 -395 c 0,22,23
 591 -395 591 -395 562.5 -384.5 c 128,-1,24
 534 -374 534 -374 514 -355 c 128,-1,25
 494 -336 494 -336 482.5 -308.5 c 128,-1,26
 471 -281 471 -281 471 -246 c 0,27,28
 471 -207 471 -207 488.5 -172 c 128,-1,29
 506 -137 506 -137 533 -106.5 c 128,-1,30
 560 -76 560 -76 592 -49.5 c 128,-1,31
 624 -23 624 -23 654 0 c 1,32,-1
 212 0 l 1,33,-1
 212 54 l 1,34,-1
 579 54 l 1,35,-1
 579 1400 l 1,36,-1
 212 1400 l 1,37,-1
 212 1456 l 1,0,-1
EndSplineSet
Substitution2: "'smcp' Lowercase to Small Capitals lookup 0 subtable" Iogonek.smcp
EndChar
StartChar: iogonek
Encoding: 303 303 588
Width: 1229
Flags: W
LayerCount: 2
Back
Fore
SplineSet
239 1082 m 1,0,-1
 690 1082 l 1,1,-1
 690 54 l 1,2,-1
 1074 54 l 1,3,-1
 1074 0 l 1,4,-1
 690 0 l 1,5,6
 661 -22 661 -22 626.5 -48 c 128,-1,7
 592 -74 592 -74 562 -104 c 128,-1,8
 532 -134 532 -134 511.5 -169.5 c 128,-1,9
 491 -205 491 -205 491 -246 c 0,10,11
 492 -291 492 -291 519 -315.5 c 128,-1,12
 546 -340 546 -340 591 -341 c 0,13,14
 623 -342 623 -342 652 -331 c 128,-1,15
 681 -320 681 -320 707 -303 c 1,16,-1
 723 -351 l 1,17,18
 693 -372 693 -372 660.5 -383.5 c 128,-1,19
 628 -395 628 -395 591 -395 c 0,20,21
 557 -395 557 -395 528.5 -384.5 c 128,-1,22
 500 -374 500 -374 480 -355 c 128,-1,23
 460 -336 460 -336 448.5 -308.5 c 128,-1,24
 437 -281 437 -281 437 -246 c 0,25,26
 437 -207 437 -207 454.5 -172 c 128,-1,27
 472 -137 472 -137 499 -106.5 c 128,-1,28
 526 -76 526 -76 558 -49.5 c 128,-1,29
 590 -23 590 -23 620 0 c 1,30,-1
 239 0 l 1,31,-1
 239 54 l 1,32,-1
 636 54 l 1,33,-1
 636 1028 l 1,34,-1
 239 1028 l 1,35,-1
 239 1082 l 1,0,-1
590 1390 m 0,36,37
 590 1404 590 1404 593 1417.5 c 128,-1,38
 596 1431 596 1431 604 1441.5 c 128,-1,39
 612 1452 612 1452 625.5 1458 c 128,-1,40
 639 1464 639 1464 660 1464 c 0,41,42
 680 1464 680 1464 693.5 1458 c 128,-1,43
 707 1452 707 1452 715.5 1441.5 c 128,-1,44
 724 1431 724 1431 727.5 1417.5 c 128,-1,45
 731 1404 731 1404 731 1390 c 0,46,47
 731 1363 731 1363 715.5 1341 c 128,-1,48
 700 1319 700 1319 660 1319 c 0,49,50
 619 1319 619 1319 604.5 1341 c 128,-1,51
 590 1363 590 1363 590 1390 c 0,36,37
EndSplineSet
Substitution2: "'smcp' Lowercase to Small Capitals lookup 0 subtable" Iogonek.smcp
EndChar
StartChar: dotlessi
Encoding: 305 305 138
Width: 1229
Flags: W
LayerCount: 2
Back
Fore
SplineSet
239 1082 m 1,0,-1
 690 1082 l 1,1,-1
 690 54 l 1,2,-1
 1074 54 l 1,3,-1
 1074 0 l 1,4,-1
 239 0 l 1,5,-1
 239 54 l 1,6,-1
 636 54 l 1,7,-1
 636 1028 l 1,8,-1
 239 1028 l 1,9,-1
 239 1082 l 1,0,-1
EndSplineSet
EndChar
StartChar: IJ
Encoding: 306 306 139
Width: 1229
Flags: W
LayerCount: 2
Back
Fore
SplineSet
203 0 m 1,0,-1
 149 0 l 1,1,-1
 149 1456 l 1,2,-1
 203 1456 l 1,3,-1
 203 0 l 1,0,-1
1036 1456 m 1,4,-1
 1090 1456 l 1,5,-1
 1090 341 l 2,6,7
 1090 256 1090 256 1069 189 c 128,-1,8
 1048 122 1048 122 1005 76 c 128,-1,9
 962 30 962 30 896.5 5.5 c 128,-1,10
 831 -19 831 -19 741 -19 c 0,11,12
 664 -19 664 -19 600.5 1.5 c 128,-1,13
 537 22 537 22 491.5 64 c 128,-1,14
 446 106 446 106 421 170 c 128,-1,15
 396 234 396 234 396 321 c 1,16,-1
 450 321 l 1,17,18
 450 170 450 170 525.5 102.5 c 128,-1,19
 601 35 601 35 741 35 c 0,20,21
 830 35 830 35 887 58.5 c 128,-1,22
 944 82 944 82 977 123.5 c 128,-1,23
 1010 165 1010 165 1023 220.5 c 128,-1,24
 1036 276 1036 276 1036 341 c 2,25,-1
 1036 1456 l 1,4,-1
EndSplineSet
EndChar
StartChar: ij
Encoding: 307 307 140
Width: 1229
Flags: W
LayerCount: 2
Back
Fore
SplineSet
677 1082 m 1,0,-1
 1000 1082 l 1,1,-1
 1000 6 l 2,2,3
 1000 -93 1000 -93 973.5 -175 c 128,-1,4
 947 -257 947 -257 896 -315 c 128,-1,5
 845 -373 845 -373 772 -405 c 128,-1,6
 699 -437 699 -437 606 -437 c 0,7,8
 577 -437 577 -437 552 -436 c 128,-1,9
 527 -435 527 -435 503 -433 c 128,-1,10
 479 -431 479 -431 454.5 -428 c 128,-1,11
 430 -425 430 -425 402 -420 c 1,12,-1
 406 -372 l 1,13,14
 425 -375 425 -375 452.5 -377.5 c 128,-1,15
 480 -380 480 -380 507.5 -381.5 c 128,-1,16
 535 -383 535 -383 560.5 -383.5 c 128,-1,17
 586 -384 586 -384 602 -384 c 0,18,19
 670 -384 670 -384 732.5 -363.5 c 128,-1,20
 795 -343 795 -343 842.5 -296.5 c 128,-1,21
 890 -250 890 -250 918 -176 c 128,-1,22
 946 -102 946 -102 946 6 c 2,23,-1
 946 1028 l 1,24,-1
 677 1028 l 1,25,-1
 677 1082 l 1,0,-1
130 1082 m 1,26,-1
 463 1082 l 1,27,-1
 463 54 l 1,28,-1
 673 54 l 1,29,-1
 673 0 l 1,30,-1
 130 0 l 1,31,-1
 130 54 l 1,32,-1
 409 54 l 1,33,-1
 409 1028 l 1,34,-1
 130 1028 l 1,35,-1
 130 1082 l 1,26,-1
893 1391 m 0,36,37
 893 1405 893 1405 896 1418.5 c 128,-1,38
 899 1432 899 1432 907.5 1442.5 c 128,-1,39
 916 1453 916 1453 929.5 1459 c 128,-1,40
 943 1465 943 1465 964 1465 c 0,41,42
 984 1465 984 1465 997.5 1459 c 128,-1,43
 1011 1453 1011 1453 1019.5 1442.5 c 128,-1,44
 1028 1432 1028 1432 1031.5 1418.5 c 128,-1,45
 1035 1405 1035 1405 1035 1391 c 0,46,47
 1035 1364 1035 1364 1019.5 1342 c 128,-1,48
 1004 1320 1004 1320 964 1320 c 0,49,50
 922 1320 922 1320 907.5 1342 c 128,-1,51
 893 1364 893 1364 893 1391 c 0,36,37
363 1390 m 0,52,53
 363 1404 363 1404 366 1417.5 c 128,-1,54
 369 1431 369 1431 377 1441.5 c 128,-1,55
 385 1452 385 1452 398.5 1458 c 128,-1,56
 412 1464 412 1464 433 1464 c 0,57,58
 453 1464 453 1464 466.5 1458 c 128,-1,59
 480 1452 480 1452 488.5 1441.5 c 128,-1,60
 497 1431 497 1431 500.5 1417.5 c 128,-1,61
 504 1404 504 1404 504 1390 c 0,62,63
 504 1363 504 1363 488.5 1341 c 128,-1,64
 473 1319 473 1319 433 1319 c 0,65,66
 392 1319 392 1319 377.5 1341 c 128,-1,67
 363 1363 363 1363 363 1390 c 0,52,53
EndSplineSet
EndChar
StartChar: kgreenlandic
Encoding: 312 312 141
Width: 1229
Flags: W
LayerCount: 2
Back
Fore
SplineSet
489 533 m 1,0,-1
 296 354 l 1,1,-1
 296 0 l 1,2,-1
 241 0 l 1,3,-1
 241 1082 l 1,4,-1
 296 1082 l 1,5,-1
 296 423 l 1,6,-1
 479 602 l 1,7,-1
 978 1082 l 1,8,-1
 1048 1082 l 1,9,-1
 529 572 l 1,10,-1
 1112 0 l 1,11,-1
 1038 0 l 1,12,-1
 489 533 l 1,0,-1
EndSplineSet
EndChar
StartChar: Lslash
Encoding: 321 321 142
Width: 1229
Flags: W
LayerCount: 2
Back
Fore
SplineSet
337 801 m 1,0,-1
 663 902 l 1,1,-1
 663 845 l 1,2,-1
 337 744 l 1,3,-1
 337 54 l 1,4,-1
 1107 54 l 1,5,-1
 1107 0 l 1,6,-1
 282 0 l 1,7,-1
 282 727 l 1,8,-1
 57 658 l 1,9,-1
 57 715 l 1,10,-1
 282 784 l 1,11,-1
 282 1456 l 1,12,-1
 337 1456 l 1,13,-1
 337 801 l 1,0,-1
EndSplineSet
EndChar
StartChar: lslash
Encoding: 322 322 143
Width: 1229
Flags: W
LayerCount: 2
Back
Fore
SplineSet
694 842 m 1,0,-1
 1091 930 l 1,1,-1
 1085 871 l 1,2,-1
 694 785 l 1,3,-1
 694 54 l 1,4,-1
 1074 54 l 1,5,-1
 1074 0 l 1,6,-1
 239 0 l 1,7,-1
 239 54 l 1,8,-1
 640 54 l 1,9,-1
 640 773 l 1,10,-1
 238 684 l 1,11,-1
 244 743 l 1,12,-1
 640 830 l 1,13,-1
 640 1482 l 1,14,-1
 239 1482 l 1,15,-1
 239 1536 l 1,16,-1
 694 1536 l 1,17,-1
 694 842 l 1,0,-1
EndSplineSet
EndChar
StartChar: Eng
Encoding: 330 330 144
Width: 1229
Flags: W
LayerCount: 2
Back
Fore
SplineSet
1035 1456 m 1,0,-1
 1036 -89 l 2,1,2
 1036 -145 1036 -145 1025.5 -206 c 128,-1,3
 1015 -267 1015 -267 989 -318.5 c 128,-1,4
 963 -370 963 -370 918.5 -403.5 c 128,-1,5
 874 -437 874 -437 805 -437 c 0,6,7
 780 -437 780 -437 757 -431 c 128,-1,8
 734 -425 734 -425 711 -417 c 1,9,-1
 723 -365 l 1,10,11
 743 -372 743 -372 763 -377.5 c 128,-1,12
 783 -383 783 -383 805 -383 c 0,13,14
 861 -383 861 -383 895.5 -353.5 c 128,-1,15
 930 -324 930 -324 949 -279.5 c 128,-1,16
 968 -235 968 -235 975 -183.5 c 128,-1,17
 982 -132 982 -132 983 -89 c 2,18,-1
 983 7 l 1,19,-1
 244 1347 l 1,20,-1
 244 0 l 1,21,-1
 193 0 l 1,22,-1
 193 1456 l 1,23,-1
 244 1456 l 1,24,-1
 244 1449 l 1,25,-1
 983 111 l 1,26,-1
 984 1456 l 1,27,-1
 1035 1456 l 1,0,-1
EndSplineSet
EndChar
StartChar: eng
Encoding: 331 331 145
Width: 1229
Flags: W
LayerCount: 2
Back
Fore
SplineSet
278 843 m 1,0,1
 301 899 301 899 335 946.5 c 128,-1,2
 369 994 369 994 415 1028.5 c 128,-1,3
 461 1063 461 1063 520.5 1082.5 c 128,-1,4
 580 1102 580 1102 654 1102 c 0,5,6
 756 1102 756 1102 824 1063 c 128,-1,7
 892 1024 892 1024 932.5 959 c 128,-1,8
 973 894 973 894 990 810 c 128,-1,9
 1007 726 1007 726 1008 637 c 2,10,-1
 1008 -89 l 2,11,12
 1007 -157 1007 -157 990.5 -219.5 c 128,-1,13
 974 -282 974 -282 939.5 -330 c 128,-1,14
 905 -378 905 -378 851.5 -407.5 c 128,-1,15
 798 -437 798 -437 723 -437 c 0,16,17
 689 -437 689 -437 656 -431.5 c 128,-1,18
 623 -426 623 -426 590 -417 c 1,19,-1
 603 -365 l 1,20,21
 632 -373 632 -373 662 -378.5 c 128,-1,22
 692 -384 692 -384 723 -384 c 0,23,24
 786 -384 786 -384 829.5 -358.5 c 128,-1,25
 873 -333 873 -333 900.5 -291.5 c 128,-1,26
 928 -250 928 -250 940.5 -197 c 128,-1,27
 953 -144 953 -144 954 -89 c 2,28,-1
 954 639 l 2,29,30
 953 714 953 714 939.5 787.5 c 128,-1,31
 926 861 926 861 892 919 c 128,-1,32
 858 977 858 977 800.5 1012.5 c 128,-1,33
 743 1048 743 1048 655 1048 c 0,34,35
 566 1048 566 1048 500 1016.5 c 128,-1,36
 434 985 434 985 388.5 932.5 c 128,-1,37
 343 880 343 880 316 811 c 128,-1,38
 289 742 289 742 278 666 c 1,39,-1
 278 0 l 1,40,-1
 224 0 l 1,41,-1
 224 1082 l 1,42,-1
 272 1082 l 1,43,-1
 278 851 l 1,44,-1
 278 843 l 1,0,1
EndSplineSet
EndChar
StartChar: OE
Encoding: 338 338 146
Width: 1229
Flags: W
LayerCount: 2
Back
Fore
SplineSet
1193 0 m 1,0,-1
 704 0 l 1,1,2
 648 -6 648 -6 593.5 -9 c 128,-1,3
 539 -12 539 -12 482 -11 c 0,4,5
 399 -10 399 -10 337 19 c 128,-1,6
 275 48 275 48 229.5 95 c 128,-1,7
 184 142 184 142 154 203 c 128,-1,8
 124 264 124 264 106.5 329 c 128,-1,9
 89 394 89 394 81 458 c 128,-1,10
 73 522 73 522 73 576 c 2,11,-1
 73 880 l 2,12,13
 74 934 74 934 81 998 c 128,-1,14
 88 1062 88 1062 106 1126.5 c 128,-1,15
 124 1191 124 1191 153.5 1252 c 128,-1,16
 183 1313 183 1313 228 1360 c 128,-1,17
 273 1407 273 1407 335 1436 c 128,-1,18
 397 1465 397 1465 480 1466 c 0,19,20
 537 1467 537 1467 592.5 1465 c 128,-1,21
 648 1463 648 1463 704 1456 c 1,22,-1
 1193 1456 l 1,23,-1
 1193 1402 l 1,24,-1
 709 1402 l 1,25,-1
 709 776 l 1,26,-1
 1127 776 l 1,27,-1
 1127 722 l 1,28,-1
 709 722 l 1,29,-1
 709 54 l 1,30,-1
 1193 54 l 1,31,-1
 1193 0 l 1,0,-1
482 43 m 0,32,33
 527 42 527 42 571.5 42 c 128,-1,34
 616 42 616 42 661 47 c 1,35,-1
 661 1408 l 1,36,37
 616 1413 616 1413 571.5 1413 c 128,-1,38
 527 1413 527 1413 481 1412 c 0,39,40
 406 1411 406 1411 350 1384 c 128,-1,41
 294 1357 294 1357 255 1313.5 c 128,-1,42
 216 1270 216 1270 191 1214.5 c 128,-1,43
 166 1159 166 1159 152 1100.5 c 128,-1,44
 138 1042 138 1042 132.5 985 c 128,-1,45
 127 928 127 928 127 882 c 2,46,-1
 127 576 l 2,47,48
 127 530 127 530 132.5 473 c 128,-1,49
 138 416 138 416 152.5 357 c 128,-1,50
 167 298 167 298 192 242 c 128,-1,51
 217 186 217 186 256.5 142.5 c 128,-1,52
 296 99 296 99 351.5 71.5 c 128,-1,53
 407 44 407 44 482 43 c 0,32,33
EndSplineSet
EndChar
StartChar: oe
Encoding: 339 339 147
Width: 1229
Flags: W
LayerCount: 2
Back
Fore
SplineSet
8 622 m 2,0,1
 8 668 8 668 15 721.5 c 128,-1,2
 22 775 22 775 36.5 828.5 c 128,-1,3
 51 882 51 882 75.5 931 c 128,-1,4
 100 980 100 980 136.5 1018 c 128,-1,5
 173 1056 173 1056 223 1079 c 128,-1,6
 273 1102 273 1102 338 1102 c 0,7,8
 405 1102 405 1102 455 1078.5 c 128,-1,9
 505 1055 505 1055 542 1016 c 128,-1,10
 579 977 579 977 603 926 c 128,-1,11
 627 875 627 875 642 821 c 1,12,13
 656 875 656 875 679.5 925.5 c 128,-1,14
 703 976 703 976 738 1015 c 128,-1,15
 773 1054 773 1054 821 1078 c 128,-1,16
 869 1102 869 1102 932 1102 c 0,17,18
 1016 1102 1016 1102 1071.5 1065.5 c 128,-1,19
 1127 1029 1127 1029 1160 971 c 128,-1,20
 1193 913 1193 913 1207 841.5 c 128,-1,21
 1221 770 1221 770 1222 700 c 2,22,-1
 1219 557 l 1,23,-1
 670 557 l 1,24,-1
 670 440 l 2,25,26
 670 404 670 404 675.5 360.5 c 128,-1,27
 681 317 681 317 693 272 c 128,-1,28
 705 227 705 227 724.5 184.5 c 128,-1,29
 744 142 744 142 773 109 c 128,-1,30
 802 76 802 76 842 55.5 c 128,-1,31
 882 35 882 35 934 34 c 0,32,33
 977 33 977 33 1012.5 43.5 c 128,-1,34
 1048 54 1048 54 1077.5 70 c 128,-1,35
 1107 86 1107 86 1131.5 106 c 128,-1,36
 1156 126 1156 126 1177 145 c 1,37,-1
 1204 103 l 1,38,39
 1178 78 1178 78 1149 55.5 c 128,-1,40
 1120 33 1120 33 1086.5 16 c 128,-1,41
 1053 -1 1053 -1 1015 -10.5 c 128,-1,42
 977 -20 977 -20 934 -20 c 0,43,44
 872 -19 872 -19 824 4.5 c 128,-1,45
 776 28 776 28 740.5 67 c 128,-1,46
 705 106 705 106 681 155.5 c 128,-1,47
 657 205 657 205 642 258 c 1,48,49
 627 204 627 204 603 154 c 128,-1,50
 579 104 579 104 542.5 65 c 128,-1,51
 506 26 506 26 456 3 c 128,-1,52
 406 -20 406 -20 340 -20 c 0,53,54
 275 -20 275 -20 225 2.5 c 128,-1,55
 175 25 175 25 138 63 c 128,-1,56
 101 101 101 101 76.5 150.5 c 128,-1,57
 52 200 52 200 37 253.5 c 128,-1,58
 22 307 22 307 15 360.5 c 128,-1,59
 8 414 8 414 8 460 c 2,60,-1
 8 622 l 2,0,1
62 460 m 2,61,62
 62 422 62 422 67 375.5 c 128,-1,63
 72 329 72 329 84 281.5 c 128,-1,64
 96 234 96 234 116.5 189.5 c 128,-1,65
 137 145 137 145 168 110.5 c 128,-1,66
 199 76 199 76 241 55 c 128,-1,67
 283 34 283 34 340 34 c 0,68,69
 396 34 396 34 438 55 c 128,-1,70
 480 76 480 76 510.5 110.5 c 128,-1,71
 541 145 541 145 561 190 c 128,-1,72
 581 235 581 235 593 282 c 128,-1,73
 605 329 605 329 610 375.5 c 128,-1,74
 615 422 615 422 615 460 c 2,75,-1
 615 622 l 2,76,77
 615 660 615 660 609.5 706.5 c 128,-1,78
 604 753 604 753 592 800 c 128,-1,79
 580 847 580 847 559.5 892 c 128,-1,80
 539 937 539 937 508.5 971.5 c 128,-1,81
 478 1006 478 1006 436 1027 c 128,-1,82
 394 1048 394 1048 338 1048 c 0,83,84
 283 1048 283 1048 241 1027 c 128,-1,85
 199 1006 199 1006 168 971 c 128,-1,86
 137 936 137 936 117 891.5 c 128,-1,87
 97 847 97 847 85 799.5 c 128,-1,88
 73 752 73 752 67.5 706 c 128,-1,89
 62 660 62 660 62 622 c 2,90,-1
 62 460 l 2,61,62
670 611 m 1,91,-1
 1171 611 l 1,92,-1
 1172 692 l 2,93,94
 1174 740 1174 740 1163 801.5 c 128,-1,95
 1152 863 1152 863 1124.5 918 c 128,-1,96
 1097 973 1097 973 1049.5 1010.5 c 128,-1,97
 1002 1048 1002 1048 932 1048 c 0,98,99
 878 1048 878 1048 837.5 1026.5 c 128,-1,100
 797 1005 797 1005 768 969.5 c 128,-1,101
 739 934 739 934 720 889 c 128,-1,102
 701 844 701 844 690 797 c 128,-1,103
 679 750 679 750 674.5 704.5 c 128,-1,104
 670 659 670 659 670 624 c 2,105,-1
 670 611 l 1,91,-1
EndSplineSet
EndChar
StartChar: Tbar
Encoding: 358 358 488
Width: 1229
Flags: W
LayerCount: 2
Back
Fore
SplineSet
883 847 m 1,0,-1
 644 847 l 1,1,-1
 644 0 l 1,2,-1
 590 0 l 1,3,-1
 591 847 l 1,4,-1
 296 847 l 1,5,-1
 296 901 l 1,6,-1
 591 901 l 1,7,-1
 592 1402 l 1,8,-1
 112 1402 l 1,9,-1
 112 1456 l 1,10,-1
 1123 1456 l 1,11,-1
 1123 1402 l 1,12,-1
 644 1402 l 1,13,-1
 644 901 l 1,14,-1
 883 901 l 1,15,-1
 883 847 l 1,0,-1
EndSplineSet
Substitution2: "'smcp' Lowercase to Small Capitals lookup 0 subtable" Tbar.smcp
EndChar
StartChar: tbar
Encoding: 359 359 489
Width: 1229
Flags: W
LayerCount: 2
Back
Fore
SplineSet
573 1374 m 1,0,-1
 572 1082 l 1,1,-1
 962 1082 l 1,2,-1
 962 1027 l 1,3,-1
 572 1027 l 1,4,-1
 572 688 l 1,5,-1
 860 688 l 1,6,-1
 860 634 l 1,7,-1
 572 634 l 1,8,-1
 572 259 l 2,9,10
 574 196 574 196 594.5 153.5 c 128,-1,11
 615 111 615 111 651 84.5 c 128,-1,12
 687 58 687 58 735.5 46 c 128,-1,13
 784 34 784 34 842 34 c 0,14,15
 923 34 923 34 1001 43 c 1,16,-1
 1012 -8 l 1,17,18
 971 -16 971 -16 930 -18 c 128,-1,19
 889 -20 889 -20 847 -20 c 0,20,21
 775 -20 775 -20 715 -5.5 c 128,-1,22
 655 9 655 9 611 42 c 128,-1,23
 567 75 567 75 542 128 c 128,-1,24
 517 181 517 181 515 259 c 2,25,-1
 515 634 l 1,26,-1
 273 634 l 1,27,-1
 273 688 l 1,28,-1
 515 688 l 1,29,-1
 515 1027 l 1,30,-1
 197 1027 l 1,31,-1
 197 1082 l 1,32,-1
 515 1082 l 1,33,-1
 515 1374 l 1,34,-1
 573 1374 l 1,0,-1
EndSplineSet
Substitution2: "'smcp' Lowercase to Small Capitals lookup 0 subtable" Tbar.smcp
EndChar
StartChar: Uogonek
Encoding: 370 370 648
Width: 1229
Flags: W
LayerCount: 2
Back
Fore
SplineSet
1054 1456 m 1,0,-1
 1055 469 l 2,1,2
 1054 397 1054 397 1037 329.5 c 128,-1,3
 1020 262 1020 262 988.5 203.5 c 128,-1,4
 957 145 957 145 911.5 98.5 c 128,-1,5
 866 52 866 52 807 23 c 1,6,7
 778 2 778 2 745.5 -23 c 128,-1,8
 713 -48 713 -48 685 -77.5 c 128,-1,9
 657 -107 657 -107 639 -140.5 c 128,-1,10
 621 -174 621 -174 621 -213 c 0,11,12
 622 -258 622 -258 649 -282.5 c 128,-1,13
 676 -307 676 -307 721 -308 c 0,14,15
 753 -309 753 -309 782 -298 c 128,-1,16
 811 -287 811 -287 837 -270 c 1,17,-1
 853 -318 l 1,18,19
 823 -339 823 -339 790.5 -350.5 c 128,-1,20
 758 -362 758 -362 721 -362 c 0,21,22
 687 -362 687 -362 658.5 -351.5 c 128,-1,23
 630 -341 630 -341 610 -322 c 128,-1,24
 590 -303 590 -303 578.5 -275.5 c 128,-1,25
 567 -248 567 -248 567 -213 c 0,26,27
 567 -183 567 -183 577.5 -156 c 128,-1,28
 588 -129 588 -129 605 -104 c 128,-1,29
 622 -79 622 -79 644 -56.5 c 128,-1,30
 666 -34 666 -34 690 -14 c 1,31,32
 654 -20 654 -20 616 -20 c 0,33,34
 512 -20 512 -20 431 20 c 128,-1,35
 350 60 350 60 294 127.5 c 128,-1,36
 238 195 238 195 207.5 283.5 c 128,-1,37
 177 372 177 372 176 469 c 2,38,-1
 177 1456 l 1,39,-1
 228 1456 l 1,40,-1
 229 469 l 2,41,42
 230 384 230 384 256.5 305.5 c 128,-1,43
 283 227 283 227 332.5 166.5 c 128,-1,44
 382 106 382 106 453.5 70 c 128,-1,45
 525 34 525 34 616 34 c 256,46,47
 707 34 707 34 778 70.5 c 128,-1,48
 849 107 849 107 898 167.5 c 128,-1,49
 947 228 947 228 973 306.5 c 128,-1,50
 999 385 999 385 1001 469 c 2,51,-1
 1002 1456 l 1,52,-1
 1054 1456 l 1,0,-1
EndSplineSet
Substitution2: "'smcp' Lowercase to Small Capitals lookup 0 subtable" Uogonek.smcp
EndChar
StartChar: uogonek
Encoding: 371 371 649
Width: 1229
Flags: W
LayerCount: 2
Back
Fore
SplineSet
1019 0 m 1,0,1
 990 -22 990 -22 955.5 -48 c 128,-1,2
 921 -74 921 -74 891 -104 c 128,-1,3
 861 -134 861 -134 840.5 -169.5 c 128,-1,4
 820 -205 820 -205 820 -246 c 0,5,6
 821 -291 821 -291 848 -315.5 c 128,-1,7
 875 -340 875 -340 920 -341 c 0,8,9
 952 -342 952 -342 981 -331 c 128,-1,10
 1010 -320 1010 -320 1036 -303 c 1,11,-1
 1052 -351 l 1,12,13
 1022 -372 1022 -372 989.5 -383.5 c 128,-1,14
 957 -395 957 -395 920 -395 c 0,15,16
 886 -395 886 -395 857.5 -384.5 c 128,-1,17
 829 -374 829 -374 809 -355 c 128,-1,18
 789 -336 789 -336 777.5 -308.5 c 128,-1,19
 766 -281 766 -281 766 -246 c 0,20,21
 766 -205 766 -205 786 -168 c 128,-1,22
 806 -131 806 -131 835 -99 c 128,-1,23
 864 -67 864 -67 899 -39.5 c 128,-1,24
 934 -12 934 -12 964 11 c 1,25,-1
 965 193 l 1,26,27
 913 93 913 93 816.5 36.5 c 128,-1,28
 720 -20 720 -20 581 -20 c 0,29,30
 487 -20 487 -20 418.5 12 c 128,-1,31
 350 44 350 44 305.5 99.5 c 128,-1,32
 261 155 261 155 239 231 c 128,-1,33
 217 307 217 307 216 395 c 2,34,-1
 216 1082 l 1,35,-1
 270 1082 l 1,36,-1
 270 393 l 2,37,38
 271 318 271 318 289 253 c 128,-1,39
 307 188 307 188 344.5 139 c 128,-1,40
 382 90 382 90 440 62 c 128,-1,41
 498 34 498 34 579 34 c 0,42,43
 657 34 657 34 722 54.5 c 128,-1,44
 787 75 787 75 836.5 113.5 c 128,-1,45
 886 152 886 152 918.5 207.5 c 128,-1,46
 951 263 951 263 965 333 c 1,47,-1
 964 1082 l 1,48,-1
 1020 1082 l 1,49,-1
 1020 0 l 1,50,-1
 1019 0 l 1,0,1
EndSplineSet
Substitution2: "'smcp' Lowercase to Small Capitals lookup 0 subtable" Uogonek.smcp
EndChar
StartChar: longs
Encoding: 383 383 148
Width: 1229
Flags: W
LayerCount: 2
Back
Fore
SplineSet
522 0 m 1,0,-1
 524 1236 l 2,1,2
 525 1311 525 1311 549.5 1370.5 c 128,-1,3
 574 1430 574 1430 618 1471 c 128,-1,4
 662 1512 662 1512 723 1534 c 128,-1,5
 784 1556 784 1556 858 1557 c 0,6,7
 896 1557 896 1557 933.5 1553 c 128,-1,8
 971 1549 971 1549 1008 1540 c 1,9,-1
 1000 1488 l 1,10,11
 965 1496 965 1496 930 1499.5 c 128,-1,12
 895 1503 895 1503 859 1503 c 0,13,14
 797 1502 797 1502 746.5 1484 c 128,-1,15
 696 1466 696 1466 659.5 1431.5 c 128,-1,16
 623 1397 623 1397 602 1348 c 128,-1,17
 581 1299 581 1299 580 1236 c 2,18,-1
 580 0 l 1,19,-1
 522 0 l 1,0,-1
EndSplineSet
EndChar
StartChar: florin
Encoding: 402 402 149
Width: 1229
Flags: W
LayerCount: 2
Back
Fore
SplineSet
1008 1027 m 1,0,-1
 639 1027 l 1,1,-1
 637 -89 l 2,2,3
 635 -170 635 -170 610.5 -234.5 c 128,-1,4
 586 -299 586 -299 541.5 -344 c 128,-1,5
 497 -389 497 -389 435 -413 c 128,-1,6
 373 -437 373 -437 297 -437 c 0,7,8
 262 -437 262 -437 227.5 -431.5 c 128,-1,9
 193 -426 193 -426 160 -417 c 1,10,-1
 173 -365 l 1,11,12
 203 -375 203 -375 234.5 -379 c 128,-1,13
 266 -383 266 -383 297 -383 c 0,14,15
 361 -383 361 -383 413 -363 c 128,-1,16
 465 -343 465 -343 502 -305 c 128,-1,17
 539 -267 539 -267 559 -212.5 c 128,-1,18
 579 -158 579 -158 581 -89 c 2,19,-1
 580 1027 l 1,20,-1
 338 1027 l 1,21,-1
 338 1082 l 1,22,-1
 582 1082 l 1,23,-1
 583 1236 l 2,24,25
 584 1315 584 1315 612 1374.5 c 128,-1,26
 640 1434 640 1434 687.5 1474.5 c 128,-1,27
 735 1515 735 1515 800 1536 c 128,-1,28
 865 1557 865 1557 940 1557 c 0,29,30
 980 1557 980 1557 1020 1553 c 128,-1,31
 1060 1549 1060 1549 1099 1540 c 1,32,-1
 1090 1488 l 1,33,34
 1053 1496 1053 1496 1016 1499.5 c 128,-1,35
 979 1503 979 1503 941 1503 c 0,36,37
 878 1502 878 1502 823.5 1485 c 128,-1,38
 769 1468 769 1468 728 1434.5 c 128,-1,39
 687 1401 687 1401 663 1351.5 c 128,-1,40
 639 1302 639 1302 637 1236 c 2,41,-1
 639 1082 l 1,42,-1
 1008 1082 l 1,43,-1
 1008 1027 l 1,0,-1
EndSplineSet
EndChar
StartChar: Ohorn
Encoding: 416 416 150
Width: 1229
Flags: W
LayerCount: 2
Back
Fore
SplineSet
1086 619 m 2,0,1
 1085 548 1085 548 1073 473 c 128,-1,2
 1061 398 1061 398 1037 327 c 128,-1,3
 1013 256 1013 256 975.5 193 c 128,-1,4
 938 130 938 130 886 82.5 c 128,-1,5
 834 35 834 35 766.5 7.5 c 128,-1,6
 699 -20 699 -20 616 -20 c 256,7,8
 533 -20 533 -20 465.5 7.5 c 128,-1,9
 398 35 398 35 345.5 82.5 c 128,-1,10
 293 130 293 130 255 193 c 128,-1,11
 217 256 217 256 192.5 327 c 128,-1,12
 168 398 168 398 155.5 473 c 128,-1,13
 143 548 143 548 142 619 c 2,14,-1
 142 837 l 2,15,16
 143 908 143 908 155 983 c 128,-1,17
 167 1058 167 1058 191.5 1129 c 128,-1,18
 216 1200 216 1200 253.5 1263 c 128,-1,19
 291 1326 291 1326 343.5 1373.5 c 128,-1,20
 396 1421 396 1421 463 1448.5 c 128,-1,21
 530 1476 530 1476 614 1476 c 0,22,23
 681 1476 681 1476 737 1458 c 128,-1,24
 793 1440 793 1440 839.5 1408.5 c 128,-1,25
 886 1377 886 1377 923 1333.5 c 128,-1,26
 960 1290 960 1290 988 1239 c 1,27,28
 1049 1245 1049 1245 1086 1271.5 c 128,-1,29
 1123 1298 1123 1298 1143 1339 c 128,-1,30
 1163 1380 1163 1380 1170.5 1432 c 128,-1,31
 1178 1484 1178 1484 1181 1541 c 1,32,-1
 1232 1541 l 1,33,34
 1233 1476 1233 1476 1223 1416.5 c 128,-1,35
 1213 1357 1213 1357 1188 1310 c 128,-1,36
 1163 1263 1163 1263 1120 1231 c 128,-1,37
 1077 1199 1077 1199 1013 1188 c 1,38,39
 1050 1105 1050 1105 1067.5 1014.5 c 128,-1,40
 1085 924 1085 924 1086 837 c 2,41,-1
 1086 619 l 2,0,1
1033 839 m 2,42,43
 1032 903 1032 903 1022 971 c 128,-1,44
 1012 1039 1012 1039 991 1103.5 c 128,-1,45
 970 1168 970 1168 937 1226 c 128,-1,46
 904 1284 904 1284 857.5 1327.5 c 128,-1,47
 811 1371 811 1371 750.5 1396.5 c 128,-1,48
 690 1422 690 1422 614 1422 c 256,49,50
 538 1422 538 1422 478 1396.5 c 128,-1,51
 418 1371 418 1371 371.5 1327.5 c 128,-1,52
 325 1284 325 1284 292.5 1226 c 128,-1,53
 260 1168 260 1168 239 1103 c 128,-1,54
 218 1038 218 1038 208 970 c 128,-1,55
 198 902 198 902 197 839 c 2,56,-1
 197 619 l 2,57,58
 198 555 198 555 208 487 c 128,-1,59
 218 419 218 419 239 354 c 128,-1,60
 260 289 260 289 293 231 c 128,-1,61
 326 173 326 173 372.5 129 c 128,-1,62
 419 85 419 85 479.5 59.5 c 128,-1,63
 540 34 540 34 616 34 c 256,64,65
 692 34 692 34 752.5 59.5 c 128,-1,66
 813 85 813 85 859 129 c 128,-1,67
 905 173 905 173 938 231 c 128,-1,68
 971 289 971 289 992 354 c 128,-1,69
 1013 419 1013 419 1022.5 487 c 128,-1,70
 1032 555 1032 555 1033 619 c 2,71,-1
 1033 839 l 2,42,43
EndSplineSet
EndChar
StartChar: ohorn
Encoding: 417 417 151
Width: 1229
Flags: W
LayerCount: 2
Back
Fore
SplineSet
114 562 m 2,0,1
 115 666 115 666 147 763.5 c 128,-1,2
 179 861 179 861 239 936 c 128,-1,3
 299 1011 299 1011 386.5 1056.5 c 128,-1,4
 474 1102 474 1102 587 1102 c 0,5,6
 698 1102 698 1102 784 1058.5 c 128,-1,7
 870 1015 870 1015 931 942 c 1,8,-1
 931 953 l 1,9,10
 992 955 992 955 1031.5 972 c 128,-1,11
 1071 989 1071 989 1094.5 1020 c 128,-1,12
 1118 1051 1118 1051 1128 1095 c 128,-1,13
 1138 1139 1138 1139 1140 1196 c 1,14,-1
 1194 1196 l 1,15,16
 1193 1131 1193 1131 1180 1079.5 c 128,-1,17
 1167 1028 1167 1028 1139.5 990 c 128,-1,18
 1112 952 1112 952 1068 929.5 c 128,-1,19
 1024 907 1024 907 962 901 c 1,20,21
 1010 829 1010 829 1034.5 742 c 128,-1,22
 1059 655 1059 655 1061 562 c 2,23,-1
 1061 520 l 2,24,25
 1060 416 1060 416 1028.5 318.5 c 128,-1,26
 997 221 997 221 937 146 c 128,-1,27
 877 71 877 71 789.5 25.5 c 128,-1,28
 702 -20 702 -20 589 -20 c 256,29,30
 476 -20 476 -20 388 25 c 128,-1,31
 300 70 300 70 239.5 145 c 128,-1,32
 179 220 179 220 147 317.5 c 128,-1,33
 115 415 115 415 114 520 c 2,34,-1
 114 562 l 2,0,1
168 520 m 2,35,36
 169 428 169 428 197.5 340.5 c 128,-1,37
 226 253 226 253 279.5 185 c 128,-1,38
 333 117 333 117 411 75.5 c 128,-1,39
 489 34 489 34 589 34 c 256,40,41
 689 34 689 34 766 75.5 c 128,-1,42
 843 117 843 117 896.5 185.5 c 128,-1,43
 950 254 950 254 978 341 c 128,-1,44
 1006 428 1006 428 1007 520 c 2,45,-1
 1007 562 l 2,46,47
 1006 653 1006 653 977.5 740.5 c 128,-1,48
 949 828 949 828 895.5 896 c 128,-1,49
 842 964 842 964 764 1006 c 128,-1,50
 686 1048 686 1048 587 1048 c 256,51,52
 488 1048 488 1048 410.5 1006 c 128,-1,53
 333 964 333 964 279.5 896 c 128,-1,54
 226 828 226 828 197.5 740.5 c 128,-1,55
 169 653 169 653 168 562 c 2,56,-1
 168 520 l 2,35,36
EndSplineSet
EndChar
StartChar: Uhorn
Encoding: 431 431 152
Width: 1229
Flags: W
LayerCount: 2
Back
Fore
SplineSet
1054 1456 m 1,0,-1
 1054 1251 l 1,1,2
 1112 1260 1112 1260 1147.5 1286 c 128,-1,3
 1183 1312 1183 1312 1203.5 1351.5 c 128,-1,4
 1224 1391 1224 1391 1232 1442 c 128,-1,5
 1240 1493 1240 1493 1243 1551 c 1,6,-1
 1295 1551 l 1,7,8
 1296 1482 1296 1482 1284 1421.5 c 128,-1,9
 1272 1361 1272 1361 1244 1314 c 128,-1,10
 1216 1267 1216 1267 1169.5 1236.5 c 128,-1,11
 1123 1206 1123 1206 1054 1197 c 1,12,-1
 1055 469 l 2,13,14
 1053 372 1053 372 1023.5 283.5 c 128,-1,15
 994 195 994 195 937.5 127.5 c 128,-1,16
 881 60 881 60 800 20 c 128,-1,17
 719 -20 719 -20 616 -20 c 0,18,19
 512 -20 512 -20 431 20 c 128,-1,20
 350 60 350 60 294 127.5 c 128,-1,21
 238 195 238 195 207.5 283.5 c 128,-1,22
 177 372 177 372 176 469 c 2,23,-1
 177 1456 l 1,24,-1
 228 1456 l 1,25,-1
 229 469 l 2,26,27
 230 384 230 384 256.5 305.5 c 128,-1,28
 283 227 283 227 332.5 166.5 c 128,-1,29
 382 106 382 106 453.5 70 c 128,-1,30
 525 34 525 34 616 34 c 256,31,32
 707 34 707 34 778 70.5 c 128,-1,33
 849 107 849 107 898 167.5 c 128,-1,34
 947 228 947 228 973 306.5 c 128,-1,35
 999 385 999 385 1001 469 c 2,36,-1
 1002 1456 l 1,37,-1
 1054 1456 l 1,0,-1
EndSplineSet
EndChar
StartChar: uhorn
Encoding: 432 432 153
Width: 1229
Flags: W
LayerCount: 2
Back
Fore
SplineSet
1268 1190 m 1,0,1
 1265 1056 1265 1056 1207.5 980 c 128,-1,2
 1150 904 1150 904 1020 893 c 1,3,-1
 1020 0 l 1,4,-1
 964 0 l 1,5,-1
 965 193 l 1,6,7
 913 93 913 93 816.5 36.5 c 128,-1,8
 720 -20 720 -20 581 -20 c 0,9,10
 487 -20 487 -20 418.5 12 c 128,-1,11
 350 44 350 44 305.5 99.5 c 128,-1,12
 261 155 261 155 239 231 c 128,-1,13
 217 307 217 307 216 395 c 2,14,-1
 216 1082 l 1,15,-1
 270 1082 l 1,16,-1
 270 393 l 2,17,18
 271 318 271 318 289 253 c 128,-1,19
 307 188 307 188 344.5 139 c 128,-1,20
 382 90 382 90 440 62 c 128,-1,21
 498 34 498 34 579 34 c 0,22,23
 657 34 657 34 722 54.5 c 128,-1,24
 787 75 787 75 836.5 113.5 c 128,-1,25
 886 152 886 152 918.5 207.5 c 128,-1,26
 951 263 951 263 965 333 c 1,27,-1
 964 1082 l 1,28,-1
 1020 1082 l 1,29,-1
 1020 947 l 1,30,31
 1074 952 1074 952 1110 970 c 128,-1,32
 1146 988 1146 988 1168.5 1018 c 128,-1,33
 1191 1048 1191 1048 1201.5 1091 c 128,-1,34
 1212 1134 1212 1134 1213 1190 c 1,35,-1
 1268 1190 l 1,0,1
EndSplineSet
EndChar
StartChar: uni0237
Encoding: 567 567 154
Width: 1229
Flags: W
LayerCount: 2
Back
Fore
SplineSet
271 1082 m 1,0,-1
 785 1082 l 1,1,-1
 785 6 l 2,2,3
 785 -93 785 -93 758.5 -175 c 128,-1,4
 732 -257 732 -257 681 -315 c 128,-1,5
 630 -373 630 -373 557 -405 c 128,-1,6
 484 -437 484 -437 391 -437 c 0,7,8
 362 -437 362 -437 337 -436 c 128,-1,9
 312 -435 312 -435 288 -433 c 128,-1,10
 264 -431 264 -431 239.5 -428 c 128,-1,11
 215 -425 215 -425 187 -420 c 1,12,-1
 191 -372 l 1,13,14
 210 -375 210 -375 237.5 -377.5 c 128,-1,15
 265 -380 265 -380 292.5 -381.5 c 128,-1,16
 320 -383 320 -383 345.5 -383.5 c 128,-1,17
 371 -384 371 -384 387 -384 c 0,18,19
 455 -384 455 -384 517.5 -363.5 c 128,-1,20
 580 -343 580 -343 627.5 -296.5 c 128,-1,21
 675 -250 675 -250 703 -176 c 128,-1,22
 731 -102 731 -102 731 6 c 2,23,-1
 731 1028 l 1,24,-1
 271 1028 l 1,25,-1
 271 1082 l 1,0,-1
EndSplineSet
EndChar
StartChar: schwa
Encoding: 601 601 155
Width: 1229
Flags: W
LayerCount: 2
Back
Fore
SplineSet
617 1102 m 0,0,1
 687 1101 687 1101 749 1081 c 128,-1,2
 811 1061 811 1061 863 1025 c 128,-1,3
 915 989 915 989 957 940 c 128,-1,4
 999 891 999 891 1028 833 c 128,-1,5
 1057 775 1057 775 1073 711 c 128,-1,6
 1089 647 1089 647 1090 581 c 2,7,-1
 1090 517 l 2,8,9
 1089 416 1089 416 1056.5 319.5 c 128,-1,10
 1024 223 1024 223 963.5 147 c 128,-1,11
 903 71 903 71 816 25 c 128,-1,12
 729 -21 729 -21 620 -21 c 0,13,14
 524 -21 524 -21 445 13 c 128,-1,15
 366 47 366 47 309.5 106 c 128,-1,16
 253 165 253 165 221.5 246 c 128,-1,17
 190 327 190 327 189 421 c 2,18,-1
 189 504 l 1,19,-1
 1035 504 l 2,20,21
 1035 507 1035 507 1035.5 510 c 128,-1,22
 1036 513 1036 513 1036 517 c 2,23,-1
 1036 581 l 2,24,25
 1034 670 1034 670 1004 753.5 c 128,-1,26
 974 837 974 837 919.5 902.5 c 128,-1,27
 865 968 865 968 788.5 1007.5 c 128,-1,28
 712 1047 712 1047 617 1048 c 0,29,30
 567 1048 567 1048 518 1042 c 128,-1,31
 469 1036 469 1036 423 1020.5 c 128,-1,32
 377 1005 377 1005 335.5 979.5 c 128,-1,33
 294 954 294 954 260 916 c 1,34,-1
 231 958 l 1,35,36
 308 1037 308 1037 408 1070 c 128,-1,37
 508 1103 508 1103 617 1102 c 0,0,1
620 33 m 0,38,39
 710 33 710 33 781.5 67.5 c 128,-1,40
 853 102 853 102 905 160 c 128,-1,41
 957 218 957 218 989 293.5 c 128,-1,42
 1021 369 1021 369 1031 450 c 1,43,-1
 243 450 l 1,44,-1
 243 417 l 2,45,46
 244 336 244 336 272.5 266 c 128,-1,47
 301 196 301 196 350.5 144.5 c 128,-1,48
 400 93 400 93 469 63 c 128,-1,49
 538 33 538 33 620 33 c 0,38,39
EndSplineSet
EndChar
StartChar: circumflex
Encoding: 710 710 156
Width: 1229
Flags: W
LayerCount: 2
Back
Fore
SplineSet
890 1274 m 1,0,-1
 890 1264 l 1,1,-1
 822 1264 l 1,2,-1
 635 1460 l 1,3,-1
 450 1264 l 1,4,-1
 386 1264 l 1,5,-1
 386 1278 l 1,6,-1
 616 1517 l 1,7,-1
 656 1517 l 1,8,-1
 890 1274 l 1,0,-1
EndSplineSet
EndChar
StartChar: caron
Encoding: 711 711 157
Width: 1229
Flags: W
LayerCount: 2
Back
Fore
SplineSet
615 1289 m 1,0,-1
 809 1506 l 1,1,-1
 862 1506 l 1,2,-1
 862 1493 l 1,3,-1
 644 1243 l 1,4,-1
 585 1243 l 1,5,-1
 365 1495 l 1,6,-1
 365 1506 l 1,7,-1
 422 1506 l 1,8,-1
 615 1289 l 1,0,-1
EndSplineSet
EndChar
StartChar: breve
Encoding: 728 728 158
Width: 1229
Flags: W
LayerCount: 2
Back
Fore
SplineSet
893 1486 m 1,0,1
 890 1427 890 1427 868 1381 c 128,-1,2
 846 1335 846 1335 809 1303 c 128,-1,3
 772 1271 772 1271 722.5 1254.5 c 128,-1,4
 673 1238 673 1238 615 1238 c 256,5,6
 557 1238 557 1238 507.5 1254.5 c 128,-1,7
 458 1271 458 1271 421 1303 c 128,-1,8
 384 1335 384 1335 361.5 1381 c 128,-1,9
 339 1427 339 1427 336 1486 c 1,10,-1
 390 1486 l 1,11,12
 393 1437 393 1437 410.5 1401 c 128,-1,13
 428 1365 428 1365 457.5 1341 c 128,-1,14
 487 1317 487 1317 527 1305.5 c 128,-1,15
 567 1294 567 1294 615 1294 c 0,16,17
 661 1294 661 1294 701 1306 c 128,-1,18
 741 1318 741 1318 770.5 1342 c 128,-1,19
 800 1366 800 1366 818 1402 c 128,-1,20
 836 1438 836 1438 839 1486 c 1,21,-1
 893 1486 l 1,0,1
EndSplineSet
EndChar
StartChar: dotaccent
Encoding: 729 729 159
Width: 1229
Flags: W
LayerCount: 2
Back
Fore
SplineSet
556 1397 m 0,0,1
 556 1419 556 1419 572.5 1436 c 128,-1,2
 589 1453 589 1453 613 1453 c 256,3,4
 637 1453 637 1453 654 1436.5 c 128,-1,5
 671 1420 671 1420 671 1397 c 0,6,7
 670 1374 670 1374 653.5 1358 c 128,-1,8
 637 1342 637 1342 613 1342 c 256,9,10
 589 1342 589 1342 572.5 1358 c 128,-1,11
 556 1374 556 1374 556 1397 c 0,0,1
EndSplineSet
EndChar
StartChar: ring
Encoding: 730 730 160
Width: 1229
Flags: W
LayerCount: 2
Back
Fore
SplineSet
450 1382 m 256,0,1
 450 1416 450 1416 462 1447.5 c 128,-1,2
 474 1479 474 1479 496 1503 c 128,-1,3
 518 1527 518 1527 548 1541.5 c 128,-1,4
 578 1556 578 1556 613 1556 c 256,5,6
 648 1556 648 1556 678 1541.5 c 128,-1,7
 708 1527 708 1527 730 1503 c 128,-1,8
 752 1479 752 1479 764.5 1447.5 c 128,-1,9
 777 1416 777 1416 777 1382 c 256,10,11
 777 1348 777 1348 764.5 1317 c 128,-1,12
 752 1286 752 1286 730 1263 c 128,-1,13
 708 1240 708 1240 678 1226 c 128,-1,14
 648 1212 648 1212 613 1212 c 256,15,16
 578 1212 578 1212 548 1226 c 128,-1,17
 518 1240 518 1240 496.5 1263 c 128,-1,18
 475 1286 475 1286 462.5 1317 c 128,-1,19
 450 1348 450 1348 450 1382 c 256,0,1
504 1382 m 0,20,21
 504 1359 504 1359 512 1338 c 128,-1,22
 520 1317 520 1317 534.5 1301 c 128,-1,23
 549 1285 549 1285 569 1275.5 c 128,-1,24
 589 1266 589 1266 613 1266 c 256,25,26
 637 1266 637 1266 657.5 1275.5 c 128,-1,27
 678 1285 678 1285 692.5 1301 c 128,-1,28
 707 1317 707 1317 715 1338 c 128,-1,29
 723 1359 723 1359 723 1382 c 0,30,31
 723 1406 723 1406 715 1427.5 c 128,-1,32
 707 1449 707 1449 692.5 1465.5 c 128,-1,33
 678 1482 678 1482 658 1492 c 128,-1,34
 638 1502 638 1502 613 1502 c 0,35,36
 589 1502 589 1502 568.5 1492 c 128,-1,37
 548 1482 548 1482 534 1465.5 c 128,-1,38
 520 1449 520 1449 512 1427.5 c 128,-1,39
 504 1406 504 1406 504 1382 c 0,20,21
EndSplineSet
EndChar
StartChar: ogonek
Encoding: 731 731 161
Width: 1229
Flags: W
LayerCount: 2
Back
Fore
SplineSet
691 0 m 1,0,1
 662 -22 662 -22 627.5 -48 c 128,-1,2
 593 -74 593 -74 563 -104 c 128,-1,3
 533 -134 533 -134 512.5 -169.5 c 128,-1,4
 492 -205 492 -205 492 -246 c 0,5,6
 493 -291 493 -291 520 -315.5 c 128,-1,7
 547 -340 547 -340 592 -341 c 0,8,9
 624 -342 624 -342 653 -331 c 128,-1,10
 682 -320 682 -320 708 -303 c 1,11,-1
 724 -351 l 1,12,13
 694 -372 694 -372 661.5 -383.5 c 128,-1,14
 629 -395 629 -395 592 -395 c 0,15,16
 558 -395 558 -395 529.5 -384.5 c 128,-1,17
 501 -374 501 -374 481 -355 c 128,-1,18
 461 -336 461 -336 449.5 -308.5 c 128,-1,19
 438 -281 438 -281 438 -246 c 0,20,21
 438 -203 438 -203 459.5 -164.5 c 128,-1,22
 481 -126 481 -126 512.5 -93 c 128,-1,23
 544 -60 544 -60 580.5 -31.5 c 128,-1,24
 617 -3 617 -3 647 20 c 1,25,-1
 691 0 l 1,0,1
EndSplineSet
EndChar
StartChar: tilde
Encoding: 732 732 162
Width: 1229
Flags: W
LayerCount: 2
Back
Fore
SplineSet
778 1472 m 1,0,1
 776 1435 776 1435 764 1401.5 c 128,-1,2
 752 1368 752 1368 730 1342.5 c 128,-1,3
 708 1317 708 1317 677.5 1301.5 c 128,-1,4
 647 1286 647 1286 607 1286 c 0,5,6
 578 1286 578 1286 554 1295.5 c 128,-1,7
 530 1305 530 1305 508 1319 c 128,-1,8
 486 1333 486 1333 465.5 1349 c 128,-1,9
 445 1365 445 1365 423.5 1379 c 128,-1,10
 402 1393 402 1393 378.5 1402 c 128,-1,11
 355 1411 355 1411 328 1411 c 0,12,13
 299 1411 299 1411 278 1401 c 128,-1,14
 257 1391 257 1391 243 1374 c 128,-1,15
 229 1357 229 1357 221 1334.5 c 128,-1,16
 213 1312 213 1312 210 1286 c 1,17,-1
 156 1286 l 1,18,19
 158 1323 158 1323 170.5 1355.5 c 128,-1,20
 183 1388 183 1388 204.5 1412.5 c 128,-1,21
 226 1437 226 1437 257 1451 c 128,-1,22
 288 1465 288 1465 328 1465 c 0,23,24
 370 1465 370 1465 404 1445.5 c 128,-1,25
 438 1426 438 1426 469.5 1402.5 c 128,-1,26
 501 1379 501 1379 533.5 1360 c 128,-1,27
 566 1341 566 1341 607 1341 c 0,28,29
 636 1341 636 1341 657 1352 c 128,-1,30
 678 1363 678 1363 692 1381 c 128,-1,31
 706 1399 706 1399 713.5 1422.5 c 128,-1,32
 721 1446 721 1446 724 1472 c 1,33,-1
 778 1472 l 1,0,1
EndSplineSet
EndChar
StartChar: hungarumlaut
Encoding: 733 733 163
Width: 1229
Flags: W
LayerCount: 2
Back
Fore
SplineSet
838 1536 m 1,0,-1
 920 1536 l 1,1,-1
 624 1232 l 1,2,-1
 550 1232 l 1,3,-1
 838 1536 l 1,0,-1
551 1536 m 1,4,-1
 628 1536 l 1,5,-1
 379 1232 l 1,6,-1
 309 1232 l 1,7,-1
 551 1536 l 1,4,-1
EndSplineSet
EndChar
StartChar: uni02F3
Encoding: 755 755 164
Width: 1229
Flags: W
LayerCount: 2
Back
Fore
SplineSet
492 -219 m 0,0,1
 492 -195 492 -195 502.5 -173 c 128,-1,2
 513 -151 513 -151 530 -134.5 c 128,-1,3
 547 -118 547 -118 569.5 -108.5 c 128,-1,4
 592 -99 592 -99 616 -99 c 256,5,6
 640 -99 640 -99 662 -109 c 128,-1,7
 684 -119 684 -119 700.5 -135.5 c 128,-1,8
 717 -152 717 -152 727 -173.5 c 128,-1,9
 737 -195 737 -195 737 -219 c 256,10,11
 737 -243 737 -243 727 -264.5 c 128,-1,12
 717 -286 717 -286 700 -301.5 c 128,-1,13
 683 -317 683 -317 661.5 -326 c 128,-1,14
 640 -335 640 -335 616 -335 c 256,15,16
 592 -335 592 -335 570 -326 c 128,-1,17
 548 -317 548 -317 530.5 -301.5 c 128,-1,18
 513 -286 513 -286 502.5 -265 c 128,-1,19
 492 -244 492 -244 492 -219 c 0,0,1
549 -219 m 1,20,21
 557 -245 557 -245 571.5 -262 c 128,-1,22
 586 -279 586 -279 616 -279 c 0,23,24
 641 -279 641 -279 660.5 -262 c 128,-1,25
 680 -245 680 -245 681 -219 c 0,26,27
 681 -193 681 -193 661 -175.5 c 128,-1,28
 641 -158 641 -158 616 -157 c 0,29,30
 587 -156 587 -156 570.5 -174.5 c 128,-1,31
 554 -193 554 -193 549 -219 c 1,20,21
EndSplineSet
EndChar
StartChar: gravecomb
Encoding: 768 768 165
Width: 0
Flags: W
LayerCount: 2
Back
Fore
SplineSet
-596 1244 m 1,0,-1
 -668 1244 l 1,1,-1
 -859 1535 l 1,2,-1
 -776 1535 l 1,3,-1
 -596 1244 l 1,0,-1
EndSplineSet
EndChar
StartChar: acutecomb
Encoding: 769 769 166
Width: 0
Flags: W
LayerCount: 2
Back
Fore
SplineSet
-552 1536 m 1,0,-1
 -483 1536 l 1,1,-1
 -652 1245 l 1,2,-1
 -715 1245 l 1,3,-1
 -552 1536 l 1,0,-1
EndSplineSet
EndChar
StartChar: hook
Encoding: 777 777 168
Width: 0
Flags: W
LayerCount: 2
Back
Fore
SplineSet
-646 1227 m 1,0,-1
 -646 1326 l 1,1,2
 -620 1329 -620 1329 -587 1333.5 c 128,-1,3
 -554 1338 -554 1338 -524.5 1349.5 c 128,-1,4
 -495 1361 -495 1361 -475.5 1382.5 c 128,-1,5
 -456 1404 -456 1404 -457 1440 c 0,6,7
 -458 1479 -458 1479 -485 1500.5 c 128,-1,8
 -512 1522 -512 1522 -549 1533 c 128,-1,9
 -586 1544 -586 1544 -626 1546.5 c 128,-1,10
 -666 1549 -666 1549 -693 1550 c 1,11,-1
 -686 1599 l 1,12,13
 -649 1598 -649 1598 -600 1592 c 128,-1,14
 -551 1586 -551 1586 -507 1569 c 128,-1,15
 -463 1552 -463 1552 -432 1521.5 c 128,-1,16
 -401 1491 -401 1491 -401 1440 c 0,17,18
 -401 1398 -401 1398 -418.5 1369.5 c 128,-1,19
 -436 1341 -436 1341 -464 1322.5 c 128,-1,20
 -492 1304 -492 1304 -527.5 1294.5 c 128,-1,21
 -563 1285 -563 1285 -598 1281 c 1,22,-1
 -598 1227 l 1,23,-1
 -646 1227 l 1,0,-1
EndSplineSet
EndChar
StartChar: uni030F
Encoding: 783 783 169
Width: 0
Flags: W
LayerCount: 2
Back
Fore
SplineSet
-936 1252 m 1,0,-1
 -1009 1252 l 1,1,-1
 -1307 1518 l 1,2,-1
 -1227 1518 l 1,3,-1
 -936 1252 l 1,0,-1
-711 1252 m 1,4,-1
 -780 1252 l 1,5,-1
 -1033 1518 l 1,6,-1
 -957 1518 l 1,7,-1
 -711 1252 l 1,4,-1
EndSplineSet
EndChar
StartChar: dotbelow
Encoding: 803 803 170
Width: 0
Flags: W
LayerCount: 2
Back
Fore
SplineSet
-812 -218 m 0,0,1
 -813 -196 -813 -196 -795.5 -179 c 128,-1,2
 -778 -162 -778 -162 -756 -162 c 256,3,4
 -734 -162 -734 -162 -716 -178.5 c 128,-1,5
 -698 -195 -698 -195 -698 -218 c 256,6,7
 -698 -241 -698 -241 -716 -257 c 128,-1,8
 -734 -273 -734 -273 -756 -273 c 256,9,10
 -778 -273 -778 -273 -795 -257 c 128,-1,11
 -812 -241 -812 -241 -812 -218 c 0,0,1
EndSplineSet
EndChar
StartChar: tonos
Encoding: 900 900 171
Width: 1229
Flags: W
LayerCount: 2
Back
Fore
SplineSet
709 1578 m 1,0,-1
 776 1578 l 1,1,-1
 659 1305 l 1,2,-1
 603 1305 l 1,3,-1
 709 1578 l 1,0,-1
EndSplineSet
EndChar
StartChar: dieresistonos
Encoding: 901 901 172
Width: 1229
Flags: W
LayerCount: 2
Back
Fore
SplineSet
649 1657 m 1,0,-1
 725 1657 l 1,1,-1
 684 1417 l 1,2,-1
 627 1417 l 1,3,-1
 649 1657 l 1,0,-1
393 1421 m 256,4,5
 393 1442 393 1442 408.5 1459.5 c 128,-1,6
 424 1477 424 1477 446 1477 c 256,7,8
 468 1477 468 1477 484 1459.5 c 128,-1,9
 500 1442 500 1442 500 1421 c 256,10,11
 500 1400 500 1400 484 1383 c 128,-1,12
 468 1366 468 1366 446 1366 c 0,13,14
 425 1366 425 1366 409 1383 c 128,-1,15
 393 1400 393 1400 393 1421 c 256,4,5
810 1421 m 256,16,17
 810 1442 810 1442 825.5 1459.5 c 128,-1,18
 841 1477 841 1477 863 1477 c 256,19,20
 885 1477 885 1477 901.5 1459.5 c 128,-1,21
 918 1442 918 1442 917 1421 c 0,22,23
 917 1400 917 1400 901 1383 c 128,-1,24
 885 1366 885 1366 863 1366 c 0,25,26
 842 1366 842 1366 826 1383 c 128,-1,27
 810 1400 810 1400 810 1421 c 256,16,17
EndSplineSet
EndChar
StartChar: Delta
Encoding: 916 916 175
AltUni2: 002206.ffffffff.0
Width: 1229
Flags: W
LayerCount: 2
Back
Fore
SplineSet
603 1456 m 1,0,-1
 662 1456 l 1,1,-1
 1187 0 l 1,2,-1
 79 0 l 1,3,-1
 603 1456 l 1,0,-1
153 54 m 1,4,-1
 1110 54 l 1,5,-1
 654 1325 l 1,6,-1
 632 1395 l 1,7,-1
 610 1325 l 1,8,-1
 153 54 l 1,4,-1
EndSplineSet
EndChar
StartChar: Theta
Encoding: 920 920 176
Width: 1229
Flags: W
LayerCount: 2
Back
Fore
SplineSet
855 691 m 1,0,-1
 343 691 l 1,1,-1
 343 744 l 1,2,-1
 855 744 l 1,3,-1
 855 691 l 1,0,-1
1086 619 m 2,4,5
 1085 548 1085 548 1073 473 c 128,-1,6
 1061 398 1061 398 1037 327 c 128,-1,7
 1013 256 1013 256 975.5 193 c 128,-1,8
 938 130 938 130 886 82.5 c 128,-1,9
 834 35 834 35 766.5 7.5 c 128,-1,10
 699 -20 699 -20 616 -20 c 256,11,12
 533 -20 533 -20 465.5 7.5 c 128,-1,13
 398 35 398 35 345.5 82.5 c 128,-1,14
 293 130 293 130 255 193 c 128,-1,15
 217 256 217 256 192.5 327 c 128,-1,16
 168 398 168 398 155.5 473 c 128,-1,17
 143 548 143 548 142 619 c 2,18,-1
 142 837 l 2,19,20
 143 908 143 908 155 983 c 128,-1,21
 167 1058 167 1058 191.5 1129 c 128,-1,22
 216 1200 216 1200 253.5 1263 c 128,-1,23
 291 1326 291 1326 343.5 1373.5 c 128,-1,24
 396 1421 396 1421 463 1448.5 c 128,-1,25
 530 1476 530 1476 614 1476 c 256,26,27
 698 1476 698 1476 765 1448.5 c 128,-1,28
 832 1421 832 1421 884.5 1373.5 c 128,-1,29
 937 1326 937 1326 974.5 1263 c 128,-1,30
 1012 1200 1012 1200 1036.5 1129 c 128,-1,31
 1061 1058 1061 1058 1073 983 c 128,-1,32
 1085 908 1085 908 1086 837 c 2,33,-1
 1086 619 l 2,4,5
1033 839 m 2,34,35
 1032 903 1032 903 1022 971 c 128,-1,36
 1012 1039 1012 1039 991 1103.5 c 128,-1,37
 970 1168 970 1168 937 1226 c 128,-1,38
 904 1284 904 1284 857.5 1327.5 c 128,-1,39
 811 1371 811 1371 750.5 1396.5 c 128,-1,40
 690 1422 690 1422 614 1422 c 256,41,42
 538 1422 538 1422 478 1396.5 c 128,-1,43
 418 1371 418 1371 371.5 1327.5 c 128,-1,44
 325 1284 325 1284 292.5 1226 c 128,-1,45
 260 1168 260 1168 239 1103 c 128,-1,46
 218 1038 218 1038 208 970 c 128,-1,47
 198 902 198 902 197 839 c 2,48,-1
 197 619 l 2,49,50
 198 555 198 555 208 487 c 128,-1,51
 218 419 218 419 239 354 c 128,-1,52
 260 289 260 289 293 231 c 128,-1,53
 326 173 326 173 372.5 129 c 128,-1,54
 419 85 419 85 479.5 59.5 c 128,-1,55
 540 34 540 34 616 34 c 256,56,57
 692 34 692 34 752.5 59.5 c 128,-1,58
 813 85 813 85 859 129 c 128,-1,59
 905 173 905 173 938 231 c 128,-1,60
 971 289 971 289 992 354 c 128,-1,61
 1013 419 1013 419 1022.5 487 c 128,-1,62
 1032 555 1032 555 1033 619 c 2,63,-1
 1033 839 l 2,34,35
EndSplineSet
EndChar
StartChar: Lambda
Encoding: 923 923 177
Width: 1229
Flags: W
LayerCount: 2
Back
Fore
SplineSet
623 1379 m 1,0,-1
 159 0 l 1,1,-1
 102 0 l 1,2,-1
 592 1456 l 1,3,-1
 654 1456 l 1,4,-1
 1145 0 l 1,5,-1
 1088 0 l 1,6,-1
 623 1379 l 1,0,-1
EndSplineSet
EndChar
StartChar: Xi
Encoding: 926 926 178
Width: 1229
Flags: W
LayerCount: 2
Back
Fore
SplineSet
161 54 m 1,0,-1
 1063 54 l 1,1,-1
 1063 0 l 1,2,-1
 161 0 l 1,3,-1
 161 54 l 1,0,-1
269 741 m 1,4,-1
 947 741 l 1,5,-1
 947 687 l 1,6,-1
 269 687 l 1,7,-1
 269 741 l 1,4,-1
182 1456 m 1,8,-1
 1024 1456 l 1,9,-1
 1024 1403 l 1,10,-1
 182 1403 l 1,11,-1
 182 1456 l 1,8,-1
EndSplineSet
EndChar
StartChar: Pi
Encoding: 928 928 179
Width: 1229
Flags: W
LayerCount: 2
Back
Fore
SplineSet
1043 0 m 1,0,-1
 992 0 l 1,1,-1
 992 1402 l 1,2,-1
 237 1402 l 1,3,-1
 237 0 l 1,4,-1
 186 0 l 1,5,-1
 186 1456 l 1,6,-1
 1043 1456 l 1,7,-1
 1043 0 l 1,0,-1
EndSplineSet
EndChar
StartChar: Sigma
Encoding: 931 931 180
Width: 1229
Flags: W
LayerCount: 2
Back
Fore
SplineSet
729 768 m 1,0,-1
 206 54 l 1,1,-1
 1122 54 l 1,2,-1
 1122 0 l 1,3,-1
 130 0 l 1,4,-1
 130 44 l 1,5,-1
 677 787 l 1,6,-1
 130 1412 l 1,7,-1
 130 1456 l 1,8,-1
 167 1456 l 1,9,-1
 169 1453 l 1,10,-1
 169 1456 l 1,11,-1
 1062 1456 l 1,12,-1
 1062 1403 l 1,13,-1
 213 1403 l 1,14,-1
 729 815 l 1,15,-1
 729 768 l 1,0,-1
EndSplineSet
EndChar
StartChar: Phi
Encoding: 934 934 181
Width: 1229
Flags: W
LayerCount: 2
Back
Fore
SplineSet
640 1266 m 1,0,1
 750 1263 750 1263 842 1221.5 c 128,-1,2
 934 1180 934 1180 1000.5 1109 c 128,-1,3
 1067 1038 1067 1038 1104 943 c 128,-1,4
 1141 848 1141 848 1141 739 c 0,5,6
 1141 629 1141 629 1104 533.5 c 128,-1,7
 1067 438 1067 438 1001 366.5 c 128,-1,8
 935 295 935 295 843 253 c 128,-1,9
 751 211 751 211 640 209 c 1,10,-1
 640 0 l 1,11,-1
 588 0 l 1,12,-1
 588 209 l 1,13,14
 478 212 478 212 386 253.5 c 128,-1,15
 294 295 294 295 228 366 c 128,-1,16
 162 437 162 437 125.5 532 c 128,-1,17
 89 627 89 627 89 737 c 0,18,19
 89 846 89 846 125.5 941 c 128,-1,20
 162 1036 162 1036 228 1107.5 c 128,-1,21
 294 1179 294 1179 386 1221 c 128,-1,22
 478 1263 478 1263 588 1266 c 1,23,-1
 588 1456 l 1,24,-1
 640 1456 l 1,25,-1
 640 1266 l 1,0,1
1087 739 m 256,26,27
 1087 838 1087 838 1054.5 923.5 c 128,-1,28
 1022 1009 1022 1009 963 1072.5 c 128,-1,29
 904 1136 904 1136 822 1173 c 128,-1,30
 740 1210 740 1210 640 1212 c 1,31,-1
 640 263 l 1,32,33
 740 264 740 264 822.5 301.5 c 128,-1,34
 905 339 905 339 964 403.5 c 128,-1,35
 1023 468 1023 468 1055 554 c 128,-1,36
 1087 640 1087 640 1087 739 c 256,26,27
144 737 m 0,37,38
 144 638 144 638 176 552.5 c 128,-1,39
 208 467 208 467 266.5 403.5 c 128,-1,40
 325 340 325 340 406.5 302.5 c 128,-1,41
 488 265 488 265 588 263 c 1,42,-1
 588 1212 l 1,43,44
 489 1209 489 1209 407 1171.5 c 128,-1,45
 325 1134 325 1134 266.5 1070 c 128,-1,46
 208 1006 208 1006 176 920.5 c 128,-1,47
 144 835 144 835 144 737 c 0,37,38
EndSplineSet
EndChar
StartChar: Psi
Encoding: 936 936 182
Width: 1229
Flags: W
LayerCount: 2
Back
Fore
SplineSet
647 471 m 1,0,1
 743 475 743 475 817.5 515.5 c 128,-1,2
 892 556 892 556 942.5 621.5 c 128,-1,3
 993 687 993 687 1019 770.5 c 128,-1,4
 1045 854 1045 854 1046 946 c 2,5,-1
 1047 1456 l 1,6,-1
 1099 1456 l 1,7,-1
 1100 946 l 2,8,9
 1099 841 1099 841 1069 746.5 c 128,-1,10
 1039 652 1039 652 982 580 c 128,-1,11
 925 508 925 508 841 464 c 128,-1,12
 757 420 757 420 647 416 c 1,13,-1
 647 0 l 1,14,-1
 595 0 l 1,15,-1
 595 416 l 1,16,17
 486 422 486 422 402.5 466 c 128,-1,18
 319 510 319 510 262 582 c 128,-1,19
 205 654 205 654 175.5 747.5 c 128,-1,20
 146 841 146 841 145 946 c 2,21,-1
 146 1456 l 1,22,-1
 199 1456 l 1,23,-1
 200 946 l 2,24,25
 201 854 201 854 227 770.5 c 128,-1,26
 253 687 253 687 303 622.5 c 128,-1,27
 353 558 353 558 426.5 517.5 c 128,-1,28
 500 477 500 477 595 471 c 1,29,-1
 595 1456 l 1,30,-1
 647 1456 l 1,31,-1
 647 471 l 1,0,1
EndSplineSet
EndChar
